SplineFontDB: 3.0
FontName: Luna-Italic
FullName: Luna Regular Italic
FamilyName: Luna
Weight: Book
Copyright: Copyright (c) 2013 - 2016, Juan Pablo del Peral [huertatipografica.com.ar], Cristiano Sobral [cssobral2013@gmail.com].
Version: 1.501;PS 001.000;hotconv 1.0.70;makeotf.lib2.5.58329 DEVELOPMENT
ItalicAngle: -7
UnderlinePosition: -299
UnderlineWidth: 77
Ascent: 1638
Descent: 410
sfntRevision: 0x00010000
LayerCount: 2
Layer: 0 1 "Back"  1
Layer: 1 1 "Fore"  0
XUID: [1021 633 1153022450 3027346]
FSType: 4
OS2Version: 3
OS2_WeightWidthSlopeOnly: 0
OS2_UseTypoMetrics: 1
CreationTime: 1386077766
ModificationTime: 1462128651
PfmFamily: 81
TTFWeight: 400
TTFWidth: 5
LineGap: 0
VLineGap: 0
Panose: 0 0 5 0 0 0 0 0 0 0
OS2TypoAscent: 1638
OS2TypoAOffset: 0
OS2TypoDescent: -410
OS2TypoDOffset: 0
OS2TypoLinegap: 0
OS2WinAscent: 2278
OS2WinAOffset: 0
OS2WinDescent: 641
OS2WinDOffset: 0
HheadAscent: 2278
HheadAOffset: 0
HheadDescent: -641
HheadDOffset: 0
OS2SubXSize: 1331
OS2SubYSize: 1229
OS2SubXOff: -18
OS2SubYOff: 154
OS2SupXSize: 1331
OS2SupYSize: 1229
OS2SupXOff: 88
OS2SupYOff: 717
OS2StrikeYSize: 78
OS2StrikeYPos: 561
OS2Vendor: 'UKWN'
OS2CodePages: 20000193.00000000
OS2UnicodeRanges: 20000007.00000000.00000000.00000000
Lookup: 1 0 0 "'aalt' Access All Alternates lookup 0"  {"'aalt' Access All Alternates lookup 0 subtable"  } ['aalt' ('DFLT' <'dflt' > 'grek' <'dflt' > 'latn' <'CAT ' 'ESP ' 'MOL ' 'NLD ' 'ROM ' 'TRK ' 'dflt' > ) ]
Lookup: 3 0 0 "'aalt' Access All Alternates lookup 1"  {"'aalt' Access All Alternates lookup 1 subtable"  } ['aalt' ('DFLT' <'dflt' > 'grek' <'dflt' > 'latn' <'CAT ' 'ESP ' 'MOL ' 'NLD ' 'ROM ' 'TRK ' 'dflt' > ) ]
Lookup: 6 0 0 "'locl' Localized Forms in Latin lookup 2"  {"'locl' Localized Forms in Latin lookup 2 contextual 0"  "'locl' Localized Forms in Latin lookup 2 contextual 1"  } ['locl' ('latn' <'CAT ' > ) ]

StartChar: exclam
Encoding: 33 33 4
Width: 598
GlyphClass: 2
Flags: W
LayerCount: 2
Fore
SplineSet
530 1491 m 1,0,-1
 361 495 l 1,1,-1
 254 484 l 1,2,-1
 239 507 l 1,3,-1
 361 1486 l 1,4,-1
 381 1508 l 1,5,-1
 514 1514 l 1,6,-1
 530 1491 l 1,0,-1
261 193 m 0,7,8
 305 193 305 193 331 167 c 128,-1,9
 357 141 357 141 357 96 c 0,10,11
 357 48 357 48 329.5 18.5 c 128,-1,12
 302 -11 302 -11 254 -11 c 0,13,14
 209 -11 209 -11 183.5 16 c 128,-1,15
 158 43 158 43 158 90 c 0,16,17
 158 120 158 120 170.5 143.5 c 128,-1,18
 183 167 183 167 206 180 c 128,-1,19
 229 193 229 193 261 193 c 0,7,8
EndSplineSet
EndChar

StartChar: quotedbl
Encoding: 34 34 5
Width: 639
GlyphClass: 2
Flags: W
LayerCount: 2
Fore
SplineSet
388 1449 m 1,0,-1
 284 1037 l 1,1,-1
 195 1023 l 1,2,-1
 181 1039 l 1,3,-1
 243 1454 l 1,4,-1
 379 1464 l 1,5,-1
 388 1449 l 1,0,-1
656 1449 m 1,6,-1
 551 1037 l 1,7,-1
 461 1023 l 1,8,-1
 447 1039 l 1,9,-1
 512 1454 l 1,10,-1
 644 1464 l 1,11,-1
 656 1449 l 1,6,-1
EndSplineSet
EndChar

StartChar: numbersign
Encoding: 35 35 6
Width: 1176
GlyphClass: 2
Flags: W
LayerCount: 2
Fore
SplineSet
853 840 m 1,0,-1
 792 569 l 1,1,-1
 1037 569 l 1,2,-1
 1048 558 l 1,3,-1
 1039 464 l 1,4,-1
 766 464 l 1,5,-1
 679 74 l 1,6,-1
 578 74 l 1,7,-1
 567 90 l 1,8,-1
 652 464 l 1,9,-1
 396 464 l 1,10,-1
 309 74 l 1,11,-1
 208 74 l 1,12,-1
 197 90 l 1,13,-1
 282 464 l 1,14,-1
 59 464 l 1,15,-1
 46 475 l 1,16,-1
 55 569 l 1,17,-1
 305 569 l 1,18,-1
 367 840 l 1,19,-1
 140 840 l 1,20,-1
 127 851 l 1,21,-1
 136 945 l 1,22,-1
 390 945 l 1,23,-1
 475 1317 l 1,24,-1
 576 1317 l 1,25,-1
 587 1300 l 1,26,-1
 507 945 l 1,27,-1
 759 945 l 1,28,-1
 844 1317 l 1,29,-1
 945 1317 l 1,30,-1
 956 1300 l 1,31,-1
 876 945 l 1,32,-1
 1117 945 l 1,33,-1
 1131 934 l 1,34,-1
 1119 840 l 1,35,-1
 853 840 l 1,0,-1
736 840 m 1,36,-1
 484 840 l 1,37,-1
 422 569 l 1,38,-1
 674 569 l 1,39,-1
 736 840 l 1,36,-1
EndSplineSet
EndChar

StartChar: dollar
Encoding: 36 36 7
Width: 976
GlyphClass: 2
Flags: W
LayerCount: 2
Fore
SplineSet
825 954 m 1,0,-1
 801 948 l 1,1,2
 706 1023 706 1023 617 1033 c 1,3,-1
 562 624 l 1,4,5
 607 604 607 604 638 587 c 128,-1,6
 669 570 669 570 705.5 543.5 c 128,-1,7
 742 517 742 517 764 489 c 128,-1,8
 786 461 786 461 801 421 c 128,-1,9
 816 381 816 381 816 335 c 128,-1,10
 816 289 816 289 802 244 c 128,-1,11
 788 199 788 199 759 158.5 c 128,-1,12
 730 118 730 118 690 85 c 128,-1,13
 650 52 650 52 595 28.5 c 128,-1,14
 540 5 540 5 477 -4 c 1,15,-1
 440 -296 l 1,16,-1
 353 -296 l 1,17,-1
 339 -280 l 1,18,-1
 372 -11 l 1,19,20
 295 -9 295 -9 211.5 10.5 c 128,-1,21
 128 30 128 30 64 66 c 1,22,-1
 92 213 l 1,23,-1
 114 223 l 1,24,25
 167 169 167 169 240 137.5 c 128,-1,26
 313 106 313 106 385 101 c 1,27,-1
 442 519 l 1,28,29
 409 534 409 534 385.5 545.5 c 128,-1,30
 362 557 362 557 332 574.5 c 128,-1,31
 302 592 302 592 281.5 608.5 c 128,-1,32
 261 625 261 625 239.5 647.5 c 128,-1,33
 218 670 218 670 204.5 694 c 128,-1,34
 191 718 191 718 183 749 c 128,-1,35
 175 780 175 780 175 814 c 0,36,37
 175 874 175 874 199.5 929.5 c 128,-1,38
 224 985 224 985 268 1030 c 128,-1,39
 312 1075 312 1075 379 1105.5 c 128,-1,40
 446 1136 446 1136 525 1145 c 1,41,-1
 564 1466 l 1,42,-1
 650 1466 l 1,43,-1
 670 1447 l 1,44,-1
 628 1147 l 1,45,46
 746 1143 746 1143 865 1094 c 1,47,-1
 825 954 l 1,0,-1
317 838 m 0,48,49
 317 784 317 784 354.5 746 c 128,-1,50
 392 708 392 708 461 672 c 1,51,-1
 510 1028 l 1,52,53
 464 1021 464 1021 427 1001.5 c 128,-1,54
 390 982 390 982 366.5 956 c 128,-1,55
 343 930 343 930 330 899.5 c 128,-1,56
 317 869 317 869 317 838 c 0,48,49
674 307 m 0,57,58
 674 360 674 360 640 397.5 c 128,-1,59
 606 435 606 435 541 470 c 1,60,-1
 493 112 l 1,61,62
 574 134 574 134 624 189 c 128,-1,63
 674 244 674 244 674 307 c 0,57,58
EndSplineSet
EndChar

StartChar: percent
Encoding: 37 37 8
Width: 1900
GlyphClass: 2
Flags: W
LayerCount: 2
Fore
SplineSet
1598 1510 m 1,0,-1
 1608 1480 l 1,1,-1
 315 -208 l 1,2,-1
 245 -165 l 1,3,-1
 236 -138 l 1,4,-1
 1530 1552 l 1,5,-1
 1598 1510 l 1,0,-1
558 1477 m 0,6,7
 695 1477 695 1477 767.5 1395.5 c 128,-1,8
 840 1314 840 1314 840 1163 c 0,9,10
 840 930 840 930 736 800 c 128,-1,11
 632 670 632 670 438 670 c 0,12,13
 301 670 301 670 228.5 752.5 c 128,-1,14
 156 835 156 835 156 989 c 0,15,16
 156 1219 156 1219 260.5 1348 c 128,-1,17
 365 1477 365 1477 558 1477 c 0,6,7
532 1357 m 0,18,19
 406 1357 406 1357 341 1266.5 c 128,-1,20
 276 1176 276 1176 276 1011 c 0,21,22
 276 937 276 937 296 886.5 c 128,-1,23
 316 836 316 836 357 810 c 128,-1,24
 398 784 398 784 459 784 c 0,25,26
 588 784 588 784 654 875 c 128,-1,27
 720 966 720 966 720 1131 c 0,28,29
 720 1242 720 1242 672.5 1299.5 c 128,-1,30
 625 1357 625 1357 532 1357 c 0,18,19
1510 799 m 0,31,32
 1601 799 1601 799 1665 762 c 128,-1,33
 1729 725 1729 725 1761.5 654 c 128,-1,34
 1794 583 1794 583 1794 482 c 0,35,36
 1794 251 1794 251 1689.5 121 c 128,-1,37
 1585 -9 1585 -9 1392 -9 c 0,38,39
 1255 -9 1255 -9 1181.5 73 c 128,-1,40
 1108 155 1108 155 1108 307 c 0,41,42
 1108 537 1108 537 1213.5 668 c 128,-1,43
 1319 799 1319 799 1510 799 c 0,31,32
1484 679 m 0,44,45
 1400 679 1400 679 1342 637 c 128,-1,46
 1284 595 1284 595 1256 517.5 c 128,-1,47
 1228 440 1228 440 1228 330 c 0,48,49
 1228 105 1228 105 1411 105 c 0,50,51
 1497 105 1497 105 1556 147 c 128,-1,52
 1615 189 1615 189 1643.5 265.5 c 128,-1,53
 1672 342 1672 342 1672 451 c 0,54,55
 1672 525 1672 525 1651.5 575.5 c 128,-1,56
 1631 626 1631 626 1589 652.5 c 128,-1,57
 1547 679 1547 679 1484 679 c 0,44,45
EndSplineSet
EndChar

StartChar: ampersand
Encoding: 38 38 9
Width: 1456
GlyphClass: 2
Flags: W
LayerCount: 2
Fore
SplineSet
766 1488 m 0,0,1
 860 1488 860 1488 945 1468 c 128,-1,2
 1030 1448 1030 1448 1127 1406 c 1,3,-1
 1081 1259 l 1,4,-1
 1053 1254 l 1,5,6
 892 1353 892 1353 736 1353 c 0,7,8
 593 1353 593 1353 513 1283.5 c 128,-1,9
 433 1214 433 1214 433 1083 c 0,10,11
 433 970 433 970 496 901 c 128,-1,12
 559 832 559 832 668 823 c 1,13,-1
 1307 858 l 1,14,-1
 1523 886 l 1,15,-1
 1539 860 l 1,16,-1
 1502 736 l 1,17,-1
 1108 718 l 1,18,-1
 1103 707 l 1,19,20
 1173 605 1173 605 1173 461 c 0,21,22
 1173 361 1173 361 1136.5 274.5 c 128,-1,23
 1100 188 1100 188 1031 122 c 128,-1,24
 962 56 962 56 854.5 18 c 128,-1,25
 747 -20 747 -20 613 -20 c 0,26,27
 389 -20 389 -20 260 77 c 128,-1,28
 131 174 131 174 131 337 c 0,29,30
 131 469 131 469 216.5 575 c 128,-1,31
 302 681 302 681 470 755 c 1,32,-1
 470 764 l 1,33,34
 377 808 377 808 327.5 891.5 c 128,-1,35
 278 975 278 975 278 1085 c 0,36,37
 278 1269 278 1269 408 1378.5 c 128,-1,38
 538 1488 538 1488 766 1488 c 0,0,1
920 709 m 1,39,-1
 582 696 l 1,40,41
 302 571 302 571 302 363 c 0,42,43
 302 245 302 245 390.5 176.5 c 128,-1,44
 479 108 479 108 633 108 c 0,45,46
 818 108 818 108 919 206 c 128,-1,47
 1020 304 1020 304 1020 464 c 0,48,49
 1020 541 1020 541 993.5 605 c 128,-1,50
 967 669 967 669 920 709 c 1,39,-1
EndSplineSet
EndChar

StartChar: quotesingle
Encoding: 39 39 10
Width: 370
GlyphClass: 2
Flags: W
LayerCount: 2
Fore
SplineSet
388 1449 m 1,0,-1
 284 1037 l 1,1,-1
 195 1023 l 1,2,-1
 181 1039 l 1,3,-1
 243 1454 l 1,4,-1
 379 1464 l 1,5,-1
 388 1449 l 1,0,-1
EndSplineSet
Substitution2: "'locl' Localized Forms in Latin lookup 12 subtable" puso
Substitution2: "'locl' Localized Forms in Latin lookup 10 subtable" puso
Substitution2: "'aalt' Access All Alternates lookup 0 subtable" puso
EndChar

StartChar: parenleft
Encoding: 40 40 11
Width: 657
GlyphClass: 2
Flags: W
LayerCount: 2
Fore
SplineSet
734 1462 m 1,0,-1
 731 1445 l 1,1,2
 654 1391 654 1391 589.5 1318.5 c 128,-1,3
 525 1246 525 1246 480.5 1169.5 c 128,-1,4
 436 1093 436 1093 401.5 1004 c 128,-1,5
 367 915 367 915 346.5 832 c 128,-1,6
 326 749 326 749 313 659.5 c 128,-1,7
 300 570 300 570 295.5 496.5 c 128,-1,8
 291 423 291 423 291 348 c 0,9,10
 291 138 291 138 343 -0.5 c 128,-1,11
 395 -139 395 -139 523 -250 c 1,12,-1
 521 -267 l 1,13,-1
 449 -324 l 1,14,-1
 433 -324 l 1,15,16
 280 -201 280 -201 215.5 -46.5 c 128,-1,17
 151 108 151 108 151 348 c 0,18,19
 151 432 151 432 157 514 c 128,-1,20
 163 596 163 596 178.5 691.5 c 128,-1,21
 194 787 194 787 218 875.5 c 128,-1,22
 242 964 242 964 282 1057 c 128,-1,23
 322 1150 322 1150 374 1230.5 c 128,-1,24
 426 1311 426 1311 499.5 1386 c 128,-1,25
 573 1461 573 1461 661 1519 c 1,26,-1
 676 1519 l 1,27,-1
 734 1462 l 1,0,-1
EndSplineSet
EndChar

StartChar: parenright
Encoding: 41 41 12
Width: 657
GlyphClass: 2
Flags: W
LayerCount: 2
Fore
SplineSet
-57 -267 m 1,0,-1
 -55 -250 l 1,1,2
 23 -196 23 -196 87 -123.5 c 128,-1,3
 151 -51 151 -51 196 25.5 c 128,-1,4
 241 102 241 102 275.5 191 c 128,-1,5
 310 280 310 280 330 363 c 128,-1,6
 350 446 350 446 363 535.5 c 128,-1,7
 376 625 376 625 380.5 698.5 c 128,-1,8
 385 772 385 772 385 847 c 0,9,10
 385 1056 385 1056 333 1194.5 c 128,-1,11
 281 1333 281 1333 153 1445 c 1,12,-1
 156 1462 l 1,13,-1
 227 1519 l 1,14,-1
 243 1519 l 1,15,16
 397 1393 397 1393 461 1240 c 128,-1,17
 525 1087 525 1087 525 847 c 0,18,19
 525 763 525 763 519.5 681 c 128,-1,20
 514 599 514 599 498 503.5 c 128,-1,21
 482 408 482 408 457.5 319.5 c 128,-1,22
 433 231 433 231 393 138 c 128,-1,23
 353 45 353 45 301.5 -35.5 c 128,-1,24
 250 -116 250 -116 177 -191 c 128,-1,25
 104 -266 104 -266 16 -324 c 1,26,-1
 0 -324 l 1,27,-1
 -57 -267 l 1,0,-1
EndSplineSet
EndChar

StartChar: asterisk
Encoding: 42 42 13
Width: 856
GlyphClass: 2
Flags: W
LayerCount: 2
Fore
SplineSet
626 1665 m 1,0,-1
 576 1392 l 1,1,-1
 503 1383 l 1,2,-1
 491 1399 l 1,3,-1
 488 1659 l 1,4,5
 550 1679 550 1679 617 1679 c 1,6,-1
 626 1665 l 1,0,-1
457 1363 m 1,7,-1
 445 1289 l 1,8,-1
 427 1282 l 1,9,-1
 197 1360 l 1,10,11
 197 1443 197 1443 216 1493 c 1,12,-1
 232 1497 l 1,13,-1
 457 1363 l 1,7,-1
615 1368 m 1,14,-1
 844 1449 l 1,15,16
 889 1381 889 1381 902 1331 c 1,17,-1
 895 1322 l 1,18,-1
 637 1282 l 1,19,-1
 608 1348 l 1,20,-1
 615 1368 l 1,14,-1
626 1234 m 1,21,-1
 768 1025 l 1,22,23
 740 975 740 975 676 931 c 1,24,-1
 661 934 l 1,25,-1
 556 1188 l 1,26,-1
 608 1236 l 1,27,-1
 626 1234 l 1,21,-1
507 1200 m 1,28,-1
 510 1179 l 1,29,-1
 372 968 l 1,30,31
 337 980 337 980 252 1028 c 1,32,-1
 252 1044 l 1,33,-1
 445 1234 l 1,34,-1
 507 1200 l 1,28,-1
EndSplineSet
EndChar

StartChar: plus
Encoding: 43 43 14
Width: 1093
GlyphClass: 2
Flags: W
LayerCount: 2
Fore
SplineSet
676 1073 m 1,0,-1
 626 670 l 1,1,-1
 1028 670 l 1,2,-1
 1042 656 l 1,3,-1
 1018 548 l 1,4,-1
 610 548 l 1,5,-1
 562 140 l 1,6,-1
 451 131 l 1,7,-1
 440 144 l 1,8,-1
 488 548 l 1,9,-1
 85 548 l 1,10,-1
 74 562 l 1,11,-1
 99 670 l 1,12,-1
 503 670 l 1,13,-1
 553 1079 l 1,14,-1
 663 1088 l 1,15,-1
 676 1073 l 1,0,-1
EndSplineSet
EndChar

StartChar: comma
Encoding: 44 44 15
Width: 524
GlyphClass: 2
Flags: W
LayerCount: 2
Fore
SplineSet
225 193 m 1,0,1
 319 133 319 133 319 41 c 0,2,3
 319 -105 319 -105 108 -259 c 1,4,-1
 50 -204 l 1,5,-1
 50 -190 l 1,6,7
 177 -89 177 -89 177 11 c 0,8,9
 177 69 177 69 105 116 c 1,10,-1
 105 136 l 1,11,12
 165 174 165 174 225 193 c 1,0,1
EndSplineSet
EndChar

StartChar: hyphen
Encoding: 45 45 16
Width: 705
GlyphClass: 2
Flags: W
LayerCount: 2
Fore
SplineSet
656 670 m 1,0,-1
 642 560 l 1,1,-1
 78 482 l 1,2,-1
 64 497 l 1,3,-1
 78 608 l 1,4,-1
 642 685 l 1,5,-1
 656 670 l 1,0,-1
EndSplineSet
EndChar

StartChar: period
Encoding: 46 46 17
Width: 527
GlyphClass: 2
Flags: W
LayerCount: 2
Fore
SplineSet
213 193 m 0,0,1
 257 193 257 193 283 167 c 128,-1,2
 309 141 309 141 309 96 c 0,3,4
 309 48 309 48 281.5 18.5 c 128,-1,5
 254 -11 254 -11 208 -11 c 128,-1,6
 162 -11 162 -11 136 16 c 128,-1,7
 110 43 110 43 110 90 c 0,8,9
 110 120 110 120 122 143.5 c 128,-1,10
 134 167 134 167 157.5 180 c 128,-1,11
 181 193 181 193 213 193 c 0,0,1
EndSplineSet
EndChar

StartChar: slash
Encoding: 47 47 18
Width: 659
GlyphClass: 2
Flags: W
LayerCount: 2
Fore
SplineSet
720 1534 m 1,0,-1
 124 -259 l 1,1,-1
 4 -259 l 1,2,-1
 -7 -241 l 1,3,-1
 589 1556 l 1,4,-1
 707 1556 l 1,5,-1
 720 1534 l 1,0,-1
EndSplineSet
Substitution2: "'frac' Diagonal Fractions lookup 19 subtable" fraction
Substitution2: "'aalt' Access All Alternates lookup 0 subtable" fraction
EndChar

StartChar: zero
Encoding: 48 48 19
Width: 1105
GlyphClass: 2
Flags: W
LayerCount: 2
Fore
SplineSet
656 1353 m 0,0,1
 837 1353 837 1353 936 1216 c 128,-1,2
 1035 1079 1035 1079 1035 830 c 0,3,4
 1035 574 1035 574 971 383.5 c 128,-1,5
 907 193 907 193 785 88.5 c 128,-1,6
 663 -16 663 -16 495 -16 c 0,7,8
 306 -16 306 -16 207 120.5 c 128,-1,9
 108 257 108 257 108 510 c 0,10,11
 108 769 108 769 171 958 c 128,-1,12
 234 1147 234 1147 358 1250 c 128,-1,13
 482 1353 482 1353 656 1353 c 0,0,1
628 1195 m 0,14,15
 506 1195 506 1195 419.5 1115.5 c 128,-1,16
 333 1036 333 1036 289 889.5 c 128,-1,17
 245 743 245 743 245 541 c 0,18,19
 245 443 245 443 261.5 368 c 128,-1,20
 278 293 278 293 310.5 241.5 c 128,-1,21
 343 190 343 190 392.5 164 c 128,-1,22
 442 138 442 138 507 138 c 0,23,24
 694 138 694 138 794.5 311 c 128,-1,25
 895 484 895 484 895 792 c 0,26,27
 895 989 895 989 827.5 1092 c 128,-1,28
 760 1195 760 1195 628 1195 c 0,14,15
EndSplineSet
Substitution2: "'case' Case-Sensitive Forms lookup 28 subtable" zero.lf
Substitution2: "'tnum' Tabular Numbers lookup 25 subtable" zero.tosf
Substitution2: "'lnum' Lining Figures lookup 23 subtable" zero.lf
Substitution2: "'frac' Diagonal Fractions lookup 20 subtable" zero.numr
Substitution2: "'dnom' Denominators lookup 18 subtable" zero.dnom
Substitution2: "'numr' Numerators lookup 17 subtable" zero.numr
Substitution2: "'sups' Superscript lookup 16 subtable" zerosuperior
Substitution2: "'sinf' Scientific Inferiors lookup 15 subtable" zero.sinf
AlternateSubs2: "'aalt' Access All Alternates lookup 1 subtable" zero.sinf zerosuperior zero.numr zero.dnom zero.lf zero.tosf
EndChar

StartChar: one
Encoding: 49 49 20
Width: 1088
GlyphClass: 2
Flags: W
LayerCount: 2
Fore
SplineSet
768 1342 m 1,0,-1
 652 475 l 1,1,-1
 604 0 l 1,2,-1
 431 0 l 1,3,-1
 495 455 l 1,4,-1
 582 1163 l 1,5,-1
 179 1079 l 1,6,-1
 162 1088 l 1,7,-1
 179 1223 l 1,8,-1
 746 1363 l 1,9,-1
 768 1342 l 1,0,-1
EndSplineSet
Substitution2: "'ss02' Style Set 2 lookup 36 subtable" arrowleft
Substitution2: "'case' Case-Sensitive Forms lookup 28 subtable" one.lf
Substitution2: "'tnum' Tabular Numbers lookup 25 subtable" one.tosf
Substitution2: "'lnum' Lining Figures lookup 23 subtable" one.lf
Substitution2: "'frac' Diagonal Fractions lookup 20 subtable" one.numr
Substitution2: "'dnom' Denominators lookup 18 subtable" one.dnom
Substitution2: "'numr' Numerators lookup 17 subtable" one.numr
Substitution2: "'sups' Superscript lookup 16 subtable" onesuperior
Substitution2: "'sinf' Scientific Inferiors lookup 15 subtable" one.sinf
AlternateSubs2: "'aalt' Access All Alternates lookup 1 subtable" one.sinf onesuperior one.numr one.dnom one.lf one.tosf arrowleft
EndChar

StartChar: two
Encoding: 50 50 21
Width: 1088
GlyphClass: 2
Flags: W
LayerCount: 2
Fore
SplineSet
624 1357 m 0,0,1
 767 1357 767 1357 859.5 1273.5 c 128,-1,2
 952 1190 952 1190 952 1060 c 0,3,4
 952 1014 952 1014 938.5 969 c 128,-1,5
 925 924 925 924 902 880.5 c 128,-1,6
 879 837 879 837 831.5 775.5 c 128,-1,7
 784 714 784 714 734.5 656.5 c 128,-1,8
 685 599 685 599 601 505 c 1,9,-1
 289 147 l 1,10,-1
 291 138 l 1,11,-1
 773 138 l 1,12,-1
 984 151 l 1,13,-1
 993 136 l 1,14,-1
 952 -9 l 1,15,-1
 709 0 l 1,16,-1
 149 0 l 1,17,-1
 55 -4 l 1,18,-1
 46 4 l 1,19,-1
 59 114 l 1,20,-1
 455 551 l 2,21,22
 524 628 524 628 567 677 c 128,-1,23
 610 726 610 726 655 784 c 128,-1,24
 700 842 700 842 724 883 c 128,-1,25
 748 924 748 924 764 967 c 128,-1,26
 780 1010 780 1010 780 1048 c 0,27,28
 780 1118 780 1118 734 1163 c 128,-1,29
 688 1208 688 1208 599 1208 c 0,30,31
 507 1208 507 1208 414 1158 c 128,-1,32
 321 1108 321 1108 236 1014 c 1,33,-1
 216 1014 l 1,34,-1
 202 1151 l 1,35,36
 411 1357 411 1357 624 1357 c 0,0,1
EndSplineSet
Substitution2: "'ss02' Style Set 2 lookup 36 subtable" arrowup
Substitution2: "'case' Case-Sensitive Forms lookup 28 subtable" two.lf
Substitution2: "'tnum' Tabular Numbers lookup 25 subtable" two.tosf
Substitution2: "'lnum' Lining Figures lookup 23 subtable" two.lf
Substitution2: "'frac' Diagonal Fractions lookup 20 subtable" two.numr
Substitution2: "'dnom' Denominators lookup 18 subtable" two.dnom
Substitution2: "'numr' Numerators lookup 17 subtable" two.numr
Substitution2: "'sups' Superscript lookup 16 subtable" twosuperior
Substitution2: "'sinf' Scientific Inferiors lookup 15 subtable" two.sinf
AlternateSubs2: "'aalt' Access All Alternates lookup 1 subtable" two.sinf twosuperior two.numr two.dnom two.lf two.tosf arrowup
EndChar

StartChar: three
Encoding: 51 51 22
Width: 1090
GlyphClass: 2
Flags: W
LayerCount: 2
Fore
SplineSet
585 1363 m 0,0,1
 741 1363 741 1363 832.5 1289.5 c 128,-1,2
 924 1216 924 1216 924 1094 c 0,3,4
 924 1028 924 1028 894 962.5 c 128,-1,5
 864 897 864 897 799 835.5 c 128,-1,6
 734 774 734 774 642 731 c 1,7,-1
 642 722 l 1,8,9
 897 660 897 660 897 436 c 0,10,11
 897 310 897 310 822 207.5 c 128,-1,12
 747 105 747 105 615.5 47 c 128,-1,13
 484 -11 484 -11 324 -11 c 0,14,15
 203 -11 203 -11 90 11 c 1,16,-1
 96 165 l 1,17,-1
 114 179 l 1,18,19
 221 127 221 127 342 127 c 0,20,21
 513 127 513 127 621 208 c 128,-1,22
 729 289 729 289 729 424 c 0,23,24
 729 522 729 522 657 577 c 128,-1,25
 585 632 585 632 449 637 c 1,26,-1
 315 637 l 1,27,-1
 302 652 l 1,28,-1
 324 771 l 1,29,-1
 424 773 l 1,30,31
 475 773 475 773 530.5 794.5 c 128,-1,32
 586 816 586 816 634 852.5 c 128,-1,33
 682 889 682 889 713 944 c 128,-1,34
 744 999 744 999 744 1060 c 0,35,36
 744 1134 744 1134 694.5 1177.5 c 128,-1,37
 645 1221 645 1221 558 1221 c 0,38,39
 484 1221 484 1221 409 1186.5 c 128,-1,40
 334 1152 334 1152 248 1083 c 1,41,-1
 230 1083 l 1,42,-1
 221 1221 l 1,43,44
 319 1294 319 1294 405 1328.5 c 128,-1,45
 491 1363 491 1363 585 1363 c 0,0,1
EndSplineSet
Substitution2: "'ss02' Style Set 2 lookup 36 subtable" arrowright
Substitution2: "'case' Case-Sensitive Forms lookup 28 subtable" three.lf
Substitution2: "'tnum' Tabular Numbers lookup 25 subtable" three.tosf
Substitution2: "'lnum' Lining Figures lookup 23 subtable" three.lf
Substitution2: "'frac' Diagonal Fractions lookup 20 subtable" three.numr
Substitution2: "'dnom' Denominators lookup 18 subtable" three.dnom
Substitution2: "'numr' Numerators lookup 17 subtable" three.numr
Substitution2: "'sups' Superscript lookup 16 subtable" threesuperior
Substitution2: "'sinf' Scientific Inferiors lookup 15 subtable" three.sinf
AlternateSubs2: "'aalt' Access All Alternates lookup 1 subtable" three.sinf threesuperior three.numr three.dnom three.lf three.tosf arrowright
EndChar

StartChar: four
Encoding: 52 52 23
Width: 1088
GlyphClass: 2
Flags: W
LayerCount: 2
Fore
SplineSet
1002 510 m 1,0,-1
 977 388 l 1,1,-1
 773 392 l 1,2,-1
 764 392 l 1,3,-1
 725 13 l 1,4,-1
 713 -2 l 1,5,-1
 580 -13 l 1,6,-1
 571 0 l 1,7,-1
 624 392 l 1,8,-1
 202 392 l 1,9,-1
 57 388 l 1,10,-1
 46 403 l 1,11,-1
 59 521 l 1,12,-1
 722 1344 l 1,13,-1
 883 1344 l 1,14,-1
 780 525 l 1,15,-1
 991 525 l 1,16,-1
 1002 510 l 1,0,-1
216 525 m 1,17,-1
 642 525 l 1,18,-1
 718 1133 l 1,19,-1
 704 1133 l 1,20,-1
 216 525 l 1,17,-1
EndSplineSet
Substitution2: "'ss02' Style Set 2 lookup 36 subtable" arrowdown
Substitution2: "'case' Case-Sensitive Forms lookup 28 subtable" four.lf
Substitution2: "'tnum' Tabular Numbers lookup 25 subtable" four.tosf
Substitution2: "'lnum' Lining Figures lookup 23 subtable" four.lf
Substitution2: "'frac' Diagonal Fractions lookup 20 subtable" four.numr
Substitution2: "'dnom' Denominators lookup 18 subtable" four.dnom
Substitution2: "'numr' Numerators lookup 17 subtable" four.numr
Substitution2: "'sups' Superscript lookup 16 subtable" foursuperior
Substitution2: "'sinf' Scientific Inferiors lookup 15 subtable" four.sinf
AlternateSubs2: "'aalt' Access All Alternates lookup 1 subtable" four.sinf foursuperior four.numr four.dnom four.lf four.tosf arrowdown
EndChar

StartChar: five
Encoding: 53 53 24
Width: 1088
GlyphClass: 2
Flags: W
LayerCount: 2
Fore
SplineSet
1025 1340 m 1,0,-1
 993 1202 l 1,1,-1
 979 1191 l 1,2,-1
 814 1202 l 1,3,-1
 451 1202 l 1,4,-1
 403 834 l 1,5,-1
 553 805 l 1,6,7
 738 767 738 767 830 681.5 c 128,-1,8
 922 596 922 596 922 459 c 0,9,10
 922 360 922 360 875 271 c 128,-1,11
 828 182 828 182 748 117.5 c 128,-1,12
 668 53 668 53 556 15.5 c 128,-1,13
 444 -22 444 -22 319 -22 c 0,14,15
 217 -22 217 -22 94 0 c 1,16,-1
 99 151 l 1,17,-1
 116 168 l 1,18,19
 237 114 237 114 355 114 c 0,20,21
 534 114 534 114 645.5 205 c 128,-1,22
 757 296 757 296 757 438 c 0,23,24
 757 500 757 500 727 546 c 128,-1,25
 697 592 697 592 637.5 623.5 c 128,-1,26
 578 655 578 655 488 672 c 2,27,-1
 271 713 l 1,28,-1
 259 729 l 1,29,-1
 330 1322 l 1,30,-1
 363 1348 l 1,31,-1
 488 1344 l 1,32,-1
 808 1344 l 1,33,-1
 1016 1353 l 1,34,-1
 1025 1340 l 1,0,-1
EndSplineSet
Substitution2: "'ss02' Style Set 2 lookup 36 subtable" arrowupleft
Substitution2: "'case' Case-Sensitive Forms lookup 28 subtable" five.lf
Substitution2: "'tnum' Tabular Numbers lookup 25 subtable" five.tosf
Substitution2: "'lnum' Lining Figures lookup 23 subtable" five.lf
Substitution2: "'frac' Diagonal Fractions lookup 20 subtable" five.numr
Substitution2: "'dnom' Denominators lookup 18 subtable" five.dnom
Substitution2: "'numr' Numerators lookup 17 subtable" five.numr
Substitution2: "'sups' Superscript lookup 16 subtable" fivesuperior
Substitution2: "'sinf' Scientific Inferiors lookup 15 subtable" five.sinf
AlternateSubs2: "'aalt' Access All Alternates lookup 1 subtable" five.sinf fivesuperior five.numr five.dnom five.lf five.tosf arrowupleft
EndChar

StartChar: six
Encoding: 54 54 25
Width: 1088
GlyphClass: 2
Flags: W
LayerCount: 2
Fore
SplineSet
1037 1282 m 1,0,-1
 1035 1263 l 1,1,2
 460 1079 460 1079 312 711 c 1,3,-1
 324 696 l 1,4,5
 476 799 476 799 617 799 c 0,6,7
 719 799 719 799 800 752.5 c 128,-1,8
 881 706 881 706 925.5 626 c 128,-1,9
 970 546 970 546 970 447 c 0,10,11
 970 408 970 408 963.5 367.5 c 128,-1,12
 957 327 957 327 941.5 280.5 c 128,-1,13
 926 234 926 234 903 192 c 128,-1,14
 880 150 880 150 843 111.5 c 128,-1,15
 806 73 806 73 760 44.5 c 128,-1,16
 714 16 714 16 649.5 -1 c 128,-1,17
 585 -18 585 -18 510 -18 c 0,18,19
 377 -18 377 -18 284.5 36 c 128,-1,20
 192 90 192 90 147.5 185 c 128,-1,21
 103 280 103 280 103 411 c 0,22,23
 103 481 103 481 115 552 c 128,-1,24
 127 623 127 623 155 700 c 128,-1,25
 183 777 183 777 225 849.5 c 128,-1,26
 267 922 267 922 331 995.5 c 128,-1,27
 395 1069 395 1069 475.5 1133.5 c 128,-1,28
 556 1198 556 1198 663.5 1257.5 c 128,-1,29
 771 1317 771 1317 897 1363 c 1,30,-1
 906 1363 l 1,31,-1
 1037 1282 l 1,0,-1
585 670 m 0,32,33
 505 670 505 670 422.5 634 c 128,-1,34
 340 598 340 598 267 530 c 1,35,36
 259 469 259 469 259 424 c 0,37,38
 259 369 259 369 266 323.5 c 128,-1,39
 273 278 273 278 291.5 237.5 c 128,-1,40
 310 197 310 197 338.5 169.5 c 128,-1,41
 367 142 367 142 412 126 c 128,-1,42
 457 110 457 110 516 110 c 0,43,44
 573 110 573 110 619.5 123.5 c 128,-1,45
 666 137 666 137 697.5 161 c 128,-1,46
 729 185 729 185 752 215.5 c 128,-1,47
 775 246 775 246 787.5 283 c 128,-1,48
 800 320 800 320 806 355.5 c 128,-1,49
 812 391 812 391 812 429 c 0,50,51
 812 545 812 545 754 607.5 c 128,-1,52
 696 670 696 670 585 670 c 0,32,33
EndSplineSet
Substitution2: "'ss02' Style Set 2 lookup 36 subtable" arrowupright
Substitution2: "'case' Case-Sensitive Forms lookup 28 subtable" six.lf
Substitution2: "'tnum' Tabular Numbers lookup 25 subtable" six.tosf
Substitution2: "'lnum' Lining Figures lookup 23 subtable" six.lf
Substitution2: "'frac' Diagonal Fractions lookup 20 subtable" six.numr
Substitution2: "'dnom' Denominators lookup 18 subtable" six.dnom
Substitution2: "'numr' Numerators lookup 17 subtable" six.numr
Substitution2: "'sups' Superscript lookup 16 subtable" sixsuperior
Substitution2: "'sinf' Scientific Inferiors lookup 15 subtable" six.sinf
AlternateSubs2: "'aalt' Access All Alternates lookup 1 subtable" six.sinf sixsuperior six.numr six.dnom six.lf six.tosf arrowupright
EndChar

StartChar: seven
Encoding: 55 55 26
Width: 1090
GlyphClass: 2
Flags: W
LayerCount: 2
Fore
SplineSet
418 1344 m 1,0,-1
 979 1344 l 1,1,-1
 1081 1348 l 1,2,-1
 1066 1221 l 1,3,-1
 461 234 l 1,4,-1
 324 -32 l 1,5,-1
 186 11 l 1,6,-1
 179 41 l 1,7,-1
 897 1200 l 1,8,-1
 372 1200 l 1,9,-1
 193 1184 l 1,10,-1
 181 1204 l 1,11,-1
 211 1351 l 1,12,-1
 418 1344 l 1,0,-1
EndSplineSet
Substitution2: "'ss02' Style Set 2 lookup 36 subtable" arrowdownright
Substitution2: "'case' Case-Sensitive Forms lookup 28 subtable" seven.lf
Substitution2: "'tnum' Tabular Numbers lookup 25 subtable" seven.tosf
Substitution2: "'lnum' Lining Figures lookup 23 subtable" seven.lf
Substitution2: "'frac' Diagonal Fractions lookup 20 subtable" seven.numr
Substitution2: "'dnom' Denominators lookup 18 subtable" seven.dnom
Substitution2: "'numr' Numerators lookup 17 subtable" seven.numr
Substitution2: "'sups' Superscript lookup 16 subtable" sevensuperior
Substitution2: "'sinf' Scientific Inferiors lookup 15 subtable" seven.sinf
AlternateSubs2: "'aalt' Access All Alternates lookup 1 subtable" seven.sinf sevensuperior seven.numr seven.dnom seven.lf seven.tosf arrowdownright
EndChar

StartChar: eight
Encoding: 56 56 27
Width: 1090
GlyphClass: 2
Flags: W
LayerCount: 2
Fore
SplineSet
637 1357 m 0,0,1
 796 1357 796 1357 891.5 1277 c 128,-1,2
 987 1197 987 1197 987 1055 c 0,3,4
 987 1001 987 1001 971 952.5 c 128,-1,5
 955 904 955 904 929.5 869 c 128,-1,6
 904 834 904 834 867 802.5 c 128,-1,7
 830 771 830 771 794.5 750 c 128,-1,8
 759 729 759 729 716 709 c 1,9,-1
 713 698 l 1,10,11
 758 676 758 676 789 658 c 128,-1,12
 820 640 820 640 854.5 611.5 c 128,-1,13
 889 583 889 583 910 552 c 128,-1,14
 931 521 931 521 945 475.5 c 128,-1,15
 959 430 959 430 959 376 c 0,16,17
 959 204 959 204 831.5 94 c 128,-1,18
 704 -16 704 -16 497 -16 c 0,19,20
 313 -16 313 -16 203.5 75.5 c 128,-1,21
 94 167 94 167 94 317 c 0,22,23
 94 374 94 374 112 423.5 c 128,-1,24
 130 473 130 473 158 509 c 128,-1,25
 186 545 186 545 230.5 578 c 128,-1,26
 275 611 275 611 316 633.5 c 128,-1,27
 357 656 357 656 413 681 c 1,28,-1
 416 690 l 1,29,30
 371 715 371 715 339.5 739 c 128,-1,31
 308 763 308 763 279.5 797.5 c 128,-1,32
 251 832 251 832 237 878 c 128,-1,33
 223 924 223 924 223 982 c 0,34,35
 223 1092 223 1092 275 1177.5 c 128,-1,36
 327 1263 327 1263 421.5 1310 c 128,-1,37
 516 1357 516 1357 637 1357 c 0,0,1
635 1234 m 0,38,39
 515 1234 515 1234 440 1168.5 c 128,-1,40
 365 1103 365 1103 365 998 c 0,41,42
 365 958 365 958 377 924.5 c 128,-1,43
 389 891 389 891 407 867.5 c 128,-1,44
 425 844 425 844 455.5 822.5 c 128,-1,45
 486 801 486 801 514 786.5 c 128,-1,46
 542 772 542 772 582 755 c 1,47,48
 627 772 627 772 661.5 789.5 c 128,-1,49
 696 807 696 807 732.5 833 c 128,-1,50
 769 859 769 859 792.5 887.5 c 128,-1,51
 816 916 816 916 831.5 956 c 128,-1,52
 847 996 847 996 847 1042 c 0,53,54
 847 1135 847 1135 792.5 1184.5 c 128,-1,55
 738 1234 738 1234 635 1234 c 0,38,39
543 628 m 1,56,57
 510 617 510 617 487.5 608 c 128,-1,58
 465 599 465 599 434.5 585.5 c 128,-1,59
 404 572 404 572 382.5 559 c 128,-1,60
 361 546 361 546 337 528.5 c 128,-1,61
 313 511 313 511 297.5 491.5 c 128,-1,62
 282 472 282 472 268 448.5 c 128,-1,63
 254 425 254 425 247.5 396 c 128,-1,64
 241 367 241 367 241 335 c 0,65,66
 241 229 241 229 309 167 c 128,-1,67
 377 105 377 105 500 105 c 0,68,69
 638 105 638 105 726 180 c 128,-1,70
 814 255 814 255 814 367 c 0,71,72
 814 398 814 398 806.5 424.5 c 128,-1,73
 799 451 799 451 787.5 471.5 c 128,-1,74
 776 492 776 492 755.5 511.5 c 128,-1,75
 735 531 735 531 715 545 c 128,-1,76
 695 559 695 559 663.5 575 c 128,-1,77
 632 591 632 591 607 602 c 128,-1,78
 582 613 582 613 543 628 c 1,56,57
EndSplineSet
Substitution2: "'ss02' Style Set 2 lookup 36 subtable" arrowdownleft
Substitution2: "'case' Case-Sensitive Forms lookup 28 subtable" eight.lf
Substitution2: "'tnum' Tabular Numbers lookup 25 subtable" eight.tosf
Substitution2: "'lnum' Lining Figures lookup 23 subtable" eight.lf
Substitution2: "'frac' Diagonal Fractions lookup 20 subtable" eight.numr
Substitution2: "'dnom' Denominators lookup 18 subtable" eight.dnom
Substitution2: "'numr' Numerators lookup 17 subtable" eight.numr
Substitution2: "'sups' Superscript lookup 16 subtable" eightsuperior
Substitution2: "'sinf' Scientific Inferiors lookup 15 subtable" eight.sinf
AlternateSubs2: "'aalt' Access All Alternates lookup 1 subtable" eight.sinf eightsuperior eight.numr eight.dnom eight.lf eight.tosf arrowdownleft
EndChar

StartChar: nine
Encoding: 57 57 28
Width: 1088
GlyphClass: 2
Flags: W
LayerCount: 2
Fore
SplineSet
628 1363 m 0,0,1
 827 1363 827 1363 932 1248 c 128,-1,2
 1037 1133 1037 1133 1037 934 c 0,3,4
 1037 864 1037 864 1025 793 c 128,-1,5
 1013 722 1013 722 985 645.5 c 128,-1,6
 957 569 957 569 914.5 496 c 128,-1,7
 872 423 872 423 808 349.5 c 128,-1,8
 744 276 744 276 664 211.5 c 128,-1,9
 584 147 584 147 476.5 87.5 c 128,-1,10
 369 28 369 28 243 -18 c 1,11,-1
 232 -18 l 1,12,-1
 101 62 l 1,13,-1
 103 81 l 1,14,15
 680 266 680 266 825 633 c 1,16,-1
 816 650 l 1,17,18
 738 598 738 598 668.5 571.5 c 128,-1,19
 599 545 599 545 521 545 c 0,20,21
 366 545 366 545 267 645.5 c 128,-1,22
 168 746 168 746 168 897 c 0,23,24
 168 936 168 936 174.5 977 c 128,-1,25
 181 1018 181 1018 196 1064 c 128,-1,26
 211 1110 211 1110 234.5 1152 c 128,-1,27
 258 1194 258 1194 295 1233 c 128,-1,28
 332 1272 332 1272 378 1300.5 c 128,-1,29
 424 1329 424 1329 488.5 1346 c 128,-1,30
 553 1363 553 1363 628 1363 c 0,0,1
553 674 m 0,31,32
 632 674 632 674 714.5 709 c 128,-1,33
 797 744 797 744 871 812 c 1,34,35
 878 867 878 867 878 920 c 0,36,37
 878 975 878 975 871 1020.5 c 128,-1,38
 864 1066 864 1066 846 1106.5 c 128,-1,39
 828 1147 828 1147 799.5 1174.5 c 128,-1,40
 771 1202 771 1202 726 1218 c 128,-1,41
 681 1234 681 1234 622 1234 c 0,42,43
 554 1234 554 1234 501 1214.5 c 128,-1,44
 448 1195 448 1195 416 1163.5 c 128,-1,45
 384 1132 384 1132 363 1088.5 c 128,-1,46
 342 1045 342 1045 334 1003 c 128,-1,47
 326 961 326 961 326 915 c 0,48,49
 326 800 326 800 385 737 c 128,-1,50
 444 674 444 674 553 674 c 0,31,32
EndSplineSet
Substitution2: "'case' Case-Sensitive Forms lookup 28 subtable" nine.lf
Substitution2: "'tnum' Tabular Numbers lookup 25 subtable" nine.tosf
Substitution2: "'lnum' Lining Figures lookup 23 subtable" nine.lf
Substitution2: "'frac' Diagonal Fractions lookup 20 subtable" nine.numr
Substitution2: "'dnom' Denominators lookup 18 subtable" nine.dnom
Substitution2: "'numr' Numerators lookup 17 subtable" nine.numr
Substitution2: "'sups' Superscript lookup 16 subtable" ninesuperior
Substitution2: "'sinf' Scientific Inferiors lookup 15 subtable" nine.sinf
AlternateSubs2: "'aalt' Access All Alternates lookup 1 subtable" nine.sinf ninesuperior nine.numr nine.dnom nine.lf nine.tosf
EndChar

StartChar: colon
Encoding: 58 58 29
Width: 524
GlyphClass: 2
Flags: W
LayerCount: 2
Fore
SplineSet
289 812 m 0,0,1
 333 812 333 812 358 786 c 128,-1,2
 383 760 383 760 383 716 c 0,3,4
 383 668 383 668 355.5 639 c 128,-1,5
 328 610 328 610 282 610 c 128,-1,6
 236 610 236 610 210 636.5 c 128,-1,7
 184 663 184 663 184 709 c 0,8,9
 184 740 184 740 197 763 c 128,-1,10
 210 786 210 786 233.5 799 c 128,-1,11
 257 812 257 812 289 812 c 0,0,1
211 193 m 0,12,13
 241 193 241 193 263 181 c 128,-1,14
 285 169 285 169 296 147.5 c 128,-1,15
 307 126 307 126 307 96 c 0,16,17
 307 48 307 48 279.5 18.5 c 128,-1,18
 252 -11 252 -11 206 -11 c 128,-1,19
 160 -11 160 -11 134 16 c 128,-1,20
 108 43 108 43 108 90 c 0,21,22
 108 120 108 120 120 143.5 c 128,-1,23
 132 167 132 167 155.5 180 c 128,-1,24
 179 193 179 193 211 193 c 0,12,13
EndSplineSet
EndChar

StartChar: semicolon
Encoding: 59 59 30
Width: 524
GlyphClass: 2
Flags: W
LayerCount: 2
Fore
SplineSet
287 812 m 0,0,1
 331 812 331 812 356 786 c 128,-1,2
 381 760 381 760 381 716 c 0,3,4
 381 668 381 668 353.5 639 c 128,-1,5
 326 610 326 610 280 610 c 128,-1,6
 234 610 234 610 207.5 636.5 c 128,-1,7
 181 663 181 663 181 709 c 128,-1,8
 181 755 181 755 210 783.5 c 128,-1,9
 239 812 239 812 287 812 c 0,0,1
221 193 m 1,10,11
 317 131 317 131 317 41 c 0,12,13
 317 -103 317 -103 105 -259 c 1,14,-1
 46 -204 l 1,15,-1
 46 -190 l 1,16,17
 172 -89 172 -89 172 11 c 0,18,19
 172 69 172 69 101 116 c 1,20,-1
 101 136 l 1,21,22
 161 174 161 174 221 193 c 1,10,11
EndSplineSet
EndChar

StartChar: less
Encoding: 60 60 31
Width: 1141
GlyphClass: 2
Flags: W
LayerCount: 2
Fore
SplineSet
1057 961 m 1,0,-1
 1048 945 l 1,1,-1
 223 617 l 1,2,-1
 223 606 l 1,3,-1
 972 298 l 1,4,-1
 934 199 l 1,5,-1
 913 186 l 1,6,-1
 78 536 l 1,7,-1
 96 679 l 1,8,-1
 112 698 l 1,9,-1
 1030 1062 l 1,10,-1
 1057 961 l 1,0,-1
EndSplineSet
EndChar

StartChar: equal
Encoding: 61 61 32
Width: 1095
GlyphClass: 2
Flags: W
LayerCount: 2
Fore
SplineSet
1068 844 m 1,0,-1
 1057 736 l 1,1,-1
 124 736 l 1,2,-1
 112 750 l 1,3,-1
 122 858 l 1,4,-1
 1055 858 l 1,5,-1
 1068 844 l 1,0,-1
1020 466 m 1,6,-1
 1011 357 l 1,7,-1
 78 357 l 1,8,-1
 64 372 l 1,9,-1
 76 479 l 1,10,-1
 1007 479 l 1,11,-1
 1020 466 l 1,6,-1
EndSplineSet
EndChar

StartChar: greater
Encoding: 62 62 33
Width: 1153
GlyphClass: 2
Flags: W
LayerCount: 2
Fore
SplineSet
1079 698 m 1,0,-1
 1092 679 l 1,1,-1
 1076 536 l 1,2,-1
 151 186 l 1,3,-1
 136 199 l 1,4,-1
 119 298 l 1,5,-1
 950 606 l 1,6,-1
 950 617 l 1,7,-1
 204 945 l 1,8,-1
 197 961 l 1,9,-1
 248 1062 l 1,10,-1
 1079 698 l 1,0,-1
EndSplineSet
EndChar

StartChar: question
Encoding: 63 63 34
Width: 758
GlyphClass: 2
Flags: W
LayerCount: 2
Fore
SplineSet
278 1504 m 1,0,-1
 298 1516 l 1,1,2
 554 1501 554 1501 691 1415 c 128,-1,3
 828 1329 828 1329 828 1184 c 0,4,5
 828 1088 828 1088 767.5 1001.5 c 128,-1,6
 707 915 707 915 596 849 c 1,7,-1
 388 722 l 1,8,-1
 383 713 l 1,9,-1
 367 491 l 1,10,-1
 243 477 l 1,11,-1
 232 493 l 1,12,-1
 245 755 l 1,13,-1
 259 777 l 1,14,-1
 495 911 l 1,15,16
 577 956 577 956 622.5 1017 c 128,-1,17
 668 1078 668 1078 668 1149 c 0,18,19
 668 1363 668 1363 243 1390 c 1,20,-1
 232 1408 l 1,21,-1
 278 1504 l 1,0,-1
282 193 m 0,22,23
 327 193 327 193 353 167 c 128,-1,24
 379 141 379 141 379 96 c 0,25,26
 379 48 379 48 351.5 18.5 c 128,-1,27
 324 -11 324 -11 278 -11 c 0,28,29
 231 -11 231 -11 205 16 c 128,-1,30
 179 43 179 43 179 90 c 0,31,32
 179 120 179 120 191.5 143.5 c 128,-1,33
 204 167 204 167 227.5 180 c 128,-1,34
 251 193 251 193 282 193 c 0,22,23
EndSplineSet
EndChar

StartChar: at
Encoding: 64 64 35
Width: 1887
GlyphClass: 2
Flags: W
LayerCount: 2
Fore
SplineSet
1817 681 m 0,0,1
 1817 361 1817 361 1617 183.5 c 128,-1,2
 1417 6 1417 6 1044 -9 c 1,3,-1
 1112 477 l 1,4,-1
 1092 477 l 1,5,6
 910 169 910 169 713 -16 c 1,7,-1
 681 -16 l 1,8,9
 510 84 510 84 510 344 c 0,10,11
 510 442 510 442 531.5 538 c 128,-1,12
 553 634 553 634 597.5 722.5 c 128,-1,13
 642 811 642 811 705.5 881.5 c 128,-1,14
 769 952 769 952 858.5 1001 c 128,-1,15
 948 1050 948 1050 1053 1066 c 1,16,-1
 1064 1066 l 1,17,-1
 1211 1016 l 1,18,-1
 1312 1066 l 1,19,-1
 1335 1055 l 1,20,-1
 1221 250 l 1,21,-1
 1213 116 l 1,22,23
 1444 146 1444 146 1571 292 c 128,-1,24
 1698 438 1698 438 1698 676 c 0,25,26
 1698 815 1698 815 1651 929.5 c 128,-1,27
 1604 1044 1604 1044 1518.5 1124 c 128,-1,28
 1433 1204 1433 1204 1308 1247.5 c 128,-1,29
 1183 1291 1183 1291 1030 1289 c 0,30,31
 847 1287 847 1287 692.5 1224 c 128,-1,32
 538 1161 538 1161 431 1051 c 128,-1,33
 324 941 324 941 264 786.5 c 128,-1,34
 204 632 204 632 204 451 c 0,35,36
 204 302 204 302 244.5 175.5 c 128,-1,37
 285 49 285 49 361 -47 c 128,-1,38
 437 -143 437 -143 545 -210 c 128,-1,39
 653 -277 653 -277 789.5 -311.5 c 128,-1,40
 926 -346 926 -346 1085 -346 c 1,41,-1
 1090 -365 l 1,42,-1
 1035 -451 l 1,43,44
 822 -448 822 -448 646 -385.5 c 128,-1,45
 470 -323 470 -323 345.5 -211 c 128,-1,46
 221 -99 221 -99 152 65 c 128,-1,47
 83 229 83 229 83 429 c 0,48,49
 83 642 83 642 152.5 823 c 128,-1,50
 222 1004 222 1004 347 1131.5 c 128,-1,51
 472 1259 472 1259 652 1331 c 128,-1,52
 832 1403 832 1403 1046 1403 c 0,53,54
 1220 1403 1220 1403 1364 1351.5 c 128,-1,55
 1508 1300 1508 1300 1607.5 1206 c 128,-1,56
 1707 1112 1707 1112 1762 977.5 c 128,-1,57
 1817 843 1817 843 1817 681 c 0,0,1
729 162 m 0,58,59
 744 162 744 162 774 187.5 c 128,-1,60
 804 213 804 213 848.5 268 c 128,-1,61
 893 323 893 323 942 396.5 c 128,-1,62
 991 470 991 470 1049.5 578 c 128,-1,63
 1108 686 1108 686 1160 808 c 1,64,-1
 1163 821 l 1,65,-1
 1165 883 l 1,66,-1
 1023 934 l 1,67,68
 938 933 938 933 868 889 c 128,-1,69
 798 845 798 845 752 769.5 c 128,-1,70
 706 694 706 694 681 595.5 c 128,-1,71
 656 497 656 497 656 385 c 0,72,73
 656 322 656 322 663 276 c 128,-1,74
 670 230 670 230 681.5 206.5 c 128,-1,75
 693 183 693 183 705 172.5 c 128,-1,76
 717 162 717 162 729 162 c 0,58,59
EndSplineSet
EndChar

StartChar: A
Encoding: 65 65 36
Width: 1256
GlyphClass: 2
Flags: W
AnchorPoint: "Anchor-1" 0 0 basechar 0
AnchorPoint: "Anchor-0" 754 1468 basechar 0
LayerCount: 2
Fore
SplineSet
1147 0 m 1,0,-1
 972 0 l 1,1,-1
 959 142 l 1,2,-1
 911 405 l 1,3,-1
 599 411 l 1,4,-1
 317 405 l 1,5,-1
 197 151 l 1,6,-1
 140 0 l 1,7,-1
 -32 0 l 1,8,-1
 665 1468 l 1,9,-1
 862 1468 l 1,10,-1
 1147 0 l 1,0,-1
883 553 m 1,11,-1
 746 1289 l 1,12,-1
 729 1289 l 1,13,-1
 385 553 l 1,14,-1
 628 551 l 1,15,-1
 883 553 l 1,11,-1
EndSplineSet
Position2: "'cpsp' Capital Spacing lookup 0 subtable" dx=16 dy=0 dh=33 dv=0
EndChar

StartChar: B
Encoding: 66 66 37
Width: 1173
GlyphClass: 2
Flags: W
LayerCount: 2
Fore
SplineSet
821 766 m 1,0,1
 1081 690 1081 690 1081 461 c 0,2,3
 1081 231 1081 231 923.5 111 c 128,-1,4
 766 -9 766 -9 457 -9 c 0,5,6
 260 -9 260 -9 147 0 c 1,7,-1
 144 0 l 1,8,-1
 211 442 l 1,9,-1
 330 1468 l 1,10,-1
 333 1468 l 1,11,-1
 707 1473 l 1,12,13
 884 1473 884 1473 981.5 1394 c 128,-1,14
 1079 1315 1079 1315 1079 1165 c 0,15,16
 1079 1022 1079 1022 1011.5 920 c 128,-1,17
 944 818 944 818 821 766 c 1,0,1
902 1136 m 0,18,19
 902 1234 902 1234 844.5 1281 c 128,-1,20
 787 1328 787 1328 665 1328 c 2,21,-1
 486 1328 l 1,22,-1
 416 825 l 1,23,-1
 656 819 l 1,24,25
 902 875 902 875 902 1136 c 0,18,19
495 136 m 0,26,27
 625 136 625 136 716.5 172.5 c 128,-1,28
 808 209 808 209 856 280 c 128,-1,29
 904 351 904 351 904 451 c 0,30,31
 904 518 904 518 877 566 c 128,-1,32
 850 614 850 614 797 643 c 128,-1,33
 744 672 744 672 665 681 c 1,34,-1
 394 679 l 1,35,-1
 365 457 l 1,36,-1
 333 142 l 1,37,38
 418 136 418 136 495 136 c 0,26,27
EndSplineSet
Position2: "'cpsp' Capital Spacing lookup 0 subtable" dx=16 dy=0 dh=33 dv=0
EndChar

StartChar: C
Encoding: 67 67 38
Width: 1146
GlyphClass: 2
Flags: W
AnchorPoint: "Anchor-1" 683 0 basechar 0
AnchorPoint: "Anchor-0" 772 1468 basechar 0
LayerCount: 2
Fore
SplineSet
825 1482 m 0,0,1
 1047 1482 1047 1482 1200 1370 c 1,2,-1
 1145 1211 l 1,3,-1
 1127 1206 l 1,4,5
 994 1335 994 1335 805 1335 c 0,6,7
 558 1335 558 1335 422.5 1146 c 128,-1,8
 287 957 287 957 287 610 c 0,9,10
 287 379 287 379 381 256 c 128,-1,11
 475 133 475 133 650 133 c 0,12,13
 746 133 746 133 845.5 169.5 c 128,-1,14
 945 206 945 206 1033 273 c 1,15,-1
 1053 261 l 1,16,-1
 1016 99 l 1,17,18
 819 -16 819 -16 622 -16 c 0,19,20
 458 -16 458 -16 342.5 54.5 c 128,-1,21
 227 125 227 125 167.5 260 c 128,-1,22
 108 395 108 395 108 585 c 0,23,24
 108 793 108 793 156.5 960.5 c 128,-1,25
 205 1128 205 1128 297 1243 c 128,-1,26
 389 1358 389 1358 523 1420 c 128,-1,27
 657 1482 657 1482 825 1482 c 0,0,1
EndSplineSet
Substitution2: "Single Substitution lookup 41 subtable" C.ss01
Substitution2: "'ss01' Style Set 1 lookup 35 subtable" C.ss01
Substitution2: "'aalt' Access All Alternates lookup 0 subtable" C.ss01
Position2: "'cpsp' Capital Spacing lookup 0 subtable" dx=16 dy=0 dh=33 dv=0
EndChar

StartChar: D
Encoding: 68 68 39
Width: 1421
GlyphClass: 2
Flags: W
AnchorPoint: "Anchor-1" 0 0 basechar 0
AnchorPoint: "Anchor-0" 759 1468 basechar 0
LayerCount: 2
Fore
SplineSet
333 1468 m 1,0,-1
 821 1480 l 1,1,2
 1085 1480 1085 1480 1229.5 1330.5 c 128,-1,3
 1374 1181 1374 1181 1374 906 c 0,4,5
 1374 622 1374 622 1286.5 416 c 128,-1,6
 1199 210 1199 210 1026.5 98.5 c 128,-1,7
 854 -13 854 -13 610 -13 c 0,8,9
 543 -13 543 -13 387 -9 c 128,-1,10
 231 -5 231 -5 147 0 c 1,11,-1
 144 0 l 1,12,-1
 211 442 l 1,13,-1
 330 1468 l 1,14,-1
 333 1468 l 1,0,-1
644 131 m 0,15,16
 906 131 906 131 1049.5 322.5 c 128,-1,17
 1193 514 1193 514 1193 874 c 0,18,19
 1193 1103 1193 1103 1094.5 1219 c 128,-1,20
 996 1335 996 1335 803 1335 c 0,21,22
 650 1335 650 1335 484 1326 c 1,23,-1
 365 457 l 1,24,-1
 333 144 l 1,25,26
 543 131 543 131 644 131 c 0,15,16
EndSplineSet
Substitution2: "Single Substitution lookup 41 subtable" D.ss01
Substitution2: "'ss01' Style Set 1 lookup 35 subtable" D.ss01
Substitution2: "'aalt' Access All Alternates lookup 0 subtable" D.ss01
Position2: "'cpsp' Capital Spacing lookup 0 subtable" dx=16 dy=0 dh=33 dv=0
EndChar

StartChar: E
Encoding: 69 69 40
Width: 1057
GlyphClass: 2
Flags: W
AnchorPoint: "Anchor-1" 614 0 basechar 0
AnchorPoint: "Anchor-0" 711 1468 basechar 0
LayerCount: 2
Fore
SplineSet
482 1322 m 1,0,-1
 418 825 l 1,1,-1
 681 821 l 1,2,-1
 911 828 l 1,3,-1
 922 812 l 1,4,-1
 890 679 l 1,5,-1
 647 683 l 1,6,-1
 396 681 l 1,7,-1
 367 457 l 1,8,-1
 335 147 l 1,9,-1
 615 142 l 1,10,-1
 948 151 l 1,11,-1
 954 136 l 1,12,-1
 924 0 l 1,13,-1
 144 0 l 1,14,-1
 211 442 l 1,15,-1
 330 1468 l 1,16,-1
 1112 1468 l 1,17,-1
 1119 1452 l 1,18,-1
 1090 1317 l 1,19,-1
 764 1326 l 1,20,-1
 482 1322 l 1,0,-1
EndSplineSet
Position2: "'cpsp' Capital Spacing lookup 0 subtable" dx=16 dy=0 dh=33 dv=0
EndChar

StartChar: F
Encoding: 70 70 41
Width: 950
GlyphClass: 2
Flags: W
LayerCount: 2
Fore
SplineSet
482 1322 m 1,0,-1
 413 799 l 1,1,-1
 650 794 l 1,2,-1
 878 799 l 1,3,-1
 888 782 l 1,4,-1
 856 650 l 1,5,-1
 615 656 l 1,6,-1
 394 654 l 1,7,-1
 367 457 l 1,8,-1
 319 0 l 1,9,-1
 144 0 l 1,10,-1
 211 442 l 1,11,-1
 330 1468 l 1,12,-1
 1071 1468 l 1,13,-1
 1083 1452 l 1,14,-1
 1046 1315 l 1,15,-1
 731 1326 l 1,16,-1
 482 1322 l 1,0,-1
EndSplineSet
Position2: "'cpsp' Capital Spacing lookup 0 subtable" dx=16 dy=0 dh=33 dv=0
EndChar

StartChar: G
Encoding: 71 71 42
Width: 1318
GlyphClass: 2
Flags: W
AnchorPoint: "Anchor-1" 711 0 basechar 0
AnchorPoint: "Anchor-0" 803 1468 basechar 0
LayerCount: 2
Fore
SplineSet
874 1482 m 0,0,1
 1095 1482 1095 1482 1285 1376 c 1,2,-1
 1228 1213 l 1,3,-1
 1206 1208 l 1,4,5
 1109 1276 1109 1276 1025.5 1305.5 c 128,-1,6
 942 1335 942 1335 844 1335 c 0,7,8
 661 1335 661 1335 535 1250 c 128,-1,9
 409 1165 409 1165 344.5 997 c 128,-1,10
 280 829 280 829 280 585 c 0,11,12
 280 354 280 354 376.5 243.5 c 128,-1,13
 473 133 473 133 674 133 c 0,14,15
 739 133 739 133 802 144.5 c 128,-1,16
 865 156 865 156 963 188 c 1,17,-1
 993 367 l 1,18,-1
 1014 573 l 1,19,-1
 1177 587 l 1,20,-1
 1149 390 l 1,21,-1
 1117 71 l 1,22,23
 1027 40 1027 40 957 21.5 c 128,-1,24
 887 3 887 3 814.5 -6.5 c 128,-1,25
 742 -16 742 -16 663 -16 c 0,26,27
 388 -16 388 -16 245.5 137 c 128,-1,28
 103 290 103 290 103 569 c 0,29,30
 103 1004 103 1004 304.5 1243 c 128,-1,31
 506 1482 506 1482 874 1482 c 0,0,1
EndSplineSet
Position2: "'cpsp' Capital Spacing lookup 0 subtable" dx=16 dy=0 dh=33 dv=0
EndChar

StartChar: H
Encoding: 72 72 43
Width: 1497
GlyphClass: 2
Flags: W
AnchorPoint: "Anchor-1" 0 0 basechar 0
AnchorPoint: "Anchor-0" 869 1468 basechar 0
LayerCount: 2
Fore
SplineSet
1408 1468 m 1,0,-1
 1273 457 l 1,1,-1
 1225 0 l 1,2,-1
 1053 0 l 1,3,-1
 1117 442 l 1,4,-1
 1142 668 l 1,5,-1
 753 674 l 1,6,-1
 394 668 l 1,7,-1
 365 457 l 1,8,-1
 319 0 l 1,9,-1
 144 0 l 1,10,-1
 211 442 l 1,11,-1
 328 1468 l 1,12,-1
 503 1468 l 1,13,-1
 413 819 l 1,14,-1
 784 812 l 1,15,-1
 1160 819 l 1,16,-1
 1234 1468 l 1,17,-1
 1408 1468 l 1,0,-1
EndSplineSet
Position2: "'cpsp' Capital Spacing lookup 0 subtable" dx=16 dy=0 dh=33 dv=0
EndChar

StartChar: I
Encoding: 73 73 44
Width: 593
GlyphClass: 2
Flags: W
AnchorPoint: "Anchor-1" 0 0 basechar 0
AnchorPoint: "Anchor-0" 415 1468 basechar 0
LayerCount: 2
Fore
SplineSet
365 457 m 1,0,-1
 319 0 l 1,1,-1
 144 0 l 1,2,-1
 211 442 l 1,3,-1
 328 1468 l 1,4,-1
 503 1468 l 1,5,-1
 365 457 l 1,0,-1
EndSplineSet
Substitution2: "Single Substitution lookup 41 subtable" I.ss01
Substitution2: "'ss01' Style Set 1 lookup 35 subtable" I.ss01
Substitution2: "'aalt' Access All Alternates lookup 0 subtable" I.ss01
Position2: "'cpsp' Capital Spacing lookup 0 subtable" dx=16 dy=0 dh=33 dv=0
EndChar

StartChar: J
Encoding: 74 74 45
Width: 680
GlyphClass: 2
Flags: W
AnchorPoint: "Anchor-1" 0 0 basechar 0
AnchorPoint: "Anchor-0" 389 1468 basechar 0
LayerCount: 2
Fore
SplineSet
578 1468 m 1,0,-1
 445 486 l 1,1,-1
 424 271 l 1,2,3
 402 99 402 99 302.5 -15 c 128,-1,4
 203 -129 203 -129 -16 -232 c 1,5,-1
 -71 -136 l 1,6,-1
 -68 -114 l 1,7,8
 96 -28 96 -28 172 57.5 c 128,-1,9
 248 143 248 143 264 271 c 2,10,-1
 289 470 l 1,11,-1
 388 1328 l 1,12,-1
 114 1326 l 1,13,-1
 99 1342 l 1,14,-1
 127 1468 l 1,15,-1
 578 1468 l 1,0,-1
EndSplineSet
Position2: "'cpsp' Capital Spacing lookup 0 subtable" dx=16 dy=0 dh=33 dv=0
EndChar

StartChar: K
Encoding: 75 75 46
Width: 1191
GlyphClass: 2
Flags: W
AnchorPoint: "Anchor-1" 632 0 basechar 0
AnchorPoint: "Anchor-0" 614 1468 basechar 0
LayerCount: 2
Fore
SplineSet
365 457 m 1,0,-1
 317 0 l 1,1,-1
 142 0 l 1,2,-1
 211 442 l 1,3,-1
 328 1468 l 1,4,-1
 503 1468 l 1,5,-1
 365 457 l 1,0,-1
1276 1468 m 1,6,-1
 622 775 l 1,7,8
 848 401 848 401 1136 37 c 1,9,-1
 1129 16 l 1,10,11
 1051 -7 1051 -7 961 -20 c 1,12,-1
 945 -9 l 1,13,14
 627 440 627 440 436 771 c 1,15,-1
 438 784 l 1,16,-1
 977 1344 l 1,17,-1
 1081 1468 l 1,18,-1
 1276 1468 l 1,6,-1
EndSplineSet
Position2: "'cpsp' Capital Spacing lookup 0 subtable" dx=16 dy=0 dh=33 dv=0
EndChar

StartChar: L
Encoding: 76 76 47
Width: 908
GlyphClass: 2
Flags: W
AnchorPoint: "Anchor-1" 463 0 basechar 0
AnchorPoint: "Anchor-0" 415 1468 basechar 0
LayerCount: 2
Fore
SplineSet
856 129 m 1,0,-1
 825 0 l 1,1,-1
 140 0 l 1,2,-1
 206 442 l 1,3,-1
 324 1468 l 1,4,-1
 497 1468 l 1,5,-1
 363 457 l 1,6,-1
 328 147 l 1,7,-1
 849 147 l 1,8,-1
 856 129 l 1,0,-1
EndSplineSet
Substitution2: "Single Substitution lookup 41 subtable" L.ss01
Substitution2: "'ss01' Style Set 1 lookup 35 subtable" L.ss01
Substitution2: "'aalt' Access All Alternates lookup 0 subtable" L.ss01
Position2: "'cpsp' Capital Spacing lookup 0 subtable" dx=16 dy=0 dh=33 dv=0
EndChar

StartChar: M
Encoding: 77 77 48
Width: 1727
GlyphClass: 2
Flags: W
LayerCount: 2
Fore
SplineSet
1523 0 m 1,0,-1
 1370 0 l 1,1,-1
 1394 447 l 1,2,-1
 1413 1195 l 1,3,-1
 1399 1195 l 1,4,-1
 880 170 l 1,5,-1
 736 170 l 1,6,-1
 493 1195 l 1,7,-1
 477 1195 l 1,8,-1
 315 461 l 1,9,-1
 218 0 l 1,10,-1
 71 0 l 1,11,-1
 401 1468 l 1,12,-1
 596 1468 l 1,13,-1
 642 1245 l 1,14,-1
 838 394 l 1,15,-1
 853 394 l 1,16,-1
 1282 1259 l 1,17,-1
 1379 1468 l 1,18,-1
 1574 1468 l 1,19,-1
 1523 0 l 1,0,-1
EndSplineSet
Substitution2: "Single Substitution lookup 41 subtable" M.ss01
Substitution2: "'ss01' Style Set 1 lookup 35 subtable" M.ss01
Substitution2: "'aalt' Access All Alternates lookup 0 subtable" M.ss01
Position2: "'cpsp' Capital Spacing lookup 0 subtable" dx=16 dy=0 dh=33 dv=0
EndChar

StartChar: N
Encoding: 78 78 49
Width: 1497
GlyphClass: 2
Flags: W
AnchorPoint: "Anchor-1" 687 0 basechar 0
AnchorPoint: "Anchor-0" 869 1468 basechar 0
LayerCount: 2
Fore
SplineSet
1269 429 m 1,0,-1
 1221 0 l 1,1,-1
 1042 0 l 1,2,-1
 466 1193 l 1,3,-1
 449 1193 l 1,4,-1
 361 482 l 1,5,-1
 307 0 l 1,6,-1
 144 0 l 1,7,-1
 208 436 l 1,8,-1
 333 1468 l 1,9,-1
 512 1468 l 1,10,-1
 1088 276 l 1,11,-1
 1101 276 l 1,12,-1
 1248 1462 l 1,13,-1
 1411 1473 l 1,14,-1
 1269 429 l 1,0,-1
EndSplineSet
Position2: "'cpsp' Capital Spacing lookup 0 subtable" dx=16 dy=0 dh=33 dv=0
EndChar

StartChar: O
Encoding: 79 79 50
Width: 1401
GlyphClass: 2
Flags: W
AnchorPoint: "Anchor-1" 0 0 basechar 0
AnchorPoint: "Anchor-0" 818 1468 basechar 0
LayerCount: 2
Fore
SplineSet
825 1484 m 0,0,1
 1077 1484 1077 1484 1215 1330.5 c 128,-1,2
 1353 1177 1353 1177 1353 897 c 0,3,4
 1353 615 1353 615 1269.5 409.5 c 128,-1,5
 1186 204 1186 204 1023 93 c 128,-1,6
 860 -18 860 -18 631 -18 c 0,7,8
 384 -18 384 -18 246 141 c 128,-1,9
 108 300 108 300 108 585 c 0,10,11
 108 865 108 865 190 1066.5 c 128,-1,12
 272 1268 272 1268 434 1376 c 128,-1,13
 596 1484 596 1484 825 1484 c 0,0,1
805 1340 m 0,14,15
 544 1340 544 1340 414 1149.5 c 128,-1,16
 284 959 284 959 284 596 c 0,17,18
 284 127 284 127 647 127 c 0,19,20
 821 127 821 127 939 214 c 128,-1,21
 1057 301 1057 301 1115 467.5 c 128,-1,22
 1173 634 1173 634 1173 876 c 0,23,24
 1173 1340 1173 1340 805 1340 c 0,14,15
EndSplineSet
Position2: "'cpsp' Capital Spacing lookup 0 subtable" dx=16 dy=0 dh=33 dv=0
EndChar

StartChar: P
Encoding: 80 80 51
Width: 1141
GlyphClass: 2
Flags: W
LayerCount: 2
Fore
SplineSet
333 1468 m 1,0,-1
 736 1473 l 2,1,2
 796 1473 796 1473 848 1462.5 c 128,-1,3
 900 1452 900 1452 944 1431 c 128,-1,4
 988 1410 988 1410 1023 1378.5 c 128,-1,5
 1058 1347 1058 1347 1082 1305 c 128,-1,6
 1106 1263 1106 1263 1118.5 1209 c 128,-1,7
 1131 1155 1131 1155 1131 1092 c 0,8,9
 1131 969 1131 969 1090 863.5 c 128,-1,10
 1049 758 1049 758 974.5 682.5 c 128,-1,11
 900 607 900 607 789.5 564 c 128,-1,12
 679 521 679 521 545 521 c 2,13,-1
 376 521 l 1,14,-1
 367 457 l 1,15,-1
 319 0 l 1,16,-1
 144 0 l 1,17,-1
 211 442 l 1,18,-1
 330 1468 l 1,19,-1
 333 1468 l 1,0,-1
394 665 m 1,20,-1
 644 661 l 1,21,22
 735 674 735 674 805.5 728 c 128,-1,23
 876 782 876 782 915 870.5 c 128,-1,24
 954 959 954 959 954 1068 c 0,25,26
 954 1151 954 1151 928.5 1207 c 128,-1,27
 903 1263 903 1263 845.5 1294.5 c 128,-1,28
 788 1326 788 1326 698 1331 c 1,29,-1
 484 1324 l 1,30,-1
 394 665 l 1,20,-1
EndSplineSet
Position2: "'cpsp' Capital Spacing lookup 0 subtable" dx=16 dy=0 dh=33 dv=0
EndChar

StartChar: Q
Encoding: 81 81 52
Width: 1394
GlyphClass: 2
Flags: W
LayerCount: 2
Fore
SplineSet
1543 -298 m 1,0,-1
 1546 -324 l 1,1,2
 1506 -397 1506 -397 1473 -433 c 1,3,-1
 1456 -438 l 1,4,5
 1235 -388 1235 -388 1034.5 -280.5 c 128,-1,6
 834 -173 834 -173 674 -18 c 1,7,-1
 631 -18 l 2,8,9
 384 -18 384 -18 246 141 c 128,-1,10
 108 300 108 300 108 585 c 0,11,12
 108 865 108 865 190 1066.5 c 128,-1,13
 272 1268 272 1268 434 1376 c 128,-1,14
 596 1484 596 1484 825 1484 c 0,15,16
 1077 1484 1077 1484 1215 1330.5 c 128,-1,17
 1353 1177 1353 1177 1353 897 c 0,18,19
 1353 662 1353 662 1294.5 479 c 128,-1,20
 1236 296 1236 296 1121 176 c 128,-1,21
 1006 56 1006 56 842 9 c 1,22,23
 1146 -228 1146 -228 1543 -298 c 1,0,-1
284 596 m 0,24,25
 284 127 284 127 647 127 c 0,26,27
 821 127 821 127 939 214 c 128,-1,28
 1057 301 1057 301 1115 467.5 c 128,-1,29
 1173 634 1173 634 1173 876 c 0,30,31
 1173 1340 1173 1340 805 1340 c 0,32,33
 544 1340 544 1340 414 1149.5 c 128,-1,34
 284 959 284 959 284 596 c 0,24,25
EndSplineSet
Substitution2: "Single Substitution lookup 41 subtable" Q.corta
Position2: "'cpsp' Capital Spacing lookup 0 subtable" dx=16 dy=0 dh=33 dv=0
EndChar

StartChar: R
Encoding: 82 82 53
Width: 1212
GlyphClass: 2
Flags: W
AnchorPoint: "Anchor-1" 543 0 basechar 0
AnchorPoint: "Anchor-0" 722 1468 basechar 0
LayerCount: 2
Fore
SplineSet
1133 1114 m 0,0,1
 1133 939 1133 939 1039.5 802.5 c 128,-1,2
 946 666 946 666 780 594 c 1,3,4
 904 332 904 332 1076 41 c 1,5,-1
 1071 20 l 1,6,7
 989 -11 989 -11 908 -20 c 1,8,-1
 890 -4 l 1,9,10
 741 283 741 283 633 551 c 1,11,-1
 379 551 l 1,12,-1
 365 457 l 1,13,-1
 319 0 l 1,14,-1
 144 0 l 1,15,-1
 211 442 l 1,16,-1
 330 1468 l 1,17,-1
 333 1468 l 1,18,-1
 741 1473 l 1,19,20
 864 1473 864 1473 952 1431.5 c 128,-1,21
 1040 1390 1040 1390 1086.5 1309 c 128,-1,22
 1133 1228 1133 1228 1133 1114 c 0,0,1
396 698 m 1,23,-1
 661 690 l 1,24,25
 804 733 804 733 879 834 c 128,-1,26
 954 935 954 935 954 1088 c 0,27,28
 954 1317 954 1317 698 1331 c 1,29,-1
 482 1324 l 1,30,-1
 396 698 l 1,23,-1
EndSplineSet
Position2: "'cpsp' Capital Spacing lookup 0 subtable" dx=16 dy=0 dh=33 dv=0
EndChar

StartChar: S
Encoding: 83 83 54
Width: 1033
GlyphClass: 2
Flags: W
AnchorPoint: "Anchor-1" 454 0 basechar 0
AnchorPoint: "Anchor-0" 637 1468 basechar 0
LayerCount: 2
Fore
SplineSet
683 1482 m 0,0,1
 851 1482 851 1482 1007 1411 c 1,2,-1
 959 1248 l 1,3,-1
 926 1239 l 1,4,5
 806 1340 806 1340 661 1340 c 0,6,7
 595 1340 595 1340 539 1319.5 c 128,-1,8
 483 1299 483 1299 446 1265 c 128,-1,9
 409 1231 409 1231 388 1187 c 128,-1,10
 367 1143 367 1143 367 1096 c 0,11,12
 367 1053 367 1053 386.5 1014 c 128,-1,13
 406 975 406 975 438 944 c 128,-1,14
 470 913 470 913 512 884 c 128,-1,15
 554 855 554 855 600.5 827 c 128,-1,16
 647 799 647 799 693 769 c 128,-1,17
 739 739 739 739 781 703 c 128,-1,18
 823 667 823 667 855.5 626 c 128,-1,19
 888 585 888 585 907 530.5 c 128,-1,20
 926 476 926 476 926 413 c 0,21,22
 926 325 926 325 888 246 c 128,-1,23
 850 167 850 167 784 109.5 c 128,-1,24
 718 52 718 52 624.5 18 c 128,-1,25
 531 -16 531 -16 424 -16 c 0,26,27
 330 -16 330 -16 228 11.5 c 128,-1,28
 126 39 126 39 44 87 c 1,29,-1
 87 264 l 1,30,-1
 110 273 l 1,31,32
 177 200 177 200 265.5 163.5 c 128,-1,33
 354 127 354 127 442 127 c 0,34,35
 532 127 532 127 603.5 161.5 c 128,-1,36
 675 196 675 196 714 254 c 128,-1,37
 753 312 753 312 753 381 c 0,38,39
 753 422 753 422 737.5 459.5 c 128,-1,40
 722 497 722 497 695.5 525.5 c 128,-1,41
 669 554 669 554 633.5 582 c 128,-1,42
 598 610 598 610 558 633.5 c 128,-1,43
 518 657 518 657 476 684 c 128,-1,44
 434 711 434 711 394 737.5 c 128,-1,45
 354 764 354 764 318.5 799 c 128,-1,46
 283 834 283 834 256.5 871.5 c 128,-1,47
 230 909 230 909 214.5 959 c 128,-1,48
 199 1009 199 1009 199 1066 c 0,49,50
 199 1182 199 1182 261.5 1277 c 128,-1,51
 324 1372 324 1372 435.5 1427 c 128,-1,52
 547 1482 547 1482 683 1482 c 0,0,1
EndSplineSet
Position2: "'cpsp' Capital Spacing lookup 0 subtable" dx=16 dy=0 dh=33 dv=0
EndChar

StartChar: T
Encoding: 84 84 55
Width: 1070
GlyphClass: 2
Flags: W
AnchorPoint: "Anchor-1" 472 0 basechar 0
AnchorPoint: "Anchor-0" 654 1468 basechar 0
LayerCount: 2
Fore
SplineSet
1140 1452 m 1,0,-1
 1108 1319 l 1,1,-1
 869 1331 l 1,2,-1
 725 1331 l 1,3,-1
 608 457 l 1,4,-1
 560 0 l 1,5,-1
 388 0 l 1,6,-1
 455 442 l 1,7,-1
 553 1331 l 1,8,-1
 413 1331 l 1,9,-1
 162 1319 l 1,10,-1
 151 1335 l 1,11,-1
 184 1468 l 1,12,-1
 1131 1468 l 1,13,-1
 1140 1452 l 1,0,-1
EndSplineSet
Position2: "'cpsp' Capital Spacing lookup 0 subtable" dx=16 dy=0 dh=33 dv=0
EndChar

StartChar: U
Encoding: 85 85 56
Width: 1368
GlyphClass: 2
Flags: W
AnchorPoint: "Anchor-1" 0 0 basechar 0
AnchorPoint: "Anchor-0" 803 1468 basechar 0
LayerCount: 2
Fore
SplineSet
1225 722 m 1,0,-1
 1204 556 l 1,1,2
 1176 283 1176 283 1027 133.5 c 128,-1,3
 878 -16 878 -16 624 -16 c 0,4,5
 405 -16 405 -16 281.5 96 c 128,-1,6
 158 208 158 208 158 413 c 0,7,8
 158 471 158 471 168 536 c 1,9,-1
 195 736 l 1,10,-1
 284 1468 l 1,11,-1
 451 1468 l 1,12,-1
 330 558 l 1,13,14
 324 502 324 502 324 455 c 0,15,16
 324 376 324 376 344 316.5 c 128,-1,17
 364 257 364 257 403 217.5 c 128,-1,18
 442 178 442 178 500.5 158 c 128,-1,19
 559 138 559 138 635 138 c 0,20,21
 813 138 813 138 917.5 238 c 128,-1,22
 1022 338 1022 338 1046 536 c 1,23,-1
 1151 1468 l 1,24,-1
 1324 1468 l 1,25,-1
 1225 722 l 1,0,-1
EndSplineSet
Position2: "'cpsp' Capital Spacing lookup 0 subtable" dx=16 dy=0 dh=33 dv=0
EndChar

StartChar: V
Encoding: 86 86 57
Width: 1224
GlyphClass: 2
Flags: W
LayerCount: 2
Fore
SplineSet
635 0 m 1,0,-1
 436 0 l 1,1,-1
 149 1468 l 1,2,-1
 326 1468 l 1,3,-1
 339 1324 l 1,4,-1
 556 179 l 1,5,-1
 567 179 l 1,6,-1
 1103 1317 l 1,7,-1
 1158 1468 l 1,8,-1
 1328 1468 l 1,9,-1
 635 0 l 1,0,-1
EndSplineSet
Substitution2: "Single Substitution lookup 41 subtable" V.ss01
Substitution2: "'ss01' Style Set 1 lookup 35 subtable" V.ss01
Substitution2: "'aalt' Access All Alternates lookup 0 subtable" V.ss01
Position2: "'cpsp' Capital Spacing lookup 0 subtable" dx=16 dy=0 dh=33 dv=0
EndChar

StartChar: W
Encoding: 87 87 58
Width: 1946
GlyphClass: 2
Flags: W
AnchorPoint: "Anchor-1" 0 0 basechar 0
AnchorPoint: "Anchor-0" 1043 1468 basechar 0
LayerCount: 2
Fore
SplineSet
1360 0 m 1,0,-1
 1184 0 l 1,1,-1
 1018 867 l 1,2,-1
 1002 867 l 1,3,-1
 608 0 l 1,4,-1
 427 0 l 1,5,-1
 162 1468 l 1,6,-1
 335 1468 l 1,7,-1
 339 1333 l 1,8,-1
 543 193 l 1,9,-1
 560 193 l 1,10,-1
 972 1099 l 1,11,-1
 899 1468 l 1,12,-1
 1079 1468 l 1,13,-1
 1092 1317 l 1,14,-1
 1296 193 l 1,15,-1
 1312 193 l 1,16,-1
 1832 1322 l 1,17,-1
 1883 1468 l 1,18,-1
 2046 1468 l 1,19,-1
 1360 0 l 1,0,-1
EndSplineSet
Position2: "'cpsp' Capital Spacing lookup 0 subtable" dx=16 dy=0 dh=33 dv=0
EndChar

StartChar: X
Encoding: 88 88 59
Width: 1285
GlyphClass: 2
Flags: W
LayerCount: 2
Fore
SplineSet
777 755 m 1,0,-1
 1149 0 l 1,1,-1
 950 0 l 1,2,-1
 906 116 l 1,3,-1
 642 631 l 1,4,-1
 243 105 l 1,5,-1
 175 0 l 1,6,-1
 -9 0 l 1,7,-1
 558 753 l 1,8,-1
 199 1468 l 1,9,-1
 399 1468 l 1,10,-1
 442 1355 l 1,11,-1
 685 876 l 1,12,-1
 1048 1355 l 1,13,-1
 1119 1468 l 1,14,-1
 1305 1468 l 1,15,-1
 777 755 l 1,0,-1
EndSplineSet
Substitution2: "Single Substitution lookup 41 subtable" X.ss01
Substitution2: "'ss01' Style Set 1 lookup 35 subtable" X.ss01
Substitution2: "'aalt' Access All Alternates lookup 0 subtable" X.ss01
Position2: "'cpsp' Capital Spacing lookup 0 subtable" dx=16 dy=0 dh=33 dv=0
EndChar

StartChar: Y
Encoding: 89 89 60
Width: 1151
GlyphClass: 2
Flags: W
AnchorPoint: "Anchor-1" 0 0 basechar 0
AnchorPoint: "Anchor-0" 695 1468 basechar 0
LayerCount: 2
Fore
SplineSet
635 534 m 1,0,-1
 619 429 l 1,1,-1
 573 0 l 1,2,-1
 399 0 l 1,3,-1
 466 429 l 1,4,-1
 477 534 l 1,5,-1
 151 1468 l 1,6,-1
 333 1468 l 1,7,-1
 348 1388 l 1,8,-1
 573 720 l 1,9,-1
 591 720 l 1,10,-1
 1007 1383 l 1,11,-1
 1051 1468 l 1,12,-1
 1239 1468 l 1,13,-1
 635 534 l 1,0,-1
EndSplineSet
Position2: "'cpsp' Capital Spacing lookup 0 subtable" dx=16 dy=0 dh=33 dv=0
EndChar

StartChar: Z
Encoding: 90 90 61
Width: 1153
GlyphClass: 2
Flags: W
AnchorPoint: "Anchor-1" 0 0 basechar 0
AnchorPoint: "Anchor-0" 619 1468 basechar 0
LayerCount: 2
Fore
SplineSet
1169 1342 m 1,0,-1
 232 140 l 1,1,-1
 814 140 l 1,2,-1
 1020 156 l 1,3,-1
 1028 142 l 1,4,-1
 998 -4 l 1,5,-1
 746 0 l 1,6,-1
 131 0 l 1,7,-1
 7 -7 l 1,8,-1
 22 122 l 1,9,-1
 963 1326 l 1,10,-1
 418 1326 l 1,11,-1
 211 1312 l 1,12,-1
 202 1324 l 1,13,-1
 236 1471 l 1,14,-1
 1076 1468 l 1,15,-1
 1186 1471 l 1,16,-1
 1169 1342 l 1,0,-1
EndSplineSet
Position2: "'cpsp' Capital Spacing lookup 0 subtable" dx=16 dy=0 dh=33 dv=0
EndChar

StartChar: bracketleft
Encoding: 91 91 62
Width: 659
GlyphClass: 2
Flags: W
LayerCount: 2
Fore
SplineSet
741 1471 m 1,0,-1
 729 1388 l 1,1,-1
 451 1363 l 1,2,-1
 264 -177 l 1,3,-1
 534 -202 l 1,4,-1
 525 -287 l 1,5,-1
 512 -298 l 1,6,-1
 110 -276 l 1,7,-1
 225 594 l 1,8,-1
 324 1462 l 1,9,-1
 731 1484 l 1,10,-1
 741 1471 l 1,0,-1
EndSplineSet
EndChar

StartChar: backslash
Encoding: 92 92 63
Width: 666
GlyphClass: 2
Flags: W
LayerCount: 2
Fore
SplineSet
202 1556 m 1,0,-1
 672 -241 l 1,1,-1
 659 -259 l 1,2,-1
 539 -259 l 1,3,-1
 68 1534 l 1,4,-1
 85 1556 l 1,5,-1
 202 1556 l 1,0,-1
EndSplineSet
EndChar

StartChar: bracketright
Encoding: 93 93 64
Width: 659
GlyphClass: 2
Flags: W
LayerCount: 2
Fore
SplineSet
-62 -284 m 1,0,-1
 -50 -202 l 1,1,-1
 227 -175 l 1,2,-1
 416 1365 l 1,3,-1
 144 1388 l 1,4,-1
 153 1473 l 1,5,-1
 168 1484 l 1,6,-1
 567 1462 l 1,7,-1
 455 594 l 1,8,-1
 355 -276 l 1,9,-1
 -53 -298 l 1,10,-1
 -62 -284 l 1,0,-1
EndSplineSet
EndChar

StartChar: asciicircum
Encoding: 94 94 65
Width: 969
GlyphClass: 2
Flags: W
LayerCount: 2
Fore
SplineSet
895 305 m 1,0,-1
 880 287 l 1,1,-1
 777 264 l 1,2,-1
 560 996 l 1,3,-1
 548 996 l 1,4,-1
 133 269 l 1,5,-1
 112 256 l 1,6,-1
 20 296 l 1,7,-1
 482 1117 l 1,8,-1
 503 1127 l 1,9,-1
 647 1127 l 1,10,-1
 895 305 l 1,0,-1
EndSplineSet
EndChar

StartChar: underscore
Encoding: 95 95 66
Width: 1033
GlyphClass: 2
Flags: W
LayerCount: 2
Fore
SplineSet
977 -213 m 1,0,-1
 954 -317 l 1,1,-1
 -124 -317 l 1,2,-1
 -136 -302 l 1,3,-1
 -112 -202 l 1,4,-1
 965 -202 l 1,5,-1
 977 -213 l 1,0,-1
EndSplineSet
EndChar

StartChar: grave
Encoding: 96 96 67
Width: 893
GlyphClass: 2
Flags: W
LayerCount: 2
Fore
SplineSet
388 1592 m 1,0,-1
 405 1594 l 1,1,2
 570 1434 570 1434 780 1261 c 1,3,-1
 731 1193 l 1,4,-1
 713 1191 l 1,5,6
 546 1308 546 1308 326 1482 c 1,7,-1
 324 1502 l 1,8,-1
 388 1592 l 1,0,-1
EndSplineSet
EndChar

StartChar: a
Encoding: 97 97 68
Width: 1006
GlyphClass: 2
Flags: W
AnchorPoint: "Anchor-1" 0 0 basechar 0
AnchorPoint: "Anchor-0" 568 1052 basechar 0
LayerCount: 2
Fore
SplineSet
897 1055 m 1,0,-1
 784 250 l 1,1,-1
 773 7 l 1,2,-1
 599 -9 l 1,3,-1
 665 461 l 1,4,-1
 642 461 l 1,5,6
 476 168 476 168 282 -16 c 1,7,-1
 250 -16 l 1,8,9
 76 83 76 83 76 344 c 0,10,11
 76 424 76 424 91 504 c 128,-1,12
 106 584 106 584 135.5 660 c 128,-1,13
 165 736 165 736 210.5 803.5 c 128,-1,14
 256 871 256 871 314.5 924.5 c 128,-1,15
 373 978 373 978 449.5 1015 c 128,-1,16
 526 1052 526 1052 613 1066 c 1,17,-1
 624 1066 l 1,18,-1
 766 1014 l 1,19,-1
 876 1068 l 1,20,-1
 897 1055 l 1,0,-1
298 172 m 0,21,22
 314 172 314 172 343.5 197 c 128,-1,23
 373 222 373 222 416 275 c 128,-1,24
 459 328 459 328 506.5 400.5 c 128,-1,25
 554 473 554 473 609.5 580 c 128,-1,26
 665 687 665 687 716 808 c 1,27,-1
 718 821 l 1,28,-1
 720 876 l 1,29,-1
 578 926 l 1,30,31
 472 926 472 926 392 852 c 128,-1,32
 312 778 312 778 272 657 c 128,-1,33
 232 536 232 536 232 388 c 0,34,35
 232 339 232 339 236 300 c 128,-1,36
 240 261 240 261 247 238 c 128,-1,37
 254 215 254 215 263 199.5 c 128,-1,38
 272 184 272 184 280.5 178 c 128,-1,39
 289 172 289 172 298 172 c 0,21,22
EndSplineSet
Substitution2: "'ss02' Style Set 2 lookup 36 subtable" left
Substitution2: "'case' Case-Sensitive Forms lookup 28 subtable" A
Substitution2: "'ordn' Ordinals lookup 22 subtable" a.sups
Substitution2: "'sups' Superscript lookup 16 subtable" a.sups
AlternateSubs2: "'aalt' Access All Alternates lookup 1 subtable" a.sups A left
EndChar

StartChar: b
Encoding: 98 98 69
Width: 1011
GlyphClass: 2
Flags: W
AnchorPoint: "Anchor-1" 490 0 basechar 0
AnchorPoint: "Anchor-0" 357 726 basechar 0
LayerCount: 2
Fore
SplineSet
722 1066 m 1,0,-1
 755 1066 l 1,1,2
 928 964 928 964 928 707 c 0,3,4
 928 609 928 609 907 513.5 c 128,-1,5
 886 418 886 418 842 329.5 c 128,-1,6
 798 241 798 241 735.5 170 c 128,-1,7
 673 99 673 99 584 49.5 c 128,-1,8
 495 0 495 0 390 -16 c 1,9,-1
 381 -16 l 1,10,-1
 232 18 l 1,11,-1
 114 39 l 1,12,-1
 302 1376 l 1,13,-1
 307 1598 l 1,14,-1
 482 1615 l 1,15,-1
 337 589 l 1,16,-1
 363 589 l 1,17,18
 522 872 522 872 722 1066 c 1,0,-1
287 160 m 1,19,-1
 424 122 l 1,20,21
 531 122 531 122 612 196.5 c 128,-1,22
 693 271 693 271 734 393 c 128,-1,23
 775 515 775 515 775 663 c 0,24,25
 775 724 775 724 769 767.5 c 128,-1,26
 763 811 763 811 752 833.5 c 128,-1,27
 741 856 741 856 730 866 c 128,-1,28
 719 876 719 876 707 876 c 0,29,30
 687 876 687 876 645.5 835 c 128,-1,31
 604 794 604 794 548.5 720 c 128,-1,32
 493 646 493 646 423.5 521 c 128,-1,33
 354 396 354 396 291 250 c 1,34,-1
 287 160 l 1,19,-1
EndSplineSet
Substitution2: "'ss02' Style Set 2 lookup 36 subtable" up
Substitution2: "'case' Case-Sensitive Forms lookup 28 subtable" B
Substitution2: "'ordn' Ordinals lookup 22 subtable" b.sups
Substitution2: "'sups' Superscript lookup 16 subtable" b.sups
AlternateSubs2: "'aalt' Access All Alternates lookup 1 subtable" b.sups B up
EndChar

StartChar: c
Encoding: 99 99 70
Width: 766
GlyphClass: 2
Flags: W
AnchorPoint: "Anchor-1" 392 0 basechar 0
AnchorPoint: "Anchor-0" 529 1052 basechar 0
LayerCount: 2
Fore
SplineSet
759 1018 m 1,0,-1
 773 993 l 1,1,-1
 727 858 l 1,2,-1
 690 851 l 1,3,4
 648 897 648 897 612.5 914 c 128,-1,5
 577 931 577 931 536 931 c 0,6,7
 400 931 400 931 319.5 786.5 c 128,-1,8
 239 642 239 642 239 392 c 0,9,10
 239 296 239 296 254 238 c 128,-1,11
 269 180 269 180 298 154.5 c 128,-1,12
 327 129 327 129 374 129 c 0,13,14
 500 129 500 129 608 337 c 1,15,-1
 633 337 l 1,16,-1
 688 259 l 1,17,18
 615 138 615 138 540 76.5 c 128,-1,19
 465 15 465 15 361 -16 c 1,20,-1
 333 -16 l 1,21,22
 266 -4 266 -4 221.5 18.5 c 128,-1,23
 177 41 177 41 143 83.5 c 128,-1,24
 109 126 109 126 93.5 194.5 c 128,-1,25
 78 263 78 263 78 363 c 0,26,27
 78 480 78 480 98 583 c 128,-1,28
 118 686 118 686 160 775 c 128,-1,29
 202 864 202 864 263.5 927.5 c 128,-1,30
 325 991 325 991 414.5 1027.5 c 128,-1,31
 504 1064 504 1064 613 1064 c 1,32,-1
 759 1018 l 1,0,-1
EndSplineSet
Substitution2: "Single Substitution lookup 41 subtable" C.ss01
Substitution2: "'ss02' Style Set 2 lookup 36 subtable" right
Substitution2: "'ss01' Style Set 1 lookup 35 subtable" C.ss01
Substitution2: "'case' Case-Sensitive Forms lookup 28 subtable" C
Substitution2: "'ordn' Ordinals lookup 22 subtable" c.sups
Substitution2: "'sups' Superscript lookup 16 subtable" c.sups
AlternateSubs2: "'aalt' Access All Alternates lookup 1 subtable" c.sups C C.ss01 right
EndChar

StartChar: d
Encoding: 100 100 71
Width: 1011
GlyphClass: 2
Flags: W
AnchorPoint: "Anchor-1" 759 0 basechar 0
AnchorPoint: "Anchor-0" 761 1052 basechar 0
LayerCount: 2
Fore
SplineSet
979 1615 m 1,0,-1
 790 250 l 1,1,-1
 777 7 l 1,2,-1
 604 -9 l 1,3,-1
 670 461 l 1,4,-1
 647 461 l 1,5,6
 480 172 480 172 282 -16 c 1,7,-1
 248 -16 l 1,8,9
 74 83 74 83 74 344 c 0,10,11
 74 397 74 397 80.5 450.5 c 128,-1,12
 87 504 87 504 100.5 557 c 128,-1,13
 114 610 114 610 134 660.5 c 128,-1,14
 154 711 154 711 181 758.5 c 128,-1,15
 208 806 208 806 241 847.5 c 128,-1,16
 274 889 274 889 314.5 925.5 c 128,-1,17
 355 962 355 962 401 990 c 128,-1,18
 447 1018 447 1018 501.5 1037.5 c 128,-1,19
 556 1057 556 1057 615 1066 c 1,20,-1
 626 1066 l 1,21,-1
 748 1023 l 1,22,-1
 799 1376 l 1,23,-1
 805 1598 l 1,24,-1
 979 1615 l 1,0,-1
298 172 m 0,25,26
 317 172 317 172 359 213 c 128,-1,27
 401 254 401 254 457 328.5 c 128,-1,28
 513 403 513 403 583.5 528 c 128,-1,29
 654 653 654 653 718 801 c 1,30,-1
 727 874 l 1,31,-1
 582 926 l 1,32,33
 474 926 474 926 392 852 c 128,-1,34
 310 778 310 778 268.5 657 c 128,-1,35
 227 536 227 536 227 388 c 0,36,37
 227 327 227 327 234 282.5 c 128,-1,38
 241 238 241 238 251.5 215.5 c 128,-1,39
 262 193 262 193 273.5 182.5 c 128,-1,40
 285 172 285 172 298 172 c 0,25,26
EndSplineSet
Substitution2: "Single Substitution lookup 41 subtable" D.ss01
Substitution2: "'ss02' Style Set 2 lookup 36 subtable" down
Substitution2: "'ss01' Style Set 1 lookup 35 subtable" D.ss01
Substitution2: "'case' Case-Sensitive Forms lookup 28 subtable" D
Substitution2: "'ordn' Ordinals lookup 22 subtable" d.sups
Substitution2: "'sups' Superscript lookup 16 subtable" d.sups
AlternateSubs2: "'aalt' Access All Alternates lookup 1 subtable" d.sups D D.ss01 down
EndChar

StartChar: e
Encoding: 101 101 72
Width: 856
GlyphClass: 2
Flags: W
AnchorPoint: "Anchor-1" 385 0 basechar 0
AnchorPoint: "Anchor-0" 538 1052 basechar 0
LayerCount: 2
Fore
SplineSet
688 342 m 1,0,-1
 748 261 l 1,1,2
 589 32 589 32 388 -16 c 1,3,-1
 361 -16 l 1,4,5
 78 7 78 7 78 353 c 0,6,7
 78 554 78 554 142 715 c 128,-1,8
 206 876 206 876 322.5 969.5 c 128,-1,9
 439 1063 439 1063 589 1068 c 1,10,-1
 610 1066 l 1,11,12
 673 1057 673 1057 716 1032 c 128,-1,13
 759 1007 759 1007 782 964 c 128,-1,14
 805 921 805 921 805 862 c 0,15,16
 805 729 805 729 668 614 c 128,-1,17
 531 499 531 499 243 401 c 1,18,19
 243 306 243 306 258.5 246 c 128,-1,20
 274 186 274 186 306 157.5 c 128,-1,21
 338 129 338 129 388 129 c 0,22,23
 463 129 463 129 536.5 188.5 c 128,-1,24
 610 248 610 248 661 344 c 1,25,-1
 688 342 l 1,0,-1
545 945 m 0,26,27
 431 945 431 945 351 831.5 c 128,-1,28
 271 718 271 718 250 530 c 1,29,30
 447 593 447 593 549.5 675.5 c 128,-1,31
 652 758 652 758 652 851 c 0,32,33
 652 896 652 896 625.5 920.5 c 128,-1,34
 599 945 599 945 545 945 c 0,26,27
EndSplineSet
Substitution2: "'ss02' Style Set 2 lookup 36 subtable" square1
Substitution2: "'case' Case-Sensitive Forms lookup 28 subtable" E
Substitution2: "'ordn' Ordinals lookup 22 subtable" e.sups
Substitution2: "'sups' Superscript lookup 16 subtable" e.sups
AlternateSubs2: "'aalt' Access All Alternates lookup 1 subtable" e.sups E square1
EndChar

StartChar: f
Encoding: 102 102 73
Width: 641
GlyphClass: 2
Flags: W
LayerCount: 2
Fore
SplineSet
974 1567 m 1,0,-1
 928 1443 l 1,1,-1
 904 1438 l 1,2,3
 862 1462 862 1462 811.5 1475 c 128,-1,4
 761 1488 761 1488 720 1488 c 0,5,6
 627 1488 627 1488 565 1422 c 128,-1,7
 503 1356 503 1356 488 1232 c 1,8,-1
 461 1033 l 1,9,-1
 709 1033 l 1,10,-1
 722 1014 l 1,11,-1
 707 917 l 1,12,-1
 447 917 l 1,13,-1
 385 457 l 1,14,-1
 315 -32 l 1,15,-1
 305 -278 l 1,16,-1
 131 -291 l 1,17,-1
 232 436 l 1,18,-1
 298 917 l 1,19,-1
 140 917 l 1,20,-1
 129 928 l 1,21,-1
 142 1033 l 1,22,-1
 315 1033 l 1,23,-1
 337 1188 l 2,24,25
 366 1399 366 1399 468 1507 c 128,-1,26
 570 1615 570 1615 759 1615 c 1,27,-1
 968 1583 l 1,28,-1
 974 1567 l 1,0,-1
EndSplineSet
Substitution2: "Single Substitution lookup 41 subtable" f.t
Substitution2: "Single Substitution lookup 40 subtable" f.l
Substitution2: "Single Substitution lookup 39 subtable" f.f
Substitution2: "'ss02' Style Set 2 lookup 36 subtable" square2
Substitution2: "'case' Case-Sensitive Forms lookup 28 subtable" F
Substitution2: "'ordn' Ordinals lookup 22 subtable" f.sups
Substitution2: "'sups' Superscript lookup 16 subtable" f.sups
AlternateSubs2: "'aalt' Access All Alternates lookup 1 subtable" f.sups F square2
EndChar

StartChar: g
Encoding: 103 103 74
Width: 1011
GlyphClass: 2
Flags: W
AnchorPoint: "Anchor-1" 0 0 basechar 0
AnchorPoint: "Anchor-0" 584 1050 basechar 0
LayerCount: 2
Fore
SplineSet
902 1055 m 1,0,-1
 790 259 l 1,1,-1
 771 87 l 1,2,3
 753 -39 753 -39 704 -142 c 128,-1,4
 655 -245 655 -245 584.5 -313 c 128,-1,5
 514 -381 514 -381 425 -418 c 128,-1,6
 336 -455 336 -455 239 -455 c 0,7,8
 141 -455 141 -455 65 -417.5 c 128,-1,9
 -11 -380 -11 -380 -60.5 -308 c 128,-1,10
 -110 -236 -110 -236 -129 -133 c 1,11,-1
 -122 -114 l 1,12,-1
 202 87 l 1,13,-1
 204 108 l 1,14,15
 155 151 155 151 132.5 216.5 c 128,-1,16
 110 282 110 282 110 381 c 0,17,18
 110 479 110 479 130 571 c 128,-1,19
 150 663 150 663 192 746 c 128,-1,20
 234 829 234 829 293.5 894 c 128,-1,21
 353 959 353 959 436 1004 c 128,-1,22
 519 1049 519 1049 617 1064 c 1,23,-1
 628 1064 l 1,24,-1
 771 1014 l 1,25,-1
 878 1068 l 1,26,-1
 902 1055 l 1,0,-1
725 876 m 1,27,-1
 585 926 l 1,28,29
 508 926 508 926 446 887.5 c 128,-1,30
 384 849 384 849 345 782 c 128,-1,31
 306 715 306 715 285 627 c 128,-1,32
 264 539 264 539 264 438 c 0,33,34
 264 403 264 403 266.5 372.5 c 128,-1,35
 269 342 269 342 273.5 320 c 128,-1,36
 278 298 278 298 283.5 280 c 128,-1,37
 289 262 289 262 294.5 250.5 c 128,-1,38
 300 239 300 239 306.5 231 c 128,-1,39
 313 223 313 223 318.5 219.5 c 128,-1,40
 324 216 324 216 328 216 c 0,41,42
 341 216 341 216 367.5 240 c 128,-1,43
 394 264 394 264 432.5 313.5 c 128,-1,44
 471 363 471 363 515.5 430 c 128,-1,45
 560 497 560 497 613 592.5 c 128,-1,46
 666 688 666 688 716 794 c 1,47,-1
 720 823 l 1,48,-1
 725 876 l 1,27,-1
276 -324 m 0,49,50
 361 -324 361 -324 430.5 -283.5 c 128,-1,51
 500 -243 500 -243 548 -160 c 128,-1,52
 596 -77 596 -77 613 41 c 1,53,-1
 672 482 l 1,54,-1
 650 482 l 1,55,56
 487 197 487 197 309 55 c 1,57,-1
 76 -119 l 1,58,59
 55 -137 55 -137 55 -158 c 0,60,61
 57 -221 57 -221 117 -272.5 c 128,-1,62
 177 -324 177 -324 276 -324 c 0,49,50
EndSplineSet
Substitution2: "'ss02' Style Set 2 lookup 36 subtable" circle1
Substitution2: "'case' Case-Sensitive Forms lookup 28 subtable" G
Substitution2: "'ordn' Ordinals lookup 22 subtable" g.sups
Substitution2: "'sups' Superscript lookup 16 subtable" g.sups
AlternateSubs2: "'aalt' Access All Alternates lookup 1 subtable" g.sups G circle1
EndChar

StartChar: h
Encoding: 104 104 75
Width: 1075
GlyphClass: 2
Flags: W
AnchorPoint: "Anchor-1" 0 0 basechar 0
AnchorPoint: "Anchor-0" 387 1606 basechar 0
LayerCount: 2
Fore
SplineSet
753 1066 m 1,0,-1
 777 1066 l 1,1,2
 857 1049 857 1049 906.5 996.5 c 128,-1,3
 956 944 956 944 954 867 c 1,4,-1
 952 838 l 1,5,-1
 858 248 l 1,6,-1
 844 7 l 1,7,-1
 668 -9 l 1,8,-1
 794 775 l 1,9,-1
 796 805 l 1,10,11
 796 876 796 876 748 876 c 0,12,13
 682 876 682 876 560.5 708.5 c 128,-1,14
 439 541 439 541 291 232 c 1,15,-1
 280 7 l 1,16,-1
 105 -9 l 1,17,-1
 302 1376 l 1,18,-1
 307 1598 l 1,19,-1
 482 1615 l 1,20,-1
 333 545 l 1,21,-1
 353 545 l 1,22,23
 465 742 465 742 559 865.5 c 128,-1,24
 653 989 653 989 753 1066 c 1,0,-1
EndSplineSet
Substitution2: "'ss02' Style Set 2 lookup 36 subtable" circle2
Substitution2: "'case' Case-Sensitive Forms lookup 28 subtable" H
Substitution2: "'ordn' Ordinals lookup 22 subtable" h.sups
Substitution2: "'sups' Superscript lookup 16 subtable" h.sups
AlternateSubs2: "'aalt' Access All Alternates lookup 1 subtable" h.sups H circle2
EndChar

StartChar: i
Encoding: 105 105 76
Width: 499
GlyphClass: 2
Flags: W
AnchorPoint: "Anchor-1" 0 0 basechar 0
AnchorPoint: "Anchor-0" 312 1050 basechar 0
LayerCount: 2
Fore
SplineSet
361 1516 m 0,0,1
 405 1516 405 1516 430 1490 c 128,-1,2
 455 1464 455 1464 455 1418 c 0,3,4
 455 1386 455 1386 442.5 1362 c 128,-1,5
 430 1338 430 1338 406.5 1325 c 128,-1,6
 383 1312 383 1312 352.5 1312 c 128,-1,7
 322 1312 322 1312 300 1324.5 c 128,-1,8
 278 1337 278 1337 266 1360 c 128,-1,9
 254 1383 254 1383 254 1413 c 0,10,11
 254 1460 254 1460 283.5 1488 c 128,-1,12
 313 1516 313 1516 361 1516 c 0,0,1
284 250 m 1,13,-1
 276 7 l 1,14,-1
 101 -9 l 1,15,-1
 221 823 l 1,16,-1
 230 1046 l 1,17,-1
 399 1062 l 1,18,-1
 284 250 l 1,13,-1
EndSplineSet
Substitution2: "Single Substitution lookup 41 subtable" I.ss01
Substitution2: "'ss01' Style Set 1 lookup 35 subtable" I.ss01
Substitution2: "'case' Case-Sensitive Forms lookup 28 subtable" I
Substitution2: "'ordn' Ordinals lookup 22 subtable" i.sups
Substitution2: "'sups' Superscript lookup 16 subtable" i.sups
Substitution2: "'locl' Localized Forms in Latin lookup 9 subtable" idotaccent
Substitution2: "'locl' Localized Forms in Latin lookup 8 subtable" idotaccent
Substitution2: "'locl' Localized Forms in Latin lookup 7 subtable" idotaccent
Substitution2: "'locl' Localized Forms in Latin lookup 6 subtable" idotaccent
Substitution2: "'locl' Localized Forms in Latin lookup 5 subtable" idotaccent
AlternateSubs2: "'aalt' Access All Alternates lookup 1 subtable" idotaccent i.sups I I.ss01
EndChar

StartChar: j
Encoding: 106 106 77
Width: 532
GlyphClass: 2
Flags: W
AnchorPoint: "Anchor-1" 0 0 basechar 0
AnchorPoint: "Anchor-0" 332 1050 basechar 0
LayerCount: 2
Fore
SplineSet
381 1516 m 0,0,1
 425 1516 425 1516 450 1490 c 128,-1,2
 475 1464 475 1464 475 1418 c 0,3,4
 475 1370 475 1370 447.5 1341 c 128,-1,5
 420 1312 420 1312 374 1312 c 0,6,7
 344 1312 344 1312 321.5 1324.5 c 128,-1,8
 299 1337 299 1337 287.5 1360 c 128,-1,9
 276 1383 276 1383 276 1413 c 0,10,11
 276 1460 276 1460 304.5 1488 c 128,-1,12
 333 1516 333 1516 381 1516 c 0,0,1
427 1051 m 1,13,-1
 315 248 l 1,14,-1
 293 41 l 1,15,16
 269 -139 269 -139 195 -246 c 128,-1,17
 121 -353 121 -353 -41 -445 c 1,18,-1
 -99 -367 l 1,19,-1
 -96 -346 l 1,20,21
 17 -271 17 -271 69 -188.5 c 128,-1,22
 121 -106 121 -106 138 32 c 1,23,-1
 250 821 l 1,24,-1
 254 917 l 1,25,-1
 83 917 l 1,26,-1
 71 928 l 1,27,-1
 85 1033 l 1,28,-1
 248 1033 l 1,29,-1
 420 1055 l 1,30,-1
 427 1051 l 1,13,-1
EndSplineSet
Substitution2: "'case' Case-Sensitive Forms lookup 28 subtable" J
Substitution2: "'ordn' Ordinals lookup 22 subtable" j.sups
Substitution2: "'sups' Superscript lookup 16 subtable" j.sups
AlternateSubs2: "'aalt' Access All Alternates lookup 1 subtable" j.sups J
EndChar

StartChar: k
Encoding: 107 107 78
Width: 1059
GlyphClass: 2
Flags: W
AnchorPoint: "Anchor-1" 507 0 basechar 0
AnchorPoint: "Anchor-0" 256 1050 basechar 0
LayerCount: 2
Fore
SplineSet
1000 840 m 0,0,1
 1000 618 1000 618 668 418 c 1,2,3
 824 161 824 161 931 16 c 1,4,-1
 922 0 l 1,5,-1
 780 -28 l 1,6,-1
 764 -18 l 1,7,8
 656 144 656 144 516 409 c 1,9,-1
 521 438 l 1,10,11
 832 631 832 631 832 799 c 0,12,13
 832 876 832 876 777 876 c 0,14,15
 702 876 702 876 575.5 713 c 128,-1,16
 449 550 449 550 289 218 c 1,17,-1
 282 7 l 1,18,-1
 108 -9 l 1,19,-1
 302 1376 l 1,20,-1
 309 1598 l 1,21,-1
 484 1615 l 1,22,-1
 335 560 l 1,23,-1
 357 560 l 1,24,25
 486 760 486 760 581.5 878.5 c 128,-1,26
 677 997 677 997 777 1062 c 1,27,-1
 812 1064 l 1,28,29
 899 1046 899 1046 949.5 991 c 128,-1,30
 1000 936 1000 936 1000 840 c 0,0,1
EndSplineSet
Substitution2: "'case' Case-Sensitive Forms lookup 28 subtable" K
Substitution2: "'ordn' Ordinals lookup 22 subtable" k.sups
Substitution2: "'sups' Superscript lookup 16 subtable" k.sups
AlternateSubs2: "'aalt' Access All Alternates lookup 1 subtable" k.sups K
EndChar

StartChar: l
Encoding: 108 108 79
Width: 512
GlyphClass: 2
Flags: W
AnchorPoint: "Anchor-1" 194 0 basechar 0
AnchorPoint: "Anchor-0" 392 1606 basechar 0
LayerCount: 2
Fore
SplineSet
291 250 m 1,0,-1
 280 7 l 1,1,-1
 108 -9 l 1,2,-1
 302 1376 l 1,3,-1
 309 1598 l 1,4,-1
 482 1615 l 1,5,-1
 291 250 l 1,0,-1
EndSplineSet
Substitution2: "Single Substitution lookup 41 subtable" L.ss01
Substitution2: "'ss01' Style Set 1 lookup 35 subtable" L.ss01
Substitution2: "'case' Case-Sensitive Forms lookup 28 subtable" L
Substitution2: "'ordn' Ordinals lookup 22 subtable" l.sups
Substitution2: "'sups' Superscript lookup 16 subtable" l.sups
AlternateSubs2: "'aalt' Access All Alternates lookup 1 subtable" l.sups L L.ss01
EndChar

StartChar: m
Encoding: 109 109 80
Width: 1644
GlyphClass: 2
Flags: W
AnchorPoint: "Anchor-1" 442 0 basechar 0
AnchorPoint: "Anchor-0" 312 1050 basechar 0
LayerCount: 2
Fore
SplineSet
1322 1066 m 1,0,-1
 1346 1066 l 1,1,2
 1426 1049 1426 1049 1475.5 996.5 c 128,-1,3
 1525 944 1525 944 1523 867 c 1,4,-1
 1521 838 l 1,5,-1
 1427 248 l 1,6,-1
 1413 7 l 1,7,-1
 1236 -9 l 1,8,-1
 1360 775 l 1,9,-1
 1363 805 l 1,10,11
 1365 839 1365 839 1353 857.5 c 128,-1,12
 1341 876 1341 876 1317 876 c 0,13,14
 1250 876 1250 876 1126 704.5 c 128,-1,15
 1002 533 1002 533 851 216 c 1,16,-1
 840 7 l 1,17,-1
 663 -9 l 1,18,-1
 790 775 l 1,19,-1
 792 805 l 1,20,21
 792 876 792 876 744 876 c 0,22,23
 677 876 677 876 556 708.5 c 128,-1,24
 435 541 435 541 287 232 c 1,25,-1
 276 7 l 1,26,-1
 101 -9 l 1,27,-1
 221 823 l 1,28,-1
 232 1046 l 1,29,-1
 401 1062 l 1,30,-1
 328 545 l 1,31,-1
 348 545 l 1,32,33
 464 745 464 745 557 867.5 c 128,-1,34
 650 990 650 990 748 1066 c 1,35,-1
 773 1066 l 1,36,37
 853 1048 853 1048 903 996 c 128,-1,38
 953 944 953 944 950 867 c 1,39,-1
 948 838 l 1,40,-1
 902 545 l 1,41,-1
 922 545 l 1,42,43
 1034 742 1034 742 1128 865.5 c 128,-1,44
 1222 989 1222 989 1322 1066 c 1,0,-1
EndSplineSet
Substitution2: "Single Substitution lookup 41 subtable" M.ss01
Substitution2: "'ss01' Style Set 1 lookup 35 subtable" M.ss01
Substitution2: "'case' Case-Sensitive Forms lookup 28 subtable" M
Substitution2: "'ordn' Ordinals lookup 22 subtable" m.sups
Substitution2: "'sups' Superscript lookup 16 subtable" m.sups
AlternateSubs2: "'aalt' Access All Alternates lookup 1 subtable" m.sups M M.ss01
EndChar

StartChar: n
Encoding: 110 110 81
Width: 1070
GlyphClass: 2
Flags: W
AnchorPoint: "Anchor-1" 477 0 basechar 0
AnchorPoint: "Anchor-0" 605 1050 basechar 0
LayerCount: 2
Fore
SplineSet
748 1066 m 1,0,-1
 773 1066 l 1,1,2
 853 1048 853 1048 903 996 c 128,-1,3
 953 944 953 944 950 867 c 1,4,-1
 948 838 l 1,5,-1
 853 248 l 1,6,-1
 840 7 l 1,7,-1
 663 -9 l 1,8,-1
 790 775 l 1,9,-1
 792 805 l 1,10,11
 792 876 792 876 744 876 c 0,12,13
 677 876 677 876 556 708.5 c 128,-1,14
 435 541 435 541 287 232 c 1,15,-1
 276 7 l 1,16,-1
 101 -9 l 1,17,-1
 221 823 l 1,18,-1
 232 1046 l 1,19,-1
 401 1062 l 1,20,-1
 328 545 l 1,21,-1
 348 545 l 1,22,23
 464 745 464 745 557 867.5 c 128,-1,24
 650 990 650 990 748 1066 c 1,0,-1
EndSplineSet
Substitution2: "'case' Case-Sensitive Forms lookup 28 subtable" N
Substitution2: "'ordn' Ordinals lookup 22 subtable" n.sups
Substitution2: "'sups' Superscript lookup 16 subtable" n.sups
AlternateSubs2: "'aalt' Access All Alternates lookup 1 subtable" n.sups N
EndChar

StartChar: o
Encoding: 111 111 82
Width: 941
GlyphClass: 2
Flags: W
AnchorPoint: "Anchor-1" 0 0 basechar 0
AnchorPoint: "Anchor-0" 560 1050 basechar 0
LayerCount: 2
Fore
SplineSet
591 1068 m 1,0,-1
 610 1068 l 1,1,2
 736 1047 736 1047 799 962 c 128,-1,3
 862 877 862 877 862 720 c 0,4,5
 862 509 862 509 803.5 347.5 c 128,-1,6
 745 186 745 186 631 90 c 128,-1,7
 517 -6 517 -6 361 -20 c 1,8,-1
 339 -18 l 1,9,10
 209 7 209 7 146 91.5 c 128,-1,11
 83 176 83 176 83 342 c 0,12,13
 83 548 83 548 144 709 c 128,-1,14
 205 870 205 870 320.5 965 c 128,-1,15
 436 1060 436 1060 591 1068 c 1,0,-1
562 928 m 0,16,17
 485 928 485 928 423.5 886.5 c 128,-1,18
 362 845 362 845 322 768 c 128,-1,19
 282 691 282 691 261.5 583.5 c 128,-1,20
 241 476 241 476 241 344 c 0,21,22
 241 264 241 264 255 214.5 c 128,-1,23
 269 165 269 165 299.5 140.5 c 128,-1,24
 330 116 330 116 381 116 c 0,25,26
 483 116 483 116 555.5 191.5 c 128,-1,27
 628 267 628 267 664 399.5 c 128,-1,28
 700 532 700 532 700 709 c 0,29,30
 700 787 700 787 685.5 835 c 128,-1,31
 671 883 671 883 641 905.5 c 128,-1,32
 611 928 611 928 562 928 c 0,16,17
EndSplineSet
Substitution2: "'case' Case-Sensitive Forms lookup 28 subtable" O
Substitution2: "'ordn' Ordinals lookup 22 subtable" o.sups
Substitution2: "'sups' Superscript lookup 16 subtable" o.sups
AlternateSubs2: "'aalt' Access All Alternates lookup 1 subtable" o.sups O
EndChar

StartChar: p
Encoding: 112 112 83
Width: 1001
GlyphClass: 2
Flags: W
AnchorPoint: "Anchor-1" 514 0 basechar 0
AnchorPoint: "Anchor-0" 371 752 basechar 0
LayerCount: 2
Fore
SplineSet
725 1066 m 1,0,-1
 757 1066 l 1,1,2
 931 962 931 962 931 707 c 0,3,4
 931 609 931 609 909.5 513.5 c 128,-1,5
 888 418 888 418 843.5 329.5 c 128,-1,6
 799 241 799 241 736 170 c 128,-1,7
 673 99 673 99 584 49.5 c 128,-1,8
 495 0 495 0 390 -16 c 1,9,-1
 381 -16 l 1,10,-1
 256 11 l 1,11,-1
 232 -175 l 1,12,-1
 221 -424 l 1,13,-1
 46 -440 l 1,14,-1
 223 823 l 1,15,-1
 234 1046 l 1,16,-1
 401 1062 l 1,17,-1
 337 589 l 1,18,-1
 363 589 l 1,19,20
 531 882 531 882 725 1066 c 1,0,-1
278 162 m 1,21,-1
 424 122 l 1,22,23
 531 122 531 122 612 196.5 c 128,-1,24
 693 271 693 271 734 393 c 128,-1,25
 775 515 775 515 775 663 c 0,26,27
 775 724 775 724 769 767.5 c 128,-1,28
 763 811 763 811 752 833.5 c 128,-1,29
 741 856 741 856 730 866 c 128,-1,30
 719 876 719 876 707 876 c 0,31,32
 687 876 687 876 645 834 c 128,-1,33
 603 792 603 792 547 717 c 128,-1,34
 491 642 491 642 421 515.5 c 128,-1,35
 351 389 351 389 289 241 c 1,36,-1
 278 162 l 1,21,-1
EndSplineSet
Substitution2: "'case' Case-Sensitive Forms lookup 28 subtable" P
Substitution2: "'ordn' Ordinals lookup 22 subtable" p.sups
Substitution2: "'sups' Superscript lookup 16 subtable" p.sups
AlternateSubs2: "'aalt' Access All Alternates lookup 1 subtable" p.sups P
EndChar

StartChar: q
Encoding: 113 113 84
Width: 1004
GlyphClass: 2
Flags: W
LayerCount: 2
Fore
SplineSet
895 1055 m 1,0,-1
 722 -179 l 1,1,-1
 711 -424 l 1,2,-1
 536 -440 l 1,3,-1
 665 461 l 1,4,-1
 640 461 l 1,5,6
 473 168 473 168 280 -16 c 1,7,-1
 248 -16 l 1,8,9
 74 83 74 83 74 344 c 0,10,11
 74 397 74 397 80.5 450.5 c 128,-1,12
 87 504 87 504 100.5 557 c 128,-1,13
 114 610 114 610 133.5 660.5 c 128,-1,14
 153 711 153 711 180 758.5 c 128,-1,15
 207 806 207 806 239.5 847.5 c 128,-1,16
 272 889 272 889 312.5 925.5 c 128,-1,17
 353 962 353 962 399 990 c 128,-1,18
 445 1018 445 1018 499.5 1037.5 c 128,-1,19
 554 1057 554 1057 613 1066 c 1,20,-1
 622 1066 l 1,21,-1
 764 1014 l 1,22,-1
 874 1068 l 1,23,-1
 895 1055 l 1,0,-1
296 172 m 0,24,25
 311 172 311 172 340.5 197 c 128,-1,26
 370 222 370 222 413 275 c 128,-1,27
 456 328 456 328 503.5 400.5 c 128,-1,28
 551 473 551 473 607 580 c 128,-1,29
 663 687 663 687 713 808 c 1,30,-1
 716 821 l 1,31,-1
 718 876 l 1,32,-1
 578 926 l 1,33,34
 471 926 471 926 390.5 852 c 128,-1,35
 310 778 310 778 270 657 c 128,-1,36
 230 536 230 536 230 388 c 0,37,38
 230 339 230 339 234 300 c 128,-1,39
 238 261 238 261 244.5 238 c 128,-1,40
 251 215 251 215 260 199.5 c 128,-1,41
 269 184 269 184 278 178 c 128,-1,42
 287 172 287 172 296 172 c 0,24,25
EndSplineSet
Substitution2: "'case' Case-Sensitive Forms lookup 28 subtable" Q
Substitution2: "'ordn' Ordinals lookup 22 subtable" q.sups
Substitution2: "'sups' Superscript lookup 16 subtable" q.sups
AlternateSubs2: "'aalt' Access All Alternates lookup 1 subtable" q.sups Q
EndChar

StartChar: r
Encoding: 114 114 85
Width: 751
GlyphClass: 2
Flags: W
AnchorPoint: "Anchor-1" 199 0 basechar 0
AnchorPoint: "Anchor-0" 525 1050 basechar 0
LayerCount: 2
Fore
SplineSet
803 1055 m 1,0,-1
 768 825 l 1,1,-1
 753 819 l 1,2,-1
 734 821 l 1,3,4
 660 810 660 810 596 754.5 c 128,-1,5
 532 699 532 699 455.5 565.5 c 128,-1,6
 379 432 379 432 289 206 c 1,7,-1
 280 7 l 1,8,-1
 105 -9 l 1,9,-1
 225 823 l 1,10,-1
 236 1046 l 1,11,-1
 403 1062 l 1,12,-1
 335 558 l 1,13,-1
 351 558 l 1,14,15
 406 669 406 669 463.5 757.5 c 128,-1,16
 521 846 521 846 592 923 c 128,-1,17
 663 1000 663 1000 746 1060 c 1,18,-1
 803 1055 l 1,0,-1
EndSplineSet
Substitution2: "'case' Case-Sensitive Forms lookup 28 subtable" R
Substitution2: "'ordn' Ordinals lookup 22 subtable" r.sups
Substitution2: "'sups' Superscript lookup 16 subtable" r.sups
AlternateSubs2: "'aalt' Access All Alternates lookup 1 subtable" r.sups R
EndChar

StartChar: s
Encoding: 115 115 86
Width: 726
GlyphClass: 2
Flags: W
AnchorPoint: "Anchor-1" 314 0 basechar 0
AnchorPoint: "Anchor-0" 446 1050 basechar 0
LayerCount: 2
Fore
SplineSet
505 1064 m 1,0,1
 608 1044 608 1044 698 1007 c 1,2,-1
 650 851 l 1,3,-1
 622 842 l 1,4,5
 531 943 531 943 438 943 c 0,6,7
 392 943 392 943 353.5 919.5 c 128,-1,8
 315 896 315 896 293 859 c 128,-1,9
 271 822 271 822 271 782 c 0,10,11
 271 751 271 751 286 723.5 c 128,-1,12
 301 696 301 696 325 674 c 128,-1,13
 349 652 349 652 380.5 628 c 128,-1,14
 412 604 412 604 444.5 582.5 c 128,-1,15
 477 561 477 561 508 532.5 c 128,-1,16
 539 504 539 504 563 473.5 c 128,-1,17
 587 443 587 443 602 401.5 c 128,-1,18
 617 360 617 360 617 312 c 0,19,20
 617 172 617 172 507 78 c 128,-1,21
 397 -16 397 -16 223 -18 c 1,22,23
 103 -2 103 -2 -7 59 c 1,24,-1
 37 223 l 1,25,-1
 62 234 l 1,26,27
 108 170 108 170 165 136.5 c 128,-1,28
 222 103 222 103 282 103 c 0,29,30
 360 103 360 103 410.5 153.5 c 128,-1,31
 461 204 461 204 461 269 c 0,32,33
 461 302 461 302 446 332.5 c 128,-1,34
 431 363 431 363 406.5 386 c 128,-1,35
 382 409 382 409 350.5 433.5 c 128,-1,36
 319 458 319 458 286 479.5 c 128,-1,37
 253 501 253 501 221 529 c 128,-1,38
 189 557 189 557 164.5 586.5 c 128,-1,39
 140 616 140 616 125 656.5 c 128,-1,40
 110 697 110 697 110 744 c 0,41,42
 110 837 110 837 164 911.5 c 128,-1,43
 218 986 218 986 308.5 1026 c 128,-1,44
 399 1066 399 1066 505 1064 c 1,0,1
EndSplineSet
Substitution2: "'case' Case-Sensitive Forms lookup 28 subtable" S
Substitution2: "'ordn' Ordinals lookup 22 subtable" s.sups
Substitution2: "'sups' Superscript lookup 16 subtable" s.sups
AlternateSubs2: "'aalt' Access All Alternates lookup 1 subtable" s.sups S
EndChar

StartChar: t
Encoding: 116 116 87
Width: 742
GlyphClass: 2
Flags: W
AnchorPoint: "Anchor-1" 396 0 basechar 0
AnchorPoint: "Anchor-0" 0 0 basechar 0
LayerCount: 2
Fore
SplineSet
333 273 m 1,0,-1
 328 232 l 1,1,2
 328 156 328 156 394 156 c 0,3,4
 477 156 477 156 599 333 c 1,5,-1
 626 330 l 1,6,-1
 679 259 l 1,7,8
 601 158 601 158 529.5 93 c 128,-1,9
 458 28 458 28 381 -11 c 1,10,-1
 353 -11 l 1,11,12
 269 3 269 3 221 52.5 c 128,-1,13
 173 102 173 102 175 184 c 1,14,-1
 177 221 l 1,15,-1
 276 825 l 1,16,-1
 284 917 l 1,17,-1
 136 917 l 1,18,-1
 124 928 l 1,19,-1
 136 1033 l 1,20,-1
 298 1033 l 1,21,-1
 326 1280 l 1,22,-1
 488 1353 l 1,23,-1
 507 1342 l 1,24,-1
 457 1033 l 1,25,-1
 738 1033 l 1,26,-1
 753 1014 l 1,27,-1
 741 917 l 1,28,-1
 438 917 l 1,29,-1
 333 273 l 1,0,-1
EndSplineSet
Substitution2: "'case' Case-Sensitive Forms lookup 28 subtable" T
Substitution2: "'ordn' Ordinals lookup 22 subtable" t.sups
Substitution2: "'sups' Superscript lookup 16 subtable" t.sups
AlternateSubs2: "'aalt' Access All Alternates lookup 1 subtable" t.sups T
EndChar

StartChar: u
Encoding: 117 117 88
Width: 1079
GlyphClass: 2
Flags: W
AnchorPoint: "Anchor-1" 0 0 basechar 0
AnchorPoint: "Anchor-0" 605 1050 basechar 0
LayerCount: 2
Fore
SplineSet
968 1062 m 1,0,-1
 853 250 l 1,1,-1
 844 7 l 1,2,-1
 670 -9 l 1,3,-1
 741 505 l 1,4,-1
 725 505 l 1,5,6
 613 311 613 311 519.5 190 c 128,-1,7
 426 69 426 69 326 -9 c 1,8,-1
 300 -9 l 1,9,10
 220 9 220 9 171.5 60 c 128,-1,11
 123 111 123 111 124 188 c 1,12,-1
 127 218 l 1,13,-1
 221 810 l 1,14,-1
 239 1051 l 1,15,-1
 409 1064 l 1,16,-1
 287 296 l 1,17,-1
 282 248 l 1,18,19
 281 213 281 213 294.5 196 c 128,-1,20
 308 179 308 179 330 179 c 0,21,22
 397 179 397 179 518 345.5 c 128,-1,23
 639 512 639 512 786 823 c 1,24,-1
 799 1046 l 1,25,-1
 968 1062 l 1,0,-1
EndSplineSet
Substitution2: "'case' Case-Sensitive Forms lookup 28 subtable" U
Substitution2: "'ordn' Ordinals lookup 22 subtable" u.sups
Substitution2: "'sups' Superscript lookup 16 subtable" u.sups
AlternateSubs2: "'aalt' Access All Alternates lookup 1 subtable" u.sups U
EndChar

StartChar: v
Encoding: 118 118 89
Width: 932
GlyphClass: 2
Flags: W
LayerCount: 2
Fore
SplineSet
700 1025 m 1,0,-1
 860 1062 l 1,1,2
 913 972 913 972 913 878 c 0,3,4
 913 758 913 758 812 585 c 2,5,-1
 468 0 l 1,6,-1
 280 0 l 1,7,-1
 165 1046 l 1,8,-1
 337 1062 l 1,9,-1
 344 878 l 1,10,-1
 401 184 l 1,11,-1
 418 184 l 1,12,-1
 674 633 l 1,13,14
 750 764 750 764 750 849 c 0,15,16
 750 923 750 923 696 1002 c 1,17,-1
 700 1025 l 1,0,-1
EndSplineSet
Substitution2: "Single Substitution lookup 41 subtable" V.ss01
Substitution2: "'ss01' Style Set 1 lookup 35 subtable" V.ss01
Substitution2: "'case' Case-Sensitive Forms lookup 28 subtable" V
Substitution2: "'ordn' Ordinals lookup 22 subtable" v.sups
Substitution2: "'sups' Superscript lookup 16 subtable" v.sups
AlternateSubs2: "'aalt' Access All Alternates lookup 1 subtable" v.sups V V.ss01
EndChar

StartChar: w
Encoding: 119 119 90
Width: 1563
GlyphClass: 2
Flags: W
AnchorPoint: "Anchor-1" 0 0 basechar 0
AnchorPoint: "Anchor-0" 848 1050 basechar 0
LayerCount: 2
Fore
SplineSet
1119 0 m 1,0,-1
 941 0 l 1,1,-1
 858 819 l 1,2,-1
 840 819 l 1,3,-1
 475 0 l 1,4,-1
 289 0 l 1,5,-1
 165 1046 l 1,6,-1
 335 1062 l 1,7,-1
 337 922 l 1,8,-1
 409 195 l 1,9,-1
 424 195 l 1,10,-1
 746 913 l 1,11,-1
 799 1053 l 1,12,-1
 979 1053 l 1,13,-1
 987 922 l 1,14,-1
 1057 195 l 1,15,-1
 1071 195 l 1,16,-1
 1307 633 l 2,17,18
 1344 703 1344 703 1362.5 753.5 c 128,-1,19
 1381 804 1381 804 1381 849 c 0,20,21
 1381 923 1381 923 1326 1002 c 1,22,-1
 1333 1025 l 1,23,-1
 1491 1062 l 1,24,25
 1543 977 1543 977 1543 878 c 0,26,27
 1543 815 1543 815 1518.5 745 c 128,-1,28
 1494 675 1494 675 1445 585 c 1,29,-1
 1119 0 l 1,0,-1
EndSplineSet
Substitution2: "'case' Case-Sensitive Forms lookup 28 subtable" W
Substitution2: "'ordn' Ordinals lookup 22 subtable" w.sups
Substitution2: "'sups' Superscript lookup 16 subtable" w.sups
AlternateSubs2: "'aalt' Access All Alternates lookup 1 subtable" w.sups W
EndChar

StartChar: x
Encoding: 120 120 91
Width: 1006
GlyphClass: 2
Flags: W
LayerCount: 2
Fore
SplineSet
874 9 m 1,0,-1
 688 -13 l 1,1,-1
 652 101 l 1,2,-1
 491 429 l 1,3,-1
 241 99 l 1,4,-1
 186 0 l 1,5,-1
 -2 0 l 1,6,-1
 399 543 l 1,7,-1
 162 1044 l 1,8,-1
 342 1064 l 1,9,-1
 374 972 l 1,10,-1
 528 656 l 1,11,-1
 762 961 l 1,12,-1
 816 1053 l 1,13,-1
 1000 1053 l 1,14,-1
 610 532 l 1,15,-1
 874 9 l 1,0,-1
EndSplineSet
Substitution2: "Single Substitution lookup 41 subtable" X.ss01
Substitution2: "'ss01' Style Set 1 lookup 35 subtable" X.ss01
Substitution2: "'case' Case-Sensitive Forms lookup 28 subtable" X
Substitution2: "'ordn' Ordinals lookup 22 subtable" x.sups
Substitution2: "'sups' Superscript lookup 16 subtable" x.sups
AlternateSubs2: "'aalt' Access All Alternates lookup 1 subtable" x.sups X X.ss01
EndChar

StartChar: y
Encoding: 121 121 92
Width: 932
GlyphClass: 2
Flags: W
AnchorPoint: "Anchor-1" 0 0 basechar 0
AnchorPoint: "Anchor-0" 474 1050 basechar 0
LayerCount: 2
Fore
SplineSet
702 1025 m 1,0,-1
 860 1062 l 1,1,2
 913 977 913 977 913 878 c 0,3,4
 913 740 913 740 801 539 c 1,5,-1
 536 74 l 2,6,7
 375 -208 375 -208 239 -327.5 c 128,-1,8
 103 -447 103 -447 -48 -447 c 0,9,10
 -144 -447 -144 -447 -230 -411 c 1,11,-1
 -236 -264 l 1,12,-1
 -218 -250 l 1,13,14
 -123 -284 -123 -284 -50 -284 c 0,15,16
 152 -284 152 -284 337 -13 c 1,17,-1
 129 1046 l 1,18,-1
 298 1062 l 1,19,-1
 324 878 l 1,20,-1
 431 204 l 1,21,-1
 461 204 l 1,22,-1
 668 596 l 1,23,24
 709 677 709 677 729.5 737 c 128,-1,25
 750 797 750 797 750 849 c 0,26,27
 750 923 750 923 696 1002 c 1,28,-1
 702 1025 l 1,0,-1
EndSplineSet
Substitution2: "'case' Case-Sensitive Forms lookup 28 subtable" Y
Substitution2: "'ordn' Ordinals lookup 22 subtable" y.sups
Substitution2: "'sups' Superscript lookup 16 subtable" y.sups
AlternateSubs2: "'aalt' Access All Alternates lookup 1 subtable" y.sups Y
EndChar

StartChar: z
Encoding: 122 122 93
Width: 932
GlyphClass: 2
Flags: W
AnchorPoint: "Anchor-1" 0 0 basechar 0
AnchorPoint: "Anchor-0" 534 1050 basechar 0
LayerCount: 2
Fore
SplineSet
878 1035 m 1,0,-1
 230 175 l 1,1,-1
 296 190 l 1,2,3
 331 190 331 190 412.5 164 c 128,-1,4
 494 138 494 138 528 138 c 0,5,6
 627 138 627 138 673.5 203.5 c 128,-1,7
 720 269 720 269 727 427 c 1,8,-1
 757 440 l 1,9,-1
 840 394 l 1,10,11
 832 186 832 186 749.5 82 c 128,-1,12
 667 -22 667 -22 523 -22 c 0,13,14
 473 -22 473 -22 410.5 -3.5 c 128,-1,15
 348 15 348 15 287.5 34 c 128,-1,16
 227 53 227 53 184 53 c 0,17,18
 144 53 144 53 111.5 38 c 128,-1,19
 79 23 79 23 44 -13 c 1,20,-1
 26 -13 l 1,21,-1
 -30 37 l 1,22,-1
 626 908 l 1,23,-1
 307 906 l 1,24,-1
 149 888 l 1,25,-1
 136 902 l 1,26,-1
 170 1055 l 1,27,-1
 186 1066 l 1,28,-1
 333 1055 l 1,29,-1
 768 1053 l 1,30,-1
 825 1085 l 1,31,-1
 878 1035 l 1,0,-1
EndSplineSet
Substitution2: "'case' Case-Sensitive Forms lookup 28 subtable" Z
Substitution2: "'ordn' Ordinals lookup 22 subtable" z.sups
Substitution2: "'sups' Superscript lookup 16 subtable" z.sups
AlternateSubs2: "'aalt' Access All Alternates lookup 1 subtable" z.sups Z
EndChar

StartChar: braceleft
Encoding: 123 123 94
Width: 659
GlyphClass: 2
Flags: W
LayerCount: 2
Fore
SplineSet
608 1502 m 0,0,1
 658 1502 658 1502 722 1486 c 1,2,-1
 729 1473 l 1,3,-1
 700 1376 l 1,4,5
 650 1388 650 1388 617 1388 c 0,6,7
 530 1388 530 1388 488.5 1331.5 c 128,-1,8
 447 1275 447 1275 447 1149 c 0,9,10
 447 1110 447 1110 452 1019 c 128,-1,11
 457 928 457 928 457 895 c 0,12,13
 457 680 457 680 271 601 c 1,14,-1
 269 594 l 1,15,16
 396 535 396 535 396 390 c 0,17,18
 396 338 396 338 371 254 c 128,-1,19
 346 170 346 170 321 84.5 c 128,-1,20
 296 -1 296 -1 296 -57 c 0,21,22
 296 -127 296 -127 327 -161 c 128,-1,23
 358 -195 358 -195 422 -195 c 0,24,25
 453 -195 453 -195 507 -184 c 1,26,-1
 514 -278 l 1,27,-1
 503 -291 l 1,28,29
 451 -307 451 -307 385 -307 c 0,30,31
 309 -307 309 -307 257.5 -282.5 c 128,-1,32
 206 -258 206 -258 181 -210 c 128,-1,33
 156 -162 156 -162 156 -92 c 0,34,35
 156 -27 156 -27 180.5 66.5 c 128,-1,36
 205 160 205 160 229.5 246.5 c 128,-1,37
 254 333 254 333 254 381 c 0,38,39
 254 524 254 524 90 553 c 1,40,-1
 99 642 l 1,41,42
 213 661 213 661 265 724 c 128,-1,43
 317 787 317 787 317 908 c 0,44,45
 317 941 317 941 313 1028.5 c 128,-1,46
 309 1116 309 1116 309 1151 c 0,47,48
 309 1502 309 1502 608 1502 c 0,0,1
EndSplineSet
EndChar

StartChar: bar
Encoding: 124 124 95
Width: 720
GlyphClass: 2
Flags: W
LayerCount: 2
Fore
SplineSet
587 1817 m 1,0,-1
 442 661 l 1,1,-1
 289 -594 l 1,2,-1
 168 -601 l 1,3,-1
 156 -582 l 1,4,-1
 307 650 l 1,5,-1
 451 1817 l 1,6,-1
 576 1828 l 1,7,-1
 587 1817 l 1,0,-1
EndSplineSet
EndChar

StartChar: braceright
Encoding: 125 125 96
Width: 659
GlyphClass: 2
Flags: W
LayerCount: 2
Fore
SplineSet
71 -307 m 0,0,1
 23 -307 23 -307 -41 -291 c 1,2,-1
 -48 -278 l 1,3,-1
 -20 -181 l 1,4,5
 34 -193 34 -193 64 -193 c 0,6,7
 149 -193 149 -193 191.5 -135 c 128,-1,8
 234 -77 234 -77 234 48 c 0,9,10
 234 87 234 87 228.5 177 c 128,-1,11
 223 267 223 267 223 300 c 0,12,13
 223 515 223 515 409 594 c 1,14,-1
 411 601 l 1,15,16
 348 630 348 630 316 682.5 c 128,-1,17
 284 735 284 735 284 805 c 0,18,19
 284 857 284 857 309.5 941.5 c 128,-1,20
 335 1026 335 1026 360 1112.5 c 128,-1,21
 385 1199 385 1199 385 1254 c 0,22,23
 385 1390 385 1390 256 1390 c 0,24,25
 227 1390 227 1390 172 1379 c 1,26,-1
 165 1473 l 1,27,-1
 177 1486 l 1,28,29
 232 1502 232 1502 293 1502 c 0,30,31
 408 1502 408 1502 466.5 1447 c 128,-1,32
 525 1392 525 1392 525 1287 c 0,33,34
 525 1222 525 1222 500.5 1128.5 c 128,-1,35
 476 1035 476 1035 451.5 949 c 128,-1,36
 427 863 427 863 427 816 c 0,37,38
 427 743 427 743 467 700 c 128,-1,39
 507 657 507 657 591 642 c 1,40,-1
 580 553 l 1,41,42
 523 544 523 544 482.5 524 c 128,-1,43
 442 504 442 504 416 471.5 c 128,-1,44
 390 439 390 439 377.5 393.5 c 128,-1,45
 365 348 365 348 365 287 c 0,46,47
 365 255 365 255 367.5 168.5 c 128,-1,48
 370 82 370 82 370 44 c 0,49,50
 370 -136 370 -136 294.5 -221.5 c 128,-1,51
 219 -307 219 -307 71 -307 c 0,0,1
EndSplineSet
EndChar

StartChar: asciitilde
Encoding: 126 126 97
Width: 1100
GlyphClass: 2
Flags: W
LayerCount: 2
Fore
SplineSet
346 594 m 0,0,1
 335 594 335 594 322.5 589 c 128,-1,2
 310 584 310 584 293 571 c 128,-1,3
 276 558 276 558 263 547.5 c 128,-1,4
 250 537 250 537 224 514 c 128,-1,5
 198 491 198 491 181 477 c 1,6,-1
 160 477 l 1,7,-1
 122 536 l 1,8,-1
 122 556 l 1,9,-1
 305 718 l 1,10,-1
 330 729 l 1,11,12
 378 721 378 721 555.5 669 c 128,-1,13
 733 617 733 617 773 617 c 0,14,15
 789 617 789 617 813 631 c 128,-1,16
 837 645 837 645 856.5 661 c 128,-1,17
 876 677 876 677 917 713 c 0,18,19
 922 718 922 718 925 720.5 c 128,-1,20
 928 723 928 723 932.5 726.5 c 128,-1,21
 937 730 937 730 941 734 c 1,22,-1
 961 734 l 1,23,-1
 1000 674 l 1,24,-1
 998 656 l 1,25,-1
 814 488 l 1,26,-1
 792 484 l 1,27,28
 745 488 745 488 648 516 c 128,-1,29
 551 544 551 544 464 569 c 128,-1,30
 377 594 377 594 346 594 c 0,0,1
EndSplineSet
EndChar

StartChar: exclamdown
Encoding: 161 161 99
Width: 598
GlyphClass: 2
Flags: W
LayerCount: 2
Fore
SplineSet
342 869 m 0,0,1
 297 869 297 869 271 895 c 128,-1,2
 245 921 245 921 245 965 c 0,3,4
 245 1014 245 1014 273 1043.5 c 128,-1,5
 301 1073 301 1073 348 1073 c 0,6,7
 394 1073 394 1073 419.5 1046 c 128,-1,8
 445 1019 445 1019 445 972 c 0,9,10
 445 941 445 941 432.5 918 c 128,-1,11
 420 895 420 895 396.5 882 c 128,-1,12
 373 869 373 869 342 869 c 0,0,1
74 -429 m 1,13,-1
 243 567 l 1,14,-1
 348 578 l 1,15,-1
 365 556 l 1,16,-1
 243 -424 l 1,17,-1
 223 -445 l 1,18,-1
 90 -451 l 1,19,-1
 74 -429 l 1,13,-1
EndSplineSet
EndChar

StartChar: cent
Encoding: 162 162 100
Width: 891
GlyphClass: 2
Flags: W
LayerCount: 2
Fore
SplineSet
830 1090 m 1,0,-1
 792 979 l 1,1,-1
 759 972 l 1,2,3
 684 1039 684 1039 610 1046 c 1,4,-1
 470 218 l 1,5,6
 581 265 581 265 668 420 c 1,7,-1
 692 418 l 1,8,-1
 738 353 l 1,9,10
 694 283 694 283 648 234 c 128,-1,11
 602 185 602 185 555 154 c 128,-1,12
 508 123 508 123 451 103 c 1,13,-1
 388 -273 l 1,14,-1
 302 -273 l 1,15,-1
 291 -256 l 1,16,-1
 346 87 l 1,17,18
 297 96 297 96 260 111.5 c 128,-1,19
 223 127 223 127 191 155 c 128,-1,20
 159 183 159 183 139 223.5 c 128,-1,21
 119 264 119 264 107.5 325 c 128,-1,22
 96 386 96 386 96 466 c 0,23,24
 96 594 96 594 121.5 704.5 c 128,-1,25
 147 815 147 815 198 905.5 c 128,-1,26
 249 996 249 996 331 1058 c 128,-1,27
 413 1120 413 1120 521 1145 c 1,28,-1
 580 1495 l 1,29,-1
 665 1495 l 1,30,-1
 681 1477 l 1,31,-1
 628 1158 l 1,32,-1
 661 1158 l 1,33,-1
 816 1112 l 1,34,-1
 830 1090 l 1,0,-1
232 488 m 0,35,36
 232 396 232 396 247 335.5 c 128,-1,37
 262 275 262 275 291.5 244 c 128,-1,38
 321 213 321 213 365 206 c 1,39,-1
 503 1035 l 1,40,41
 375 997 375 997 303.5 853.5 c 128,-1,42
 232 710 232 710 232 488 c 0,35,36
EndSplineSet
EndChar

StartChar: sterling
Encoding: 163 163 101
Width: 956
GlyphClass: 2
Flags: W
LayerCount: 2
Fore
SplineSet
707 1360 m 0,0,1
 822 1360 822 1360 948 1319 c 1,2,-1
 922 1188 l 1,3,-1
 911 1177 l 1,4,5
 801 1248 801 1248 685 1248 c 0,6,7
 579 1248 579 1248 517 1188 c 128,-1,8
 455 1128 455 1128 440 1011 c 1,9,-1
 411 768 l 1,10,-1
 704 768 l 1,11,-1
 709 757 l 1,12,-1
 688 670 l 1,13,-1
 399 670 l 1,14,-1
 361 365 l 2,15,16
 342 207 342 207 239 131 c 1,17,-1
 239 124 l 1,18,-1
 622 124 l 1,19,-1
 825 138 l 1,20,-1
 832 124 l 1,21,-1
 803 -4 l 1,22,-1
 582 0 l 1,23,-1
 11 0 l 1,24,-1
 2 13 l 1,25,-1
 20 103 l 1,26,27
 105 118 105 118 156 180.5 c 128,-1,28
 207 243 207 243 218 348 c 1,29,-1
 256 670 l 1,30,-1
 94 670 l 1,31,-1
 87 683 l 1,32,-1
 108 768 l 1,33,-1
 269 768 l 1,34,-1
 296 991 l 2,35,36
 317 1170 317 1170 423 1265 c 128,-1,37
 529 1360 529 1360 707 1360 c 0,0,1
EndSplineSet
EndChar

StartChar: currency
Encoding: 164 164 102
Width: 999
GlyphClass: 2
Flags: W
LayerCount: 2
Fore
SplineSet
998 1173 m 1,0,-1
 993 1151 l 1,1,-1
 823 1007 l 1,2,3
 865 946 865 946 865 853 c 0,4,5
 865 736 865 736 780 644 c 1,6,-1
 917 500 l 1,7,-1
 917 482 l 1,8,-1
 832 401 l 1,9,-1
 814 403 l 1,10,-1
 685 558 l 1,11,12
 594 493 594 493 495 493 c 0,13,14
 398 493 398 493 324 556 c 1,15,-1
 160 399 l 1,16,-1
 142 401 l 1,17,-1
 71 475 l 1,18,-1
 78 495 l 1,19,-1
 248 637 l 1,20,21
 204 697 204 697 204 794 c 0,22,23
 204 902 204 902 291 1005 c 1,24,-1
 153 1147 l 1,25,-1
 156 1167 l 1,26,-1
 239 1243 l 1,27,-1
 256 1243 l 1,28,-1
 385 1088 l 1,29,30
 467 1149 467 1149 576 1149 c 0,31,32
 678 1149 678 1149 746 1092 c 1,33,-1
 908 1245 l 1,34,-1
 928 1245 l 1,35,-1
 998 1173 l 1,0,-1
564 1048 m 0,36,37
 498 1048 498 1048 438.5 1015 c 128,-1,38
 379 982 379 982 343 924 c 128,-1,39
 307 866 307 866 307 799 c 0,40,41
 307 712 307 712 364 654 c 128,-1,42
 421 596 421 596 507 596 c 0,43,44
 576 596 576 596 635 629 c 128,-1,45
 694 662 694 662 729 720 c 128,-1,46
 764 778 764 778 764 847 c 0,47,48
 764 933 764 933 707.5 990.5 c 128,-1,49
 651 1048 651 1048 564 1048 c 0,36,37
EndSplineSet
EndChar

StartChar: yen
Encoding: 165 165 103
Width: 1184
GlyphClass: 2
Flags: W
LayerCount: 2
Fore
SplineSet
1112 672 m 1,0,-1
 1121 663 l 1,1,-1
 1103 582 l 1,2,-1
 757 582 l 1,3,-1
 626 396 l 1,4,-1
 622 367 l 1,5,-1
 1073 367 l 1,6,-1
 1083 355 l 1,7,-1
 1066 280 l 1,8,-1
 610 280 l 1,9,-1
 578 0 l 1,10,-1
 438 0 l 1,11,-1
 479 280 l 1,12,-1
 66 280 l 1,13,-1
 57 289 l 1,14,-1
 74 367 l 1,15,-1
 491 367 l 1,16,-1
 493 409 l 1,17,-1
 422 582 l 1,18,-1
 103 582 l 1,19,-1
 96 596 l 1,20,-1
 112 672 l 1,21,-1
 385 672 l 1,22,-1
 195 1140 l 1,23,-1
 348 1140 l 1,24,-1
 365 1076 l 1,25,-1
 578 564 l 1,26,-1
 589 564 l 1,27,-1
 956 1071 l 1,28,-1
 993 1140 l 1,29,-1
 1145 1140 l 1,30,-1
 819 672 l 1,31,-1
 1112 672 l 1,0,-1
EndSplineSet
EndChar

StartChar: brokenbar
Encoding: 166 166 104
Width: 720
GlyphClass: 2
Flags: W
LayerCount: 2
Fore
SplineSet
587 1817 m 1,0,-1
 468 853 l 1,1,-1
 346 840 l 1,2,-1
 333 853 l 1,3,-1
 451 1817 l 1,4,-1
 576 1828 l 1,5,-1
 587 1817 l 1,0,-1
405 348 m 1,6,-1
 289 -594 l 1,7,-1
 170 -601 l 1,8,-1
 156 -582 l 1,9,-1
 273 353 l 1,10,-1
 392 367 l 1,11,-1
 405 348 l 1,6,-1
EndSplineSet
EndChar

StartChar: section
Encoding: 167 167 105
Width: 963
GlyphClass: 2
Flags: W
LayerCount: 2
Fore
SplineSet
647 1363 m 0,0,1
 557 1363 557 1363 495 1308 c 128,-1,2
 433 1253 433 1253 433 1188 c 0,3,4
 433 1150 433 1150 457.5 1112.5 c 128,-1,5
 482 1075 482 1075 521.5 1042.5 c 128,-1,6
 561 1010 561 1010 608.5 976 c 128,-1,7
 656 942 656 942 703.5 904.5 c 128,-1,8
 751 867 751 867 790 826.5 c 128,-1,9
 829 786 829 786 853.5 733 c 128,-1,10
 878 680 878 680 878 622 c 0,11,12
 878 522 878 522 812 435.5 c 128,-1,13
 746 349 746 349 631 298 c 1,14,15
 720 205 720 205 720 99 c 0,16,17
 720 33 720 33 688 -28 c 128,-1,18
 656 -89 656 -89 601.5 -134.5 c 128,-1,19
 547 -180 547 -180 470 -207 c 128,-1,20
 393 -234 393 -234 307 -234 c 0,21,22
 236 -234 236 -234 155 -213 c 128,-1,23
 74 -192 74 -192 16 -158 c 1,24,-1
 53 -11 l 1,25,-1
 74 0 l 1,26,27
 190 -116 190 -116 337 -116 c 0,28,29
 388 -116 388 -116 432 -100.5 c 128,-1,30
 476 -85 476 -85 505.5 -59.5 c 128,-1,31
 535 -34 535 -34 552 -2 c 128,-1,32
 569 30 569 30 569 62 c 0,33,34
 569 97 569 97 549.5 131 c 128,-1,35
 530 165 530 165 498.5 193.5 c 128,-1,36
 467 222 467 222 426.5 253.5 c 128,-1,37
 386 285 386 285 344 313.5 c 128,-1,38
 302 342 302 342 261.5 377.5 c 128,-1,39
 221 413 221 413 189 449 c 128,-1,40
 157 485 157 485 138 532.5 c 128,-1,41
 119 580 119 580 119 631 c 0,42,43
 119 730 119 730 188.5 818.5 c 128,-1,44
 258 907 258 907 372 961 c 1,45,46
 284 1048 284 1048 284 1154 c 0,47,48
 284 1218 284 1218 315 1278.5 c 128,-1,49
 346 1339 346 1339 398.5 1383.5 c 128,-1,50
 451 1428 451 1428 526 1455 c 128,-1,51
 601 1482 601 1482 685 1482 c 0,52,53
 809 1482 809 1482 926 1431 c 1,54,-1
 888 1287 l 1,55,-1
 862 1280 l 1,56,57
 749 1363 749 1363 647 1363 c 0,0,1
729 578 m 0,58,59
 729 608 729 608 717 637.5 c 128,-1,60
 705 667 705 667 688.5 689.5 c 128,-1,61
 672 712 672 712 641 739.5 c 128,-1,62
 610 767 610 767 587 785 c 128,-1,63
 564 803 564 803 524 833 c 128,-1,64
 484 863 484 863 461 880 c 1,65,66
 366 837 366 837 318.5 783.5 c 128,-1,67
 271 730 271 730 271 672 c 0,68,69
 271 644 271 644 283.5 616 c 128,-1,70
 296 588 296 588 313 566 c 128,-1,71
 330 544 330 544 360.5 516.5 c 128,-1,72
 391 489 391 489 415.5 471 c 128,-1,73
 440 453 440 453 480 423.5 c 128,-1,74
 520 394 520 394 543 376 c 1,75,76
 729 455 729 455 729 578 c 0,58,59
EndSplineSet
EndChar

StartChar: dieresis
Encoding: 168 168 106
Width: 893
GlyphClass: 2
Flags: W
LayerCount: 2
Fore
SplineSet
374 1488 m 0,0,1
 416 1488 416 1488 441 1462 c 128,-1,2
 466 1436 466 1436 466 1394 c 0,3,4
 466 1372 466 1372 459 1352.5 c 128,-1,5
 452 1333 452 1333 439.5 1319.5 c 128,-1,6
 427 1306 427 1306 409 1298.5 c 128,-1,7
 391 1291 391 1291 370 1291 c 0,8,9
 325 1291 325 1291 300.5 1317 c 128,-1,10
 276 1343 276 1343 276 1388 c 0,11,12
 276 1418 276 1418 287.5 1441 c 128,-1,13
 299 1464 299 1464 321.5 1476 c 128,-1,14
 344 1488 344 1488 374 1488 c 0,0,1
741 1486 m 0,15,16
 782 1486 782 1486 806 1460.5 c 128,-1,17
 830 1435 830 1435 830 1392 c 0,18,19
 830 1362 830 1362 818 1339 c 128,-1,20
 806 1316 806 1316 784 1303.5 c 128,-1,21
 762 1291 762 1291 734 1291 c 0,22,23
 689 1291 689 1291 664.5 1316 c 128,-1,24
 640 1341 640 1341 640 1385 c 0,25,26
 640 1432 640 1432 667 1459 c 128,-1,27
 694 1486 694 1486 741 1486 c 0,15,16
EndSplineSet
EndChar

StartChar: copyright
Encoding: 169 169 107
Width: 1584
GlyphClass: 2
Flags: W
LayerCount: 2
Fore
SplineSet
810 1372 m 0,0,1
 960 1372 960 1372 1086 1321.5 c 128,-1,2
 1212 1271 1212 1271 1300 1180 c 128,-1,3
 1388 1089 1388 1089 1437 958.5 c 128,-1,4
 1486 828 1486 828 1486 672 c 128,-1,5
 1486 516 1486 516 1437 385.5 c 128,-1,6
 1388 255 1388 255 1300 164 c 128,-1,7
 1212 73 1212 73 1086 22.5 c 128,-1,8
 960 -28 960 -28 810 -28 c 0,9,10
 658 -28 658 -28 531.5 22.5 c 128,-1,11
 405 73 405 73 317 164 c 128,-1,12
 229 255 229 255 180 385.5 c 128,-1,13
 131 516 131 516 131 672 c 128,-1,14
 131 828 131 828 180 958.5 c 128,-1,15
 229 1089 229 1089 317 1180 c 128,-1,16
 405 1271 405 1271 531.5 1321.5 c 128,-1,17
 658 1372 658 1372 810 1372 c 0,0,1
810 1296 m 0,18,19
 630 1296 630 1296 493 1218.5 c 128,-1,20
 356 1141 356 1141 281 999 c 128,-1,21
 206 857 206 857 206 672 c 0,22,23
 206 533 206 533 249.5 417 c 128,-1,24
 293 301 293 301 371.5 219.5 c 128,-1,25
 450 138 450 138 562.5 93 c 128,-1,26
 675 48 675 48 810 48 c 0,27,28
 917 48 917 48 1010.5 77 c 128,-1,29
 1104 106 1104 106 1177.5 160.5 c 128,-1,30
 1251 215 1251 215 1303.5 290.5 c 128,-1,31
 1356 366 1356 366 1383.5 463.5 c 128,-1,32
 1411 561 1411 561 1411 672 c 0,33,34
 1411 857 1411 857 1336.5 999 c 128,-1,35
 1262 1141 1262 1141 1125 1218.5 c 128,-1,36
 988 1296 988 1296 810 1296 c 0,18,19
844 1066 m 0,37,38
 954 1066 954 1066 1057 1014 c 1,39,-1
 1033 915 l 1,40,-1
 1020 911 l 1,41,42
 944 963 944 963 840 963 c 0,43,44
 721 963 721 963 660 892.5 c 128,-1,45
 599 822 599 822 599 683 c 0,46,47
 599 540 599 540 660 466 c 128,-1,48
 721 392 721 392 838 392 c 0,49,50
 886 392 886 392 939.5 406.5 c 128,-1,51
 993 421 993 421 1035 447 c 1,52,-1
 1048 442 l 1,53,-1
 1039 342 l 1,54,55
 932 289 932 289 830 289 c 0,56,57
 654 289 654 289 564.5 388 c 128,-1,58
 475 487 475 487 475 674 c 0,59,60
 475 862 475 862 570.5 964 c 128,-1,61
 666 1066 666 1066 844 1066 c 0,37,38
EndSplineSet
EndChar

StartChar: ordfeminine
Encoding: 170 170 108
Width: 714
GlyphClass: 2
Flags: W
AnchorPoint: "Anchor-1" 0 0 basechar 0
AnchorPoint: "Anchor-0" 534 890 basechar 0
LayerCount: 2
Fore
SplineSet
725 1477 m 1,0,-1
 652 941 l 1,1,-1
 640 775 l 1,2,-1
 503 766 l 1,3,-1
 543 1079 l 1,4,-1
 525 1079 l 1,5,6
 426 882 426 882 305 764 c 1,7,-1
 280 764 l 1,8,9
 204 794 204 794 174 847 c 128,-1,10
 144 900 144 900 144 993 c 0,11,12
 144 1079 144 1079 166.5 1158 c 128,-1,13
 189 1237 189 1237 232 1303.5 c 128,-1,14
 275 1370 275 1370 343 1416.5 c 128,-1,15
 411 1463 411 1463 497 1480 c 1,16,-1
 507 1480 l 1,17,-1
 622 1464 l 1,18,-1
 709 1486 l 1,19,-1
 725 1477 l 1,0,-1
321 893 m 0,20,21
 335 893 335 893 370.5 934.5 c 128,-1,22
 406 976 406 976 460 1065 c 128,-1,23
 514 1154 514 1154 567 1266 c 1,24,-1
 573 1315 l 1,25,-1
 578 1360 l 1,26,-1
 479 1379 l 1,27,28
 416 1378 416 1378 368.5 1333 c 128,-1,29
 321 1288 321 1288 297 1213.5 c 128,-1,30
 273 1139 273 1139 273 1046 c 0,31,32
 273 1023 273 1023 275 1002.5 c 128,-1,33
 277 982 277 982 280 966.5 c 128,-1,34
 283 951 283 951 287 938.5 c 128,-1,35
 291 926 291 926 295 917.5 c 128,-1,36
 299 909 299 909 304 903.5 c 128,-1,37
 309 898 309 898 313 895.5 c 128,-1,38
 317 893 317 893 321 893 c 0,20,21
EndSplineSet
EndChar

StartChar: guillemetleft
Encoding: 171 171 109
Width: 904
GlyphClass: 2
Flags: W
LayerCount: 2
Fore
SplineSet
85 505 m 1,0,-1
 90 541 l 1,1,-1
 473 928 l 1,2,-1
 548 883 l 1,3,-1
 548 860 l 1,4,-1
 218 519 l 1,5,-1
 466 175 l 1,6,-1
 459 153 l 1,7,-1
 372 105 l 1,8,-1
 85 505 l 1,0,-1
461 505 m 1,9,-1
 466 541 l 1,10,-1
 849 928 l 1,11,-1
 924 883 l 1,12,-1
 924 860 l 1,13,-1
 594 519 l 1,14,-1
 842 175 l 1,15,-1
 834 153 l 1,16,-1
 748 105 l 1,17,-1
 461 505 l 1,9,-1
EndSplineSet
EndChar

StartChar: logicalnot
Encoding: 172 172 110
Width: 1100
GlyphClass: 2
Flags: W
LayerCount: 2
Fore
SplineSet
987 654 m 1,0,-1
 924 140 l 1,1,-1
 816 131 l 1,2,-1
 801 144 l 1,3,-1
 851 548 l 1,4,-1
 83 548 l 1,5,-1
 74 562 l 1,6,-1
 94 670 l 1,7,-1
 974 670 l 1,8,-1
 987 654 l 1,0,-1
EndSplineSet
EndChar

StartChar: softhyphen
Encoding: 173 173 111
Width: 705
GlyphClass: 2
Flags: W
LayerCount: 2
Fore
SplineSet
656 670 m 1,0,-1
 642 560 l 1,1,-1
 78 482 l 1,2,-1
 64 497 l 1,3,-1
 78 608 l 1,4,-1
 642 685 l 1,5,-1
 656 670 l 1,0,-1
EndSplineSet
EndChar

StartChar: registered
Encoding: 174 174 112
Width: 1006
GlyphClass: 2
Flags: W
LayerCount: 2
Fore
SplineSet
505 1611 m 256,0,1
 692 1611 692 1611 806 1497 c 128,-1,2
 920 1383 920 1383 920 1197 c 0,3,4
 920 1073 920 1073 868.5 978 c 128,-1,5
 817 883 817 883 723 831.5 c 128,-1,6
 629 780 629 780 505 780 c 0,7,8
 317 780 317 780 202 894.5 c 128,-1,9
 87 1009 87 1009 87 1197 c 0,10,11
 87 1383 87 1383 202.5 1497 c 128,-1,12
 318 1611 318 1611 505 1611 c 256,0,1
505 838 m 0,13,14
 667 838 667 838 764.5 936.5 c 128,-1,15
 862 1035 862 1035 862 1197 c 0,16,17
 862 1303 862 1303 818 1383 c 128,-1,18
 774 1463 774 1463 693 1506.5 c 128,-1,19
 612 1550 612 1550 505 1550 c 0,20,21
 345 1550 345 1550 247 1453.5 c 128,-1,22
 149 1357 149 1357 149 1197 c 0,23,24
 149 1090 149 1090 193.5 1008.5 c 128,-1,25
 238 927 238 927 319 882.5 c 128,-1,26
 400 838 400 838 505 838 c 0,13,14
668 1300 m 0,27,28
 668 1258 668 1258 643.5 1223 c 128,-1,29
 619 1188 619 1188 576 1167 c 1,30,31
 627 1090 627 1090 696 1005 c 1,32,-1
 696 998 l 1,33,34
 667 987 667 987 617 982 c 1,35,-1
 608 989 l 1,36,37
 565 1050 565 1050 510 1147 c 1,38,-1
 431 1147 l 1,39,-1
 431 1131 l 1,40,-1
 433 989 l 1,41,-1
 355 989 l 1,42,-1
 357 1121 l 1,43,-1
 355 1434 l 1,44,-1
 519 1434 l 2,45,46
 567 1434 567 1434 600 1418.5 c 128,-1,47
 633 1403 633 1403 650.5 1373.5 c 128,-1,48
 668 1344 668 1344 668 1300 c 0,27,28
433 1213 m 1,49,-1
 514 1208 l 1,50,51
 550 1220 550 1220 567.5 1240.5 c 128,-1,52
 585 1261 585 1261 585 1294 c 0,53,54
 585 1369 585 1369 495 1372 c 1,55,-1
 436 1370 l 1,56,-1
 433 1213 l 1,49,-1
EndSplineSet
EndChar

StartChar: macron
Encoding: 175 175 113
Width: 893
GlyphClass: 2
Flags: W
LayerCount: 2
Fore
SplineSet
890 1438 m 1,0,-1
 878 1335 l 1,1,-1
 230 1335 l 1,2,-1
 216 1348 l 1,3,-1
 227 1449 l 1,4,-1
 876 1449 l 1,5,-1
 890 1438 l 1,0,-1
EndSplineSet
EndChar

StartChar: degree
Encoding: 176 176 114
Width: 674
GlyphClass: 2
Flags: W
LayerCount: 2
Fore
SplineSet
455 1484 m 0,0,1
 565 1484 565 1484 637 1411 c 128,-1,2
 709 1338 709 1338 709 1230 c 0,3,4
 709 1144 709 1144 664.5 1071.5 c 128,-1,5
 620 999 620 999 545 957 c 128,-1,6
 470 915 470 915 385 915 c 0,7,8
 312 915 312 915 253 948.5 c 128,-1,9
 194 982 194 982 161.5 1040 c 128,-1,10
 129 1098 129 1098 129 1169 c 0,11,12
 129 1255 129 1255 174 1327.5 c 128,-1,13
 219 1400 219 1400 294 1442 c 128,-1,14
 369 1484 369 1484 455 1484 c 0,0,1
442 1397 m 0,15,16
 354 1397 354 1397 285 1332.5 c 128,-1,17
 216 1268 216 1268 216 1182 c 0,18,19
 216 1107 216 1107 267.5 1053.5 c 128,-1,20
 319 1000 319 1000 394 1000 c 0,21,22
 484 1000 484 1000 553 1065.5 c 128,-1,23
 622 1131 622 1131 622 1217 c 0,24,25
 622 1292 622 1292 570.5 1344.5 c 128,-1,26
 519 1397 519 1397 442 1397 c 0,15,16
EndSplineSet
EndChar

StartChar: plusminus
Encoding: 177 177 115
Width: 1095
GlyphClass: 2
Flags: W
LayerCount: 2
Fore
SplineSet
676 1073 m 1,0,-1
 626 670 l 1,1,-1
 1028 670 l 1,2,-1
 1042 656 l 1,3,-1
 1018 548 l 1,4,-1
 610 548 l 1,5,-1
 562 140 l 1,6,-1
 451 131 l 1,7,-1
 438 144 l 1,8,-1
 488 548 l 1,9,-1
 85 548 l 1,10,-1
 74 562 l 1,11,-1
 99 670 l 1,12,-1
 503 670 l 1,13,-1
 553 1079 l 1,14,-1
 663 1088 l 1,15,-1
 676 1073 l 1,0,-1
945 -96 m 1,16,-1
 934 -204 l 1,17,-1
 0 -204 l 1,18,-1
 -11 -193 l 1,19,-1
 -2 -85 l 1,20,-1
 931 -85 l 1,21,-1
 945 -96 l 1,16,-1
EndSplineSet
EndChar

StartChar: twosuperior
Encoding: 178 178 116
Width: 797
GlyphClass: 2
Flags: W
LayerCount: 2
Fore
SplineSet
473 1613 m 0,0,1
 572 1613 572 1613 639.5 1562.5 c 128,-1,2
 707 1512 707 1512 707 1431 c 0,3,4
 707 1361 707 1361 653 1283 c 128,-1,5
 599 1205 599 1205 464 1062 c 1,6,-1
 276 860 l 1,7,-1
 278 856 l 1,8,-1
 578 856 l 1,9,-1
 727 862 l 1,10,-1
 731 849 l 1,11,-1
 704 734 l 1,12,-1
 521 741 l 1,13,-1
 140 741 l 1,14,-1
 78 738 l 1,15,-1
 68 746 l 1,16,-1
 78 832 l 1,17,-1
 339 1096 l 2,18,19
 390 1149 390 1149 415 1175.5 c 128,-1,20
 440 1202 440 1202 473 1239.5 c 128,-1,21
 506 1277 506 1277 520 1300 c 128,-1,22
 534 1323 534 1323 545 1349.5 c 128,-1,23
 556 1376 556 1376 556 1399 c 0,24,25
 556 1440 556 1440 525.5 1467.5 c 128,-1,26
 495 1495 495 1495 440 1495 c 0,27,28
 382 1495 382 1495 318.5 1464 c 128,-1,29
 255 1433 255 1433 197 1376 c 1,30,-1
 181 1376 l 1,31,-1
 170 1486 l 1,32,33
 324 1613 324 1613 473 1613 c 0,0,1
EndSplineSet
EndChar

StartChar: threesuperior
Encoding: 179 179 117
Width: 703
GlyphClass: 2
Flags: W
LayerCount: 2
Fore
SplineSet
451 1615 m 0,0,1
 554 1615 554 1615 625 1563.5 c 128,-1,2
 696 1512 696 1512 696 1431 c 0,3,4
 696 1366 696 1366 650.5 1305.5 c 128,-1,5
 605 1245 605 1245 521 1211 c 1,6,-1
 519 1204 l 1,7,8
 676 1162 676 1162 676 1016 c 0,9,10
 676 933 676 933 626.5 868 c 128,-1,11
 577 803 577 803 487 767 c 128,-1,12
 397 731 397 731 282 731 c 0,13,14
 198 731 198 731 129 748 c 1,15,-1
 133 853 l 1,16,-1
 144 860 l 1,17,18
 250 842 250 842 298 842 c 0,19,20
 405 842 405 842 470.5 888 c 128,-1,21
 536 934 536 934 536 1009 c 0,22,23
 536 1129 536 1129 372 1136 c 1,24,-1
 278 1136 l 1,25,-1
 269 1145 l 1,26,-1
 284 1243 l 1,27,-1
 353 1243 l 2,28,29
 396 1243 396 1243 440 1264 c 128,-1,30
 484 1285 484 1285 514.5 1323.5 c 128,-1,31
 545 1362 545 1362 545 1406 c 256,32,33
 545 1450 545 1450 513.5 1475 c 128,-1,34
 482 1500 482 1500 429 1500 c 0,35,36
 341 1500 341 1500 234 1427 c 1,37,-1
 218 1427 l 1,38,-1
 206 1525 l 1,39,40
 274 1572 274 1572 331 1593.5 c 128,-1,41
 388 1615 388 1615 451 1615 c 0,0,1
EndSplineSet
EndChar

StartChar: acute
Encoding: 180 180 118
Width: 893
GlyphClass: 2
Flags: W
LayerCount: 2
Fore
SplineSet
716 1592 m 1,0,-1
 780 1502 l 1,1,-1
 775 1482 l 1,2,3
 537 1294 537 1294 390 1191 c 1,4,-1
 372 1193 l 1,5,-1
 324 1261 l 1,6,7
 537 1438 537 1438 696 1594 c 1,8,-1
 716 1592 l 1,0,-1
EndSplineSet
EndChar

StartChar: micro
Encoding: 181 181 119
Width: 1100
GlyphClass: 2
Flags: W
LayerCount: 2
Fore
SplineSet
987 1060 m 1,0,-1
 874 250 l 1,1,-1
 862 7 l 1,2,-1
 698 -9 l 1,3,-1
 771 519 l 1,4,-1
 753 519 l 1,5,6
 634 317 634 317 536.5 191.5 c 128,-1,7
 439 66 439 66 337 -11 c 1,8,-1
 312 -11 l 1,9,10
 279 -4 279 -4 256 9 c 1,11,-1
 230 -179 l 1,12,-1
 218 -429 l 1,13,-1
 53 -445 l 1,14,-1
 230 823 l 1,15,-1
 239 1046 l 1,16,-1
 401 1060 l 1,17,-1
 291 256 l 1,18,-1
 287 230 l 1,19,20
 288 198 288 198 303 183 c 128,-1,21
 318 168 318 168 339 168 c 0,22,23
 407 168 407 168 534.5 343.5 c 128,-1,24
 662 519 662 519 814 844 c 1,25,-1
 825 1046 l 1,26,-1
 987 1060 l 1,0,-1
EndSplineSet
EndChar

StartChar: paragraph
Encoding: 182 182 120
Width: 1109
GlyphClass: 2
Flags: W
LayerCount: 2
Fore
SplineSet
1160 1452 m 1,0,-1
 1133 1333 l 1,1,-1
 963 1333 l 1,2,-1
 844 416 l 1,3,-1
 830 296 l 1,4,5
 810 143 810 143 714 31.5 c 128,-1,6
 618 -80 618 -80 416 -175 c 1,7,-1
 372 -96 l 1,8,-1
 376 -76 l 1,9,10
 516 3 516 3 586 89.5 c 128,-1,11
 656 176 656 176 668 284 c 1,12,-1
 681 388 l 1,13,-1
 794 1335 l 1,14,-1
 659 1335 l 1,15,16
 503 1322 503 1322 415.5 1224 c 128,-1,17
 328 1126 328 1126 328 968 c 0,18,19
 328 841 328 841 398 754.5 c 128,-1,20
 468 668 468 668 601 631 c 1,21,-1
 532 530 l 1,22,23
 347 568 347 568 248 677 c 128,-1,24
 149 786 149 786 149 956 c 0,25,26
 149 1195 149 1195 304 1331.5 c 128,-1,27
 459 1468 459 1468 725 1468 c 2,28,-1
 1149 1468 l 1,29,-1
 1160 1452 l 1,0,-1
EndSplineSet
EndChar

StartChar: periodcentered
Encoding: 183 183 121
Width: 527
GlyphClass: 2
Flags: W
LayerCount: 2
Fore
SplineSet
273 663 m 0,0,1
 295 663 295 663 313 656.5 c 128,-1,2
 331 650 331 650 343 637 c 128,-1,3
 355 624 355 624 361 605.5 c 128,-1,4
 367 587 367 587 367 564 c 0,5,6
 367 533 367 533 355 509 c 128,-1,7
 343 485 343 485 320 472 c 128,-1,8
 297 459 297 459 267 459 c 0,9,10
 221 459 221 459 194.5 486.5 c 128,-1,11
 168 514 168 514 168 560 c 128,-1,12
 168 606 168 606 197 634.5 c 128,-1,13
 226 663 226 663 273 663 c 0,0,1
EndSplineSet
EndChar

StartChar: cedilla
Encoding: 184 184 122
Width: 893
GlyphClass: 2
Flags: W
LayerCount: 2
Fore
SplineSet
351 -119 m 1,0,-1
 427 -165 l 1,1,2
 514 -212 514 -212 514 -291 c 0,3,4
 514 -358 514 -358 463 -399 c 128,-1,5
 412 -440 412 -440 333 -440 c 0,6,7
 234 -440 234 -440 168 -370 c 1,8,-1
 186 -282 l 1,9,-1
 197 -278 l 1,10,11
 217 -301 217 -301 234.5 -315.5 c 128,-1,12
 252 -330 252 -330 274.5 -339 c 128,-1,13
 297 -348 297 -348 324 -348 c 0,14,15
 358 -348 358 -348 378.5 -332.5 c 128,-1,16
 399 -317 399 -317 399 -287 c 0,17,18
 399 -266 399 -266 386.5 -253.5 c 128,-1,19
 374 -241 374 -241 348 -230 c 1,20,-1
 241 -162 l 1,21,-1
 296 44 l 1,22,-1
 399 44 l 1,23,-1
 351 -119 l 1,0,-1
EndSplineSet
EndChar

StartChar: onesuperior
Encoding: 185 185 123
Width: 589
GlyphClass: 2
Flags: W
LayerCount: 2
Fore
SplineSet
516 1602 m 1,0,-1
 445 1046 l 1,1,-1
 411 741 l 1,2,-1
 267 741 l 1,3,-1
 305 1030 l 1,4,-1
 355 1454 l 1,5,-1
 151 1403 l 1,6,-1
 142 1413 l 1,7,-1
 156 1525 l 1,8,-1
 500 1617 l 1,9,-1
 516 1602 l 1,0,-1
EndSplineSet
EndChar

StartChar: ordmasculine
Encoding: 186 186 124
Width: 678
GlyphClass: 2
Flags: W
LayerCount: 2
Fore
SplineSet
488 1484 m 1,0,-1
 505 1484 l 1,1,2
 679 1456 679 1456 679 1250 c 0,3,4
 679 1034 679 1034 586.5 902 c 128,-1,5
 494 770 494 770 333 762 c 1,6,-1
 319 764 l 1,7,8
 234 772 234 772 188 832.5 c 128,-1,9
 142 893 142 893 142 1005 c 0,10,11
 142 1213 142 1213 236 1345 c 128,-1,12
 330 1477 330 1477 488 1484 c 1,0,-1
468 1381 m 0,13,14
 374 1381 374 1381 323.5 1279.5 c 128,-1,15
 273 1178 273 1178 273 1005 c 0,16,17
 273 929 273 929 293 895.5 c 128,-1,18
 313 862 313 862 357 862 c 0,19,20
 449 862 449 862 497 962 c 128,-1,21
 545 1062 545 1062 545 1239 c 0,22,23
 545 1314 545 1314 527.5 1347.5 c 128,-1,24
 510 1381 510 1381 468 1381 c 0,13,14
EndSplineSet
EndChar

StartChar: guillemetright
Encoding: 187 187 125
Width: 893
GlyphClass: 2
Flags: W
LayerCount: 2
Fore
SplineSet
451 532 m 1,0,-1
 447 495 l 1,1,-1
 64 108 l 1,2,-1
 -13 153 l 1,3,-1
 -11 177 l 1,4,-1
 317 519 l 1,5,-1
 71 862 l 1,6,-1
 78 883 l 1,7,-1
 165 931 l 1,8,-1
 451 532 l 1,0,-1
828 532 m 1,9,-1
 823 495 l 1,10,-1
 442 108 l 1,11,-1
 365 153 l 1,12,-1
 365 177 l 1,13,-1
 696 519 l 1,14,-1
 447 862 l 1,15,-1
 455 883 l 1,16,-1
 541 931 l 1,17,-1
 828 532 l 1,9,-1
EndSplineSet
EndChar

StartChar: onequarter
Encoding: 188 188 126
Width: 1600
GlyphClass: 2
Flags: W
LayerCount: 2
Fore
SplineSet
1394 1480 m 1,0,-1
 101 -208 l 1,1,-1
 32 -165 l 1,2,-1
 22 -138 l 1,3,-1
 1317 1552 l 1,4,-1
 1385 1510 l 1,5,-1
 1394 1480 l 1,0,-1
133 1269 m 1,6,-1
 124 1278 l 1,7,-1
 138 1390 l 1,8,-1
 482 1482 l 1,9,-1
 497 1466 l 1,10,-1
 427 911 l 1,11,-1
 392 606 l 1,12,-1
 248 606 l 1,13,-1
 287 895 l 1,14,-1
 337 1319 l 1,15,-1
 133 1269 l 1,6,-1
1480 232 m 1,16,-1
 1342 236 l 1,17,-1
 1322 11 l 1,18,-1
 1312 0 l 1,19,-1
 1195 -7 l 1,20,-1
 1188 2 l 1,21,-1
 1221 236 l 1,22,-1
 948 236 l 1,23,-1
 834 232 l 1,24,-1
 825 245 l 1,25,-1
 838 337 l 1,26,-1
 1287 865 l 1,27,-1
 1420 865 l 1,28,-1
 1353 346 l 1,29,-1
 1491 346 l 1,30,-1
 1500 333 l 1,31,-1
 1480 232 l 1,16,-1
970 346 m 1,32,-1
 1236 346 l 1,33,-1
 1282 700 l 1,34,-1
 1271 700 l 1,35,-1
 970 346 l 1,32,-1
EndSplineSet
EndChar

StartChar: onehalf
Encoding: 189 189 127
Width: 1628
GlyphClass: 2
Flags: W
LayerCount: 2
Fore
SplineSet
1385 1510 m 1,0,-1
 1394 1480 l 1,1,-1
 101 -208 l 1,2,-1
 32 -165 l 1,3,-1
 22 -138 l 1,4,-1
 1317 1552 l 1,5,-1
 1385 1510 l 1,0,-1
497 1466 m 1,6,-1
 427 911 l 1,7,-1
 392 606 l 1,8,-1
 248 606 l 1,9,-1
 287 895 l 1,10,-1
 337 1319 l 1,11,-1
 133 1269 l 1,12,-1
 124 1278 l 1,13,-1
 138 1390 l 1,14,-1
 482 1482 l 1,15,-1
 497 1466 l 1,6,-1
1261 871 m 0,16,17
 1326 871 1326 871 1379 849 c 128,-1,18
 1432 827 1432 827 1463.5 785 c 128,-1,19
 1495 743 1495 743 1495 690 c 0,20,21
 1495 653 1495 653 1481.5 615.5 c 128,-1,22
 1468 578 1468 578 1433.5 531 c 128,-1,23
 1399 484 1399 484 1360 439 c 128,-1,24
 1321 394 1321 394 1252 321 c 2,25,-1
 1064 119 l 1,26,-1
 1066 114 l 1,27,-1
 1368 114 l 1,28,-1
 1516 122 l 1,29,-1
 1521 108 l 1,30,-1
 1493 -7 l 1,31,-1
 1309 0 l 1,32,-1
 928 0 l 1,33,-1
 867 -2 l 1,34,-1
 858 4 l 1,35,-1
 867 92 l 1,36,-1
 1129 355 l 1,37,38
 1190 418 1190 418 1221.5 452.5 c 128,-1,39
 1253 487 1253 487 1285.5 528 c 128,-1,40
 1318 569 1318 569 1331 599.5 c 128,-1,41
 1344 630 1344 630 1344 659 c 0,42,43
 1344 700 1344 700 1314.5 727.5 c 128,-1,44
 1285 755 1285 755 1230 755 c 0,45,46
 1172 755 1172 755 1108.5 723 c 128,-1,47
 1045 691 1045 691 987 635 c 1,48,-1
 970 635 l 1,49,-1
 959 746 l 1,50,51
 1111 871 1111 871 1261 871 c 0,16,17
EndSplineSet
EndChar

StartChar: threequarters
Encoding: 190 190 128
Width: 1685
GlyphClass: 2
Flags: W
LayerCount: 2
Fore
SplineSet
1480 1480 m 1,0,-1
 186 -208 l 1,1,-1
 116 -165 l 1,2,-1
 108 -138 l 1,3,-1
 1401 1552 l 1,4,-1
 1471 1510 l 1,5,-1
 1480 1480 l 1,0,-1
640 880 m 0,6,7
 640 754 640 754 529.5 675 c 128,-1,8
 419 596 419 596 245 596 c 0,9,10
 161 596 161 596 92 613 c 1,11,-1
 96 718 l 1,12,-1
 108 725 l 1,13,14
 213 707 213 707 261 707 c 0,15,16
 368 707 368 707 434 752.5 c 128,-1,17
 500 798 500 798 500 874 c 0,18,19
 500 993 500 993 335 1000 c 1,20,-1
 241 1000 l 1,21,-1
 232 1009 l 1,22,-1
 248 1108 l 1,23,-1
 317 1108 l 2,24,25
 360 1108 360 1108 404.5 1129 c 128,-1,26
 449 1150 449 1150 479.5 1188.5 c 128,-1,27
 510 1227 510 1227 510 1271 c 128,-1,28
 510 1315 510 1315 478 1340 c 128,-1,29
 446 1365 446 1365 392 1365 c 0,30,31
 306 1365 306 1365 197 1291 c 1,32,-1
 181 1291 l 1,33,-1
 170 1390 l 1,34,35
 239 1436 239 1436 295.5 1458 c 128,-1,36
 352 1480 352 1480 416 1480 c 0,37,38
 518 1480 518 1480 588.5 1428.5 c 128,-1,39
 659 1377 659 1377 659 1296 c 0,40,41
 659 1254 659 1254 640 1213 c 128,-1,42
 621 1172 621 1172 580.5 1136 c 128,-1,43
 540 1100 540 1100 484 1076 c 1,44,-1
 482 1068 l 1,45,46
 640 1026 640 1026 640 880 c 0,6,7
1565 232 m 1,47,-1
 1427 236 l 1,48,-1
 1406 11 l 1,49,-1
 1397 0 l 1,50,-1
 1280 -7 l 1,51,-1
 1273 2 l 1,52,-1
 1305 236 l 1,53,-1
 1033 236 l 1,54,-1
 920 232 l 1,55,-1
 911 245 l 1,56,-1
 922 337 l 1,57,-1
 1372 865 l 1,58,-1
 1504 865 l 1,59,-1
 1438 346 l 1,60,-1
 1576 346 l 1,61,-1
 1585 333 l 1,62,-1
 1565 232 l 1,47,-1
1055 346 m 1,63,-1
 1322 346 l 1,64,-1
 1368 700 l 1,65,-1
 1355 700 l 1,66,-1
 1055 346 l 1,63,-1
EndSplineSet
EndChar

StartChar: questiondown
Encoding: 191 191 129
Width: 758
GlyphClass: 2
Flags: W
LayerCount: 2
Fore
SplineSet
486 869 m 0,0,1
 442 869 442 869 416 895 c 128,-1,2
 390 921 390 921 390 965 c 0,3,4
 390 1014 390 1014 417.5 1043.5 c 128,-1,5
 445 1073 445 1073 491 1073 c 0,6,7
 538 1073 538 1073 563.5 1046 c 128,-1,8
 589 1019 589 1019 589 972 c 0,9,10
 589 926 589 926 561.5 897.5 c 128,-1,11
 534 869 534 869 486 869 c 0,0,1
491 -442 m 1,12,-1
 470 -455 l 1,13,14
 301 -445 301 -445 182 -402.5 c 128,-1,15
 63 -360 63 -360 2 -289 c 128,-1,16
 -59 -218 -59 -218 -59 -122 c 256,17,18
 -59 -26 -59 -26 1.5 60.5 c 128,-1,19
 62 147 62 147 172 213 c 2,20,-1
 381 339 l 1,21,-1
 385 348 l 1,22,-1
 401 571 l 1,23,-1
 525 585 l 1,24,-1
 536 569 l 1,25,-1
 523 307 l 1,26,-1
 510 284 l 1,27,-1
 273 151 l 2,28,29
 191 106 191 106 146 45 c 128,-1,30
 101 -16 101 -16 101 -87 c 0,31,32
 101 -302 101 -302 525 -328 c 1,33,-1
 536 -346 l 1,34,-1
 491 -442 l 1,12,-1
EndSplineSet
EndChar

StartChar: Agrave
Encoding: 192 192 130
Width: 1256
GlyphClass: 2
Flags: W
AnchorPoint: "Anchor-1" 0 0 basechar 0
AnchorPoint: "Anchor-0" 754 1468 basechar 0
LayerCount: 2
Fore
SplineSet
1016 1668 m 1,0,-1
 996 1659 l 1,1,2
 737 1767 737 1767 553 1856 c 1,3,-1
 545 1874 l 1,4,-1
 589 1975 l 1,5,-1
 610 1979 l 1,6,7
 778 1880 778 1880 1048 1746 c 1,8,-1
 1016 1668 l 1,0,-1
1149 0 m 1,9,-1
 974 0 l 1,10,-1
 959 142 l 1,11,-1
 911 405 l 1,12,-1
 599 411 l 1,13,-1
 317 405 l 1,14,-1
 197 151 l 1,15,-1
 142 0 l 1,16,-1
 -30 0 l 1,17,-1
 668 1468 l 1,18,-1
 865 1468 l 1,19,-1
 1149 0 l 1,9,-1
883 553 m 1,20,-1
 748 1289 l 1,21,-1
 731 1289 l 1,22,-1
 385 553 l 1,23,-1
 631 551 l 1,24,-1
 883 553 l 1,20,-1
EndSplineSet
Position2: "'cpsp' Capital Spacing lookup 0 subtable" dx=16 dy=0 dh=33 dv=0
EndChar

StartChar: Aacute
Encoding: 193 193 131
Width: 1256
GlyphClass: 2
Flags: W
AnchorPoint: "Anchor-1" 0 0 basechar 0
AnchorPoint: "Anchor-0" 754 1468 basechar 0
LayerCount: 2
Fore
SplineSet
601 1661 m 1,0,-1
 569 1738 l 1,1,2
 804 1855 804 1855 1007 1975 c 1,3,-1
 1025 1970 l 1,4,-1
 1071 1869 l 1,5,-1
 1064 1849 l 1,6,7
 1010 1823 1010 1823 946.5 1794.5 c 128,-1,8
 883 1766 883 1766 844 1748.5 c 128,-1,9
 805 1731 805 1731 727 1697.5 c 128,-1,10
 649 1664 649 1664 622 1652 c 1,11,-1
 601 1661 l 1,0,-1
1149 0 m 1,12,-1
 974 0 l 1,13,-1
 959 142 l 1,14,-1
 911 405 l 1,15,-1
 599 411 l 1,16,-1
 317 405 l 1,17,-1
 197 151 l 1,18,-1
 142 0 l 1,19,-1
 -30 0 l 1,20,-1
 668 1468 l 1,21,-1
 865 1468 l 1,22,-1
 1149 0 l 1,12,-1
883 553 m 1,23,-1
 748 1289 l 1,24,-1
 731 1289 l 1,25,-1
 385 553 l 1,26,-1
 631 551 l 1,27,-1
 883 553 l 1,23,-1
EndSplineSet
Position2: "'cpsp' Capital Spacing lookup 0 subtable" dx=16 dy=0 dh=33 dv=0
EndChar

StartChar: Acircumflex
Encoding: 194 194 132
Width: 1256
GlyphClass: 2
Flags: W
AnchorPoint: "Anchor-1" 0 0 basechar 0
AnchorPoint: "Anchor-0" 754 1468 basechar 0
LayerCount: 2
Fore
SplineSet
534 1679 m 1,0,-1
 507 1755 l 1,1,2
 629 1829 629 1829 794 1959 c 1,3,-1
 844 1959 l 1,4,5
 950 1858 950 1858 1088 1755 c 1,6,-1
 1042 1679 l 1,7,-1
 1023 1679 l 1,8,9
 926 1743 926 1743 810 1832 c 1,10,11
 647 1732 647 1732 556 1679 c 1,12,-1
 534 1679 l 1,0,-1
1149 0 m 1,13,-1
 974 0 l 1,14,-1
 959 142 l 1,15,-1
 911 405 l 1,16,-1
 599 411 l 1,17,-1
 317 405 l 1,18,-1
 197 151 l 1,19,-1
 142 0 l 1,20,-1
 -30 0 l 1,21,-1
 668 1468 l 1,22,-1
 865 1468 l 1,23,-1
 1149 0 l 1,13,-1
883 553 m 1,24,-1
 748 1289 l 1,25,-1
 731 1289 l 1,26,-1
 385 553 l 1,27,-1
 631 551 l 1,28,-1
 883 553 l 1,24,-1
EndSplineSet
Position2: "'cpsp' Capital Spacing lookup 0 subtable" dx=16 dy=0 dh=33 dv=0
EndChar

StartChar: Atilde
Encoding: 195 195 133
Width: 1256
GlyphClass: 2
Flags: W
AnchorPoint: "Anchor-1" 0 0 basechar 0
AnchorPoint: "Anchor-0" 754 1468 basechar 0
LayerCount: 2
Fore
SplineSet
1154 1885 m 1,0,-1
 1154 1869 l 1,1,-1
 1014 1716 l 1,2,-1
 993 1707 l 1,3,4
 948 1712 948 1712 808 1751.5 c 128,-1,5
 668 1791 668 1791 637 1791 c 0,6,7
 627 1791 627 1791 616.5 1786 c 128,-1,8
 606 1781 606 1781 593 1769.5 c 128,-1,9
 580 1758 580 1758 570 1748 c 128,-1,10
 560 1738 560 1738 541 1718 c 128,-1,11
 522 1698 522 1698 510 1686 c 1,12,-1
 488 1686 l 1,13,-1
 436 1743 l 1,14,-1
 436 1760 l 1,15,-1
 576 1913 l 1,16,-1
 596 1920 l 1,17,18
 628 1916 628 1916 684 1902 c 128,-1,19
 740 1888 740 1888 789 1874 c 128,-1,20
 838 1860 838 1860 885.5 1848.5 c 128,-1,21
 933 1837 933 1837 952 1837 c 0,22,23
 960 1837 960 1837 970 1841 c 128,-1,24
 980 1845 980 1845 988 1851 c 128,-1,25
 996 1857 996 1857 1008.5 1868.5 c 128,-1,26
 1021 1880 1021 1880 1030 1889 c 128,-1,27
 1039 1898 1039 1898 1055.5 1915 c 128,-1,28
 1072 1932 1072 1932 1083 1943 c 1,29,-1
 1099 1943 l 1,30,-1
 1154 1885 l 1,0,-1
865 1468 m 1,31,-1
 1149 0 l 1,32,-1
 974 0 l 1,33,-1
 959 142 l 1,34,-1
 911 405 l 1,35,-1
 599 411 l 1,36,-1
 317 405 l 1,37,-1
 197 151 l 1,38,-1
 142 0 l 1,39,-1
 -30 0 l 1,40,-1
 668 1468 l 1,41,-1
 865 1468 l 1,31,-1
883 553 m 1,42,-1
 748 1289 l 1,43,-1
 731 1289 l 1,44,-1
 385 553 l 1,45,-1
 631 551 l 1,46,-1
 883 553 l 1,42,-1
EndSplineSet
Position2: "'cpsp' Capital Spacing lookup 0 subtable" dx=16 dy=0 dh=33 dv=0
EndChar

StartChar: Adieresis
Encoding: 196 196 134
Width: 1256
GlyphClass: 2
Flags: W
AnchorPoint: "Anchor-1" 0 0 basechar 0
AnchorPoint: "Anchor-0" 754 1468 basechar 0
LayerCount: 2
Fore
SplineSet
613 1709 m 0,0,1
 591 1709 591 1709 573 1716 c 128,-1,2
 555 1723 555 1723 543 1735 c 128,-1,3
 531 1747 531 1747 525 1765 c 128,-1,4
 519 1783 519 1783 519 1805 c 0,5,6
 519 1852 519 1852 545 1879 c 128,-1,7
 571 1906 571 1906 617 1906 c 0,8,9
 659 1906 659 1906 684 1880 c 128,-1,10
 709 1854 709 1854 709 1812 c 0,11,12
 709 1766 709 1766 682.5 1737.5 c 128,-1,13
 656 1709 656 1709 613 1709 c 0,0,1
977 1709 m 0,14,15
 947 1709 947 1709 926 1720 c 128,-1,16
 905 1731 905 1731 894 1752.5 c 128,-1,17
 883 1774 883 1774 883 1803 c 0,18,19
 883 1850 883 1850 910 1877 c 128,-1,20
 937 1904 937 1904 984 1904 c 0,21,22
 1025 1904 1025 1904 1049 1878.5 c 128,-1,23
 1073 1853 1073 1853 1073 1810 c 0,24,25
 1073 1764 1073 1764 1046.5 1736.5 c 128,-1,26
 1020 1709 1020 1709 977 1709 c 0,14,15
1149 0 m 1,27,-1
 974 0 l 1,28,-1
 959 142 l 1,29,-1
 911 405 l 1,30,-1
 599 411 l 1,31,-1
 317 405 l 1,32,-1
 197 151 l 1,33,-1
 142 0 l 1,34,-1
 -30 0 l 1,35,-1
 668 1468 l 1,36,-1
 865 1468 l 1,37,-1
 1149 0 l 1,27,-1
883 553 m 1,38,-1
 748 1289 l 1,39,-1
 731 1289 l 1,40,-1
 385 553 l 1,41,-1
 631 551 l 1,42,-1
 883 553 l 1,38,-1
EndSplineSet
Position2: "'cpsp' Capital Spacing lookup 0 subtable" dx=16 dy=0 dh=33 dv=0
EndChar

StartChar: Aring
Encoding: 197 197 135
Width: 1256
GlyphClass: 2
Flags: W
AnchorPoint: "Anchor-1" 0 0 basechar 0
AnchorPoint: "Anchor-0" 754 1468 basechar 0
LayerCount: 2
Fore
SplineSet
794 1637 m 0,0,1
 713 1637 713 1637 660.5 1687 c 128,-1,2
 608 1737 608 1737 608 1823 c 0,3,4
 608 1908 608 1908 659 1960 c 128,-1,5
 710 2012 710 2012 799 2012 c 0,6,7
 859 2012 859 2012 902 1987 c 128,-1,8
 945 1962 945 1962 966 1921 c 128,-1,9
 987 1880 987 1880 987 1828 c 0,10,11
 987 1739 987 1739 932.5 1688 c 128,-1,12
 878 1637 878 1637 794 1637 c 0,0,1
796 1924 m 0,13,14
 746 1924 746 1924 719 1898 c 128,-1,15
 692 1872 692 1872 692 1826 c 0,16,17
 692 1776 692 1776 721.5 1748 c 128,-1,18
 751 1720 751 1720 799 1720 c 0,19,20
 845 1720 845 1720 873.5 1746.5 c 128,-1,21
 902 1773 902 1773 902 1821 c 0,22,23
 902 1851 902 1851 890.5 1874 c 128,-1,24
 879 1897 879 1897 855 1910.5 c 128,-1,25
 831 1924 831 1924 796 1924 c 0,13,14
1149 0 m 1,26,-1
 974 0 l 1,27,-1
 959 142 l 1,28,-1
 911 405 l 1,29,-1
 599 411 l 1,30,-1
 317 405 l 1,31,-1
 197 151 l 1,32,-1
 142 0 l 1,33,-1
 -30 0 l 1,34,-1
 668 1468 l 1,35,-1
 865 1468 l 1,36,-1
 1149 0 l 1,26,-1
883 553 m 1,37,-1
 748 1289 l 1,38,-1
 731 1289 l 1,39,-1
 385 553 l 1,40,-1
 631 551 l 1,41,-1
 883 553 l 1,37,-1
EndSplineSet
Position2: "'cpsp' Capital Spacing lookup 0 subtable" dx=16 dy=0 dh=33 dv=0
EndChar

StartChar: AE
Encoding: 198 198 136
Width: 1756
GlyphClass: 2
Flags: W
AnchorPoint: "Anchor-1" 0 0 basechar 0
AnchorPoint: "Anchor-0" 1201 1468 basechar 0
LayerCount: 2
Fore
SplineSet
1674 136 m 1,0,-1
 1644 0 l 1,1,-1
 890 0 l 1,2,-1
 895 142 l 1,3,-1
 888 599 l 1,4,-1
 357 477 l 1,5,-1
 153 151 l 1,6,-1
 81 0 l 1,7,-1
 -99 0 l 1,8,-1
 823 1468 l 1,9,-1
 1631 1468 l 1,10,-1
 1640 1452 l 1,11,-1
 1608 1317 l 1,12,-1
 1257 1326 l 1,13,-1
 1046 1326 l 1,14,-1
 1053 771 l 1,15,-1
 1534 874 l 1,16,-1
 1546 860 l 1,17,-1
 1541 734 l 1,18,-1
 1053 635 l 1,19,-1
 1060 140 l 1,20,-1
 1307 140 l 1,21,-1
 1665 151 l 1,22,-1
 1674 136 l 1,0,-1
886 734 m 1,23,-1
 876 1289 l 1,24,-1
 865 1289 l 1,25,-1
 461 642 l 1,26,-1
 886 734 l 1,23,-1
EndSplineSet
Position2: "'cpsp' Capital Spacing lookup 0 subtable" dx=16 dy=0 dh=33 dv=0
EndChar

StartChar: Ccedilla
Encoding: 199 199 137
Width: 1146
GlyphClass: 2
Flags: W
AnchorPoint: "Anchor-1" 683 0 basechar 0
AnchorPoint: "Anchor-0" 772 1468 basechar 0
LayerCount: 2
Fore
SplineSet
825 1482 m 0,0,1
 1045 1482 1045 1482 1202 1370 c 1,2,-1
 1147 1211 l 1,3,-1
 1127 1206 l 1,4,5
 998 1335 998 1335 805 1335 c 0,6,7
 643 1335 643 1335 527 1251 c 128,-1,8
 411 1167 411 1167 350 1004 c 128,-1,9
 289 841 289 841 289 610 c 256,10,11
 289 379 289 379 382 256 c 128,-1,12
 475 133 475 133 650 133 c 0,13,14
 748 133 748 133 847.5 169.5 c 128,-1,15
 947 206 947 206 1035 273 c 1,16,-1
 1053 261 l 1,17,-1
 1018 99 l 1,18,19
 854 5 854 5 702 -11 c 1,20,-1
 670 -116 l 1,21,-1
 746 -162 l 1,22,23
 832 -209 832 -209 832 -289 c 0,24,25
 832 -356 832 -356 781.5 -397 c 128,-1,26
 731 -438 731 -438 652 -438 c 0,27,28
 552 -438 552 -438 486 -367 c 1,29,-1
 505 -280 l 1,30,-1
 516 -276 l 1,31,32
 547 -312 547 -312 575 -329 c 128,-1,33
 603 -346 603 -346 642 -346 c 0,34,35
 676 -346 676 -346 697 -330 c 128,-1,36
 718 -314 718 -314 718 -284 c 0,37,38
 718 -270 718 -270 711 -259 c 128,-1,39
 704 -248 704 -248 694 -241.5 c 128,-1,40
 684 -235 684 -235 668 -227 c 1,41,-1
 560 -160 l 1,42,-1
 599 -16 l 1,43,44
 363 -7 363 -7 235.5 149.5 c 128,-1,45
 108 306 108 306 108 585 c 0,46,47
 108 793 108 793 156.5 960.5 c 128,-1,48
 205 1128 205 1128 297 1243 c 128,-1,49
 389 1358 389 1358 523 1420 c 128,-1,50
 657 1482 657 1482 825 1482 c 0,0,1
EndSplineSet
Position2: "'cpsp' Capital Spacing lookup 0 subtable" dx=16 dy=0 dh=33 dv=0
EndChar

StartChar: Egrave
Encoding: 200 200 138
Width: 1057
GlyphClass: 2
Flags: W
AnchorPoint: "Anchor-1" 614 0 basechar 0
AnchorPoint: "Anchor-0" 711 1468 basechar 0
LayerCount: 2
Fore
SplineSet
972 1668 m 1,0,-1
 952 1659 l 1,1,2
 693 1767 693 1767 510 1856 c 1,3,-1
 503 1874 l 1,4,-1
 545 1975 l 1,5,-1
 567 1979 l 1,6,7
 734 1880 734 1880 1005 1746 c 1,8,-1
 972 1668 l 1,0,-1
482 1322 m 1,9,-1
 418 825 l 1,10,-1
 681 821 l 1,11,-1
 911 828 l 1,12,-1
 922 812 l 1,13,-1
 890 679 l 1,14,-1
 647 683 l 1,15,-1
 396 681 l 1,16,-1
 367 457 l 1,17,-1
 333 147 l 1,18,-1
 615 142 l 1,19,-1
 948 151 l 1,20,-1
 954 136 l 1,21,-1
 924 0 l 1,22,-1
 144 0 l 1,23,-1
 211 442 l 1,24,-1
 330 1468 l 1,25,-1
 1112 1468 l 1,26,-1
 1119 1452 l 1,27,-1
 1090 1317 l 1,28,-1
 764 1326 l 1,29,-1
 482 1322 l 1,9,-1
EndSplineSet
Position2: "'cpsp' Capital Spacing lookup 0 subtable" dx=16 dy=0 dh=33 dv=0
EndChar

StartChar: Eacute
Encoding: 201 201 139
Width: 1057
GlyphClass: 2
Flags: W
AnchorPoint: "Anchor-1" 614 0 basechar 0
AnchorPoint: "Anchor-0" 711 1468 basechar 0
LayerCount: 2
Fore
SplineSet
558 1661 m 1,0,-1
 525 1738 l 1,1,2
 760 1855 760 1855 963 1975 c 1,3,-1
 982 1970 l 1,4,-1
 1028 1869 l 1,5,-1
 1020 1849 l 1,6,7
 966 1823 966 1823 903 1794.5 c 128,-1,8
 840 1766 840 1766 801 1748.5 c 128,-1,9
 762 1731 762 1731 683.5 1697.5 c 128,-1,10
 605 1664 605 1664 578 1652 c 1,11,-1
 558 1661 l 1,0,-1
482 1322 m 1,12,-1
 418 825 l 1,13,-1
 681 821 l 1,14,-1
 911 828 l 1,15,-1
 922 812 l 1,16,-1
 890 679 l 1,17,-1
 647 683 l 1,18,-1
 396 681 l 1,19,-1
 367 457 l 1,20,-1
 333 147 l 1,21,-1
 615 142 l 1,22,-1
 948 151 l 1,23,-1
 954 136 l 1,24,-1
 924 0 l 1,25,-1
 144 0 l 1,26,-1
 211 442 l 1,27,-1
 330 1468 l 1,28,-1
 1112 1468 l 1,29,-1
 1119 1452 l 1,30,-1
 1090 1317 l 1,31,-1
 764 1326 l 1,32,-1
 482 1322 l 1,12,-1
EndSplineSet
Position2: "'cpsp' Capital Spacing lookup 0 subtable" dx=16 dy=0 dh=33 dv=0
EndChar

StartChar: Ecircumflex
Encoding: 202 202 140
Width: 1057
GlyphClass: 2
Flags: W
AnchorPoint: "Anchor-1" 614 0 basechar 0
AnchorPoint: "Anchor-0" 711 1468 basechar 0
LayerCount: 2
Fore
SplineSet
491 1679 m 1,0,-1
 464 1755 l 1,1,2
 585 1829 585 1829 750 1959 c 1,3,-1
 801 1959 l 1,4,5
 906 1858 906 1858 1044 1755 c 1,6,-1
 998 1679 l 1,7,-1
 979 1679 l 1,8,9
 882 1743 882 1743 766 1832 c 1,10,11
 603 1732 603 1732 512 1679 c 1,12,-1
 491 1679 l 1,0,-1
482 1322 m 1,13,-1
 418 825 l 1,14,-1
 681 821 l 1,15,-1
 911 828 l 1,16,-1
 922 812 l 1,17,-1
 890 679 l 1,18,-1
 647 683 l 1,19,-1
 396 681 l 1,20,-1
 367 457 l 1,21,-1
 333 147 l 1,22,-1
 615 142 l 1,23,-1
 948 151 l 1,24,-1
 954 136 l 1,25,-1
 924 0 l 1,26,-1
 144 0 l 1,27,-1
 211 442 l 1,28,-1
 330 1468 l 1,29,-1
 1112 1468 l 1,30,-1
 1119 1452 l 1,31,-1
 1090 1317 l 1,32,-1
 764 1326 l 1,33,-1
 482 1322 l 1,13,-1
EndSplineSet
Position2: "'cpsp' Capital Spacing lookup 0 subtable" dx=16 dy=0 dh=33 dv=0
EndChar

StartChar: Edieresis
Encoding: 203 203 141
Width: 1057
GlyphClass: 2
Flags: W
AnchorPoint: "Anchor-1" 614 0 basechar 0
AnchorPoint: "Anchor-0" 711 1468 basechar 0
LayerCount: 2
Fore
SplineSet
569 1709 m 0,0,1
 540 1709 540 1709 518.5 1721 c 128,-1,2
 497 1733 497 1733 486 1754.5 c 128,-1,3
 475 1776 475 1776 475 1805 c 0,4,5
 475 1852 475 1852 501 1879 c 128,-1,6
 527 1906 527 1906 573 1906 c 0,7,8
 616 1906 616 1906 640.5 1880 c 128,-1,9
 665 1854 665 1854 665 1812 c 0,10,11
 665 1766 665 1766 638.5 1737.5 c 128,-1,12
 612 1709 612 1709 569 1709 c 0,0,1
934 1709 m 0,13,14
 890 1709 890 1709 865 1734 c 128,-1,15
 840 1759 840 1759 840 1803 c 0,16,17
 840 1834 840 1834 852 1856.5 c 128,-1,18
 864 1879 864 1879 886.5 1891.5 c 128,-1,19
 909 1904 909 1904 941 1904 c 0,20,21
 982 1904 982 1904 1006 1878.5 c 128,-1,22
 1030 1853 1030 1853 1030 1810 c 0,23,24
 1030 1764 1030 1764 1003.5 1736.5 c 128,-1,25
 977 1709 977 1709 934 1709 c 0,13,14
482 1322 m 1,26,-1
 418 825 l 1,27,-1
 681 821 l 1,28,-1
 911 828 l 1,29,-1
 922 812 l 1,30,-1
 890 679 l 1,31,-1
 647 683 l 1,32,-1
 396 681 l 1,33,-1
 367 457 l 1,34,-1
 333 147 l 1,35,-1
 615 142 l 1,36,-1
 948 151 l 1,37,-1
 954 136 l 1,38,-1
 924 0 l 1,39,-1
 144 0 l 1,40,-1
 211 442 l 1,41,-1
 330 1468 l 1,42,-1
 1112 1468 l 1,43,-1
 1119 1452 l 1,44,-1
 1090 1317 l 1,45,-1
 764 1326 l 1,46,-1
 482 1322 l 1,26,-1
EndSplineSet
Position2: "'cpsp' Capital Spacing lookup 0 subtable" dx=16 dy=0 dh=33 dv=0
EndChar

StartChar: Igrave
Encoding: 204 204 142
Width: 593
GlyphClass: 2
Flags: W
AnchorPoint: "Anchor-1" 0 0 basechar 0
AnchorPoint: "Anchor-0" 415 1468 basechar 0
LayerCount: 2
Fore
SplineSet
248 1975 m 1,0,-1
 269 1979 l 1,1,2
 436 1880 436 1880 707 1746 c 1,3,-1
 674 1668 l 1,4,-1
 654 1659 l 1,5,6
 387 1771 387 1771 211 1856 c 1,7,-1
 204 1874 l 1,8,-1
 248 1975 l 1,0,-1
365 457 m 1,9,-1
 317 0 l 1,10,-1
 144 0 l 1,11,-1
 208 442 l 1,12,-1
 328 1468 l 1,13,-1
 500 1468 l 1,14,-1
 365 457 l 1,9,-1
EndSplineSet
Position2: "'cpsp' Capital Spacing lookup 0 subtable" dx=16 dy=0 dh=33 dv=0
EndChar

StartChar: Iacute
Encoding: 205 205 143
Width: 593
GlyphClass: 2
Flags: W
AnchorPoint: "Anchor-1" 0 0 basechar 0
AnchorPoint: "Anchor-0" 415 1468 basechar 0
LayerCount: 2
Fore
SplineSet
685 1970 m 1,0,-1
 731 1869 l 1,1,-1
 725 1849 l 1,2,3
 671 1823 671 1823 607.5 1794.5 c 128,-1,4
 544 1766 544 1766 505 1748.5 c 128,-1,5
 466 1731 466 1731 387.5 1697.5 c 128,-1,6
 309 1664 309 1664 282 1652 c 1,7,-1
 261 1661 l 1,8,-1
 230 1738 l 1,9,10
 464 1855 464 1855 668 1975 c 1,11,-1
 685 1970 l 1,0,-1
365 457 m 1,12,-1
 317 0 l 1,13,-1
 144 0 l 1,14,-1
 208 442 l 1,15,-1
 328 1468 l 1,16,-1
 500 1468 l 1,17,-1
 365 457 l 1,12,-1
EndSplineSet
Position2: "'cpsp' Capital Spacing lookup 0 subtable" dx=16 dy=0 dh=33 dv=0
EndChar

StartChar: Icircumflex
Encoding: 206 206 144
Width: 593
GlyphClass: 2
Flags: W
AnchorPoint: "Anchor-1" 0 0 basechar 0
AnchorPoint: "Anchor-0" 415 1468 basechar 0
LayerCount: 2
Fore
SplineSet
195 1679 m 1,0,-1
 168 1755 l 1,1,2
 289 1829 289 1829 455 1959 c 1,3,-1
 505 1959 l 1,4,5
 611 1858 611 1858 748 1755 c 1,6,-1
 702 1679 l 1,7,-1
 683 1679 l 1,8,9
 586 1743 586 1743 470 1832 c 1,10,11
 307 1732 307 1732 216 1679 c 1,12,-1
 195 1679 l 1,0,-1
365 457 m 1,13,-1
 317 0 l 1,14,-1
 144 0 l 1,15,-1
 208 442 l 1,16,-1
 328 1468 l 1,17,-1
 500 1468 l 1,18,-1
 365 457 l 1,13,-1
EndSplineSet
Position2: "'cpsp' Capital Spacing lookup 0 subtable" dx=16 dy=0 dh=33 dv=0
EndChar

StartChar: Idieresis
Encoding: 207 207 145
Width: 593
GlyphClass: 2
Flags: W
AnchorPoint: "Anchor-1" 0 0 basechar 0
AnchorPoint: "Anchor-0" 415 1468 basechar 0
LayerCount: 2
Fore
SplineSet
319 1904 m 0,0,1
 360 1904 360 1904 384.5 1878.5 c 128,-1,2
 409 1853 409 1853 409 1810 c 0,3,4
 409 1764 409 1764 383 1736.5 c 128,-1,5
 357 1709 357 1709 312.5 1709 c 128,-1,6
 268 1709 268 1709 243 1734 c 128,-1,7
 218 1759 218 1759 218 1803 c 0,8,9
 218 1826 218 1826 225.5 1845 c 128,-1,10
 233 1864 233 1864 246 1877 c 128,-1,11
 259 1890 259 1890 277.5 1897 c 128,-1,12
 296 1904 296 1904 319 1904 c 0,0,1
604 1904 m 0,13,14
 646 1904 646 1904 671 1878.5 c 128,-1,15
 696 1853 696 1853 696 1810 c 0,16,17
 696 1764 696 1764 669 1736.5 c 128,-1,18
 642 1709 642 1709 599 1709 c 0,19,20
 553 1709 553 1709 529 1733.5 c 128,-1,21
 505 1758 505 1758 505 1803 c 0,22,23
 505 1850 505 1850 531.5 1877 c 128,-1,24
 558 1904 558 1904 604 1904 c 0,13,14
365 457 m 1,25,-1
 317 0 l 1,26,-1
 144 0 l 1,27,-1
 208 442 l 1,28,-1
 328 1468 l 1,29,-1
 500 1468 l 1,30,-1
 365 457 l 1,25,-1
EndSplineSet
Ligature2: "'liga' Standard Ligatures lookup 30 subtable" dieresis I
Position2: "'cpsp' Capital Spacing lookup 0 subtable" dx=16 dy=0 dh=33 dv=0
EndChar

StartChar: Eth
Encoding: 208 208 146
Width: 1476
GlyphClass: 2
Flags: W
AnchorPoint: "Anchor-1" 0 0 basechar 0
AnchorPoint: "Anchor-0" 812 1468 basechar 0
LayerCount: 2
Fore
SplineSet
385 1468 m 1,0,-1
 874 1480 l 1,1,2
 1139 1480 1139 1480 1284 1330.5 c 128,-1,3
 1429 1181 1429 1181 1429 906 c 0,4,5
 1429 622 1429 622 1341 416 c 128,-1,6
 1253 210 1253 210 1079.5 98.5 c 128,-1,7
 906 -13 906 -13 663 -13 c 0,8,9
 596 -13 596 -13 440 -9 c 128,-1,10
 284 -5 284 -5 199 0 c 1,11,-1
 267 442 l 1,12,-1
 293 683 l 1,13,-1
 78 683 l 1,14,-1
 71 698 l 1,15,-1
 85 808 l 1,16,-1
 307 808 l 1,17,-1
 383 1468 l 1,18,-1
 385 1468 l 1,0,-1
698 131 m 0,19,20
 960 131 960 131 1104 322.5 c 128,-1,21
 1248 514 1248 514 1248 874 c 0,22,23
 1248 1103 1248 1103 1149 1219 c 128,-1,24
 1050 1335 1050 1335 856 1335 c 0,25,26
 709 1335 709 1335 539 1326 c 1,27,-1
 468 808 l 1,28,-1
 823 808 l 1,29,-1
 830 792 l 1,30,-1
 819 683 l 1,31,-1
 449 683 l 1,32,-1
 420 457 l 1,33,-1
 388 144 l 1,34,35
 594 131 594 131 698 131 c 0,19,20
EndSplineSet
Position2: "'cpsp' Capital Spacing lookup 0 subtable" dx=16 dy=0 dh=33 dv=0
EndChar

StartChar: Ntilde
Encoding: 209 209 147
Width: 1497
GlyphClass: 2
Flags: W
AnchorPoint: "Anchor-1" 687 0 basechar 0
AnchorPoint: "Anchor-0" 869 1468 basechar 0
LayerCount: 2
Fore
SplineSet
1269 1885 m 1,0,-1
 1269 1869 l 1,1,-1
 1129 1716 l 1,2,-1
 1108 1707 l 1,3,4
 1069 1712 1069 1712 991.5 1733 c 128,-1,5
 914 1754 914 1754 846 1772.5 c 128,-1,6
 778 1791 778 1791 753 1791 c 0,7,8
 744 1791 744 1791 734.5 1787 c 128,-1,9
 725 1783 725 1783 716.5 1777 c 128,-1,10
 708 1771 708 1771 696 1759.5 c 128,-1,11
 684 1748 684 1748 675 1738.5 c 128,-1,12
 666 1729 666 1729 650.5 1713 c 128,-1,13
 635 1697 635 1697 624 1686 c 1,14,-1
 604 1686 l 1,15,-1
 551 1743 l 1,16,-1
 551 1760 l 1,17,-1
 690 1913 l 1,18,-1
 711 1920 l 1,19,20
 759 1914 759 1914 898.5 1875.5 c 128,-1,21
 1038 1837 1038 1837 1066 1837 c 0,22,23
 1076 1837 1076 1837 1086.5 1841.5 c 128,-1,24
 1097 1846 1097 1846 1111 1858 c 128,-1,25
 1125 1870 1125 1870 1134.5 1879.5 c 128,-1,26
 1144 1889 1144 1889 1165 1910.5 c 128,-1,27
 1186 1932 1186 1932 1197 1943 c 1,28,-1
 1213 1943 l 1,29,-1
 1269 1885 l 1,0,-1
1269 429 m 1,30,-1
 1221 0 l 1,31,-1
 1042 0 l 1,32,-1
 464 1193 l 1,33,-1
 449 1193 l 1,34,-1
 361 482 l 1,35,-1
 305 0 l 1,36,-1
 144 0 l 1,37,-1
 208 436 l 1,38,-1
 333 1468 l 1,39,-1
 512 1468 l 1,40,-1
 1088 276 l 1,41,-1
 1101 276 l 1,42,-1
 1248 1462 l 1,43,-1
 1411 1473 l 1,44,-1
 1269 429 l 1,30,-1
EndSplineSet
Position2: "'cpsp' Capital Spacing lookup 0 subtable" dx=16 dy=0 dh=33 dv=0
EndChar

StartChar: Ograve
Encoding: 210 210 148
Width: 1401
GlyphClass: 2
Flags: W
AnchorPoint: "Anchor-1" 0 0 basechar 0
AnchorPoint: "Anchor-0" 818 1468 basechar 0
LayerCount: 2
Fore
SplineSet
654 1975 m 1,0,-1
 674 1979 l 1,1,2
 842 1880 842 1880 1112 1746 c 1,3,-1
 1081 1668 l 1,4,-1
 1060 1659 l 1,5,6
 801 1767 801 1767 617 1856 c 1,7,-1
 610 1874 l 1,8,-1
 654 1975 l 1,0,-1
825 1484 m 0,9,10
 1077 1484 1077 1484 1215 1330.5 c 128,-1,11
 1353 1177 1353 1177 1353 897 c 0,12,13
 1353 615 1353 615 1270 410 c 128,-1,14
 1187 205 1187 205 1024.5 93.5 c 128,-1,15
 862 -18 862 -18 633 -18 c 0,16,17
 468 -18 468 -18 350 53 c 128,-1,18
 232 124 232 124 170 259.5 c 128,-1,19
 108 395 108 395 108 585 c 0,20,21
 108 865 108 865 190.5 1066.5 c 128,-1,22
 273 1268 273 1268 435 1376 c 128,-1,23
 597 1484 597 1484 825 1484 c 0,9,10
805 1340 m 0,24,25
 544 1340 544 1340 414 1149.5 c 128,-1,26
 284 959 284 959 284 596 c 0,27,28
 284 127 284 127 647 127 c 0,29,30
 821 127 821 127 939 214 c 128,-1,31
 1057 301 1057 301 1115 467.5 c 128,-1,32
 1173 634 1173 634 1173 876 c 0,33,34
 1173 1340 1173 1340 805 1340 c 0,24,25
EndSplineSet
Position2: "'cpsp' Capital Spacing lookup 0 subtable" dx=16 dy=0 dh=33 dv=0
EndChar

StartChar: Oacute
Encoding: 211 211 149
Width: 1401
GlyphClass: 2
Flags: W
AnchorPoint: "Anchor-1" 0 0 basechar 0
AnchorPoint: "Anchor-0" 818 1468 basechar 0
LayerCount: 2
Fore
SplineSet
1090 1970 m 1,0,-1
 1136 1869 l 1,1,-1
 1129 1849 l 1,2,3
 1075 1823 1075 1823 1012.5 1794.5 c 128,-1,4
 950 1766 950 1766 908 1748 c 128,-1,5
 866 1730 866 1730 792 1698 c 128,-1,6
 718 1666 718 1666 685 1652 c 1,7,-1
 665 1661 l 1,8,-1
 633 1738 l 1,9,10
 867 1855 867 1855 1071 1975 c 1,11,-1
 1090 1970 l 1,0,-1
825 1484 m 0,12,13
 1077 1484 1077 1484 1215 1330.5 c 128,-1,14
 1353 1177 1353 1177 1353 897 c 0,15,16
 1353 615 1353 615 1270 410 c 128,-1,17
 1187 205 1187 205 1024.5 93.5 c 128,-1,18
 862 -18 862 -18 633 -18 c 0,19,20
 468 -18 468 -18 350 53 c 128,-1,21
 232 124 232 124 170 259.5 c 128,-1,22
 108 395 108 395 108 585 c 0,23,24
 108 865 108 865 190.5 1066.5 c 128,-1,25
 273 1268 273 1268 435 1376 c 128,-1,26
 597 1484 597 1484 825 1484 c 0,12,13
805 1340 m 0,27,28
 544 1340 544 1340 414 1149.5 c 128,-1,29
 284 959 284 959 284 596 c 0,30,31
 284 127 284 127 647 127 c 0,32,33
 821 127 821 127 939 214 c 128,-1,34
 1057 301 1057 301 1115 467.5 c 128,-1,35
 1173 634 1173 634 1173 876 c 0,36,37
 1173 1340 1173 1340 805 1340 c 0,27,28
EndSplineSet
Position2: "'cpsp' Capital Spacing lookup 0 subtable" dx=16 dy=0 dh=33 dv=0
EndChar

StartChar: Ocircumflex
Encoding: 212 212 150
Width: 1401
GlyphClass: 2
Flags: W
AnchorPoint: "Anchor-1" 0 0 basechar 0
AnchorPoint: "Anchor-0" 818 1468 basechar 0
LayerCount: 2
Fore
SplineSet
599 1679 m 1,0,-1
 571 1755 l 1,1,2
 692 1829 692 1829 858 1959 c 1,3,-1
 908 1959 l 1,4,5
 1014 1858 1014 1858 1151 1755 c 1,6,-1
 1105 1679 l 1,7,-1
 1088 1679 l 1,8,9
 983 1748 983 1748 874 1832 c 1,10,11
 711 1732 711 1732 619 1679 c 1,12,-1
 599 1679 l 1,0,-1
825 1484 m 0,13,14
 1077 1484 1077 1484 1215 1330.5 c 128,-1,15
 1353 1177 1353 1177 1353 897 c 0,16,17
 1353 615 1353 615 1270 410 c 128,-1,18
 1187 205 1187 205 1024.5 93.5 c 128,-1,19
 862 -18 862 -18 633 -18 c 0,20,21
 468 -18 468 -18 350 53 c 128,-1,22
 232 124 232 124 170 259.5 c 128,-1,23
 108 395 108 395 108 585 c 0,24,25
 108 865 108 865 190.5 1066.5 c 128,-1,26
 273 1268 273 1268 435 1376 c 128,-1,27
 597 1484 597 1484 825 1484 c 0,13,14
805 1340 m 0,28,29
 544 1340 544 1340 414 1149.5 c 128,-1,30
 284 959 284 959 284 596 c 0,31,32
 284 127 284 127 647 127 c 0,33,34
 821 127 821 127 939 214 c 128,-1,35
 1057 301 1057 301 1115 467.5 c 128,-1,36
 1173 634 1173 634 1173 876 c 0,37,38
 1173 1340 1173 1340 805 1340 c 0,28,29
EndSplineSet
Position2: "'cpsp' Capital Spacing lookup 0 subtable" dx=16 dy=0 dh=33 dv=0
EndChar

StartChar: Otilde
Encoding: 213 213 151
Width: 1401
GlyphClass: 2
Flags: W
AnchorPoint: "Anchor-1" 0 0 basechar 0
AnchorPoint: "Anchor-0" 818 1468 basechar 0
LayerCount: 2
Fore
SplineSet
1217 1885 m 1,0,-1
 1217 1869 l 1,1,-1
 1079 1716 l 1,2,-1
 1057 1707 l 1,3,4
 1018 1712 1018 1712 941 1733 c 128,-1,5
 864 1754 864 1754 795.5 1772.5 c 128,-1,6
 727 1791 727 1791 702 1791 c 0,7,8
 694 1791 694 1791 684.5 1787 c 128,-1,9
 675 1783 675 1783 666.5 1777 c 128,-1,10
 658 1771 658 1771 646 1759.5 c 128,-1,11
 634 1748 634 1748 625 1738.5 c 128,-1,12
 616 1729 616 1729 600.5 1713 c 128,-1,13
 585 1697 585 1697 573 1686 c 1,14,-1
 553 1686 l 1,15,-1
 500 1743 l 1,16,-1
 500 1760 l 1,17,-1
 640 1913 l 1,18,-1
 661 1920 l 1,19,20
 709 1914 709 1914 848 1875.5 c 128,-1,21
 987 1837 987 1837 1016 1837 c 0,22,23
 1026 1837 1026 1837 1036.5 1841.5 c 128,-1,24
 1047 1846 1047 1846 1061 1858 c 128,-1,25
 1075 1870 1075 1870 1084.5 1879.5 c 128,-1,26
 1094 1889 1094 1889 1114.5 1910.5 c 128,-1,27
 1135 1932 1135 1932 1147 1943 c 1,28,-1
 1163 1943 l 1,29,-1
 1217 1885 l 1,0,-1
825 1484 m 0,30,31
 1077 1484 1077 1484 1215 1330.5 c 128,-1,32
 1353 1177 1353 1177 1353 897 c 0,33,34
 1353 615 1353 615 1270 410 c 128,-1,35
 1187 205 1187 205 1024.5 93.5 c 128,-1,36
 862 -18 862 -18 633 -18 c 0,37,38
 468 -18 468 -18 350 53 c 128,-1,39
 232 124 232 124 170 259.5 c 128,-1,40
 108 395 108 395 108 585 c 0,41,42
 108 865 108 865 190.5 1066.5 c 128,-1,43
 273 1268 273 1268 435 1376 c 128,-1,44
 597 1484 597 1484 825 1484 c 0,30,31
805 1340 m 0,45,46
 544 1340 544 1340 414 1149.5 c 128,-1,47
 284 959 284 959 284 596 c 0,48,49
 284 127 284 127 647 127 c 0,50,51
 821 127 821 127 939 214 c 128,-1,52
 1057 301 1057 301 1115 467.5 c 128,-1,53
 1173 634 1173 634 1173 876 c 0,54,55
 1173 1340 1173 1340 805 1340 c 0,45,46
EndSplineSet
Position2: "'cpsp' Capital Spacing lookup 0 subtable" dx=16 dy=0 dh=33 dv=0
EndChar

StartChar: Odieresis
Encoding: 214 214 152
Width: 1401
GlyphClass: 2
Flags: W
AnchorPoint: "Anchor-1" 0 0 basechar 0
AnchorPoint: "Anchor-0" 818 1468 basechar 0
LayerCount: 2
Fore
SplineSet
681 1906 m 0,0,1
 723 1906 723 1906 748 1880 c 128,-1,2
 773 1854 773 1854 773 1812 c 0,3,4
 773 1766 773 1766 746 1737.5 c 128,-1,5
 719 1709 719 1709 676 1709 c 0,6,7
 647 1709 647 1709 626 1721 c 128,-1,8
 605 1733 605 1733 593.5 1754.5 c 128,-1,9
 582 1776 582 1776 582 1805 c 0,10,11
 582 1852 582 1852 608.5 1879 c 128,-1,12
 635 1906 635 1906 681 1906 c 0,0,1
1048 1904 m 0,13,14
 1089 1904 1089 1904 1113.5 1878.5 c 128,-1,15
 1138 1853 1138 1853 1138 1810 c 0,16,17
 1138 1764 1138 1764 1111.5 1736.5 c 128,-1,18
 1085 1709 1085 1709 1042 1709 c 0,19,20
 1012 1709 1012 1709 991 1720 c 128,-1,21
 970 1731 970 1731 959 1752.5 c 128,-1,22
 948 1774 948 1774 948 1803 c 0,23,24
 948 1850 948 1850 974.5 1877 c 128,-1,25
 1001 1904 1001 1904 1048 1904 c 0,13,14
825 1484 m 0,26,27
 1077 1484 1077 1484 1215 1330.5 c 128,-1,28
 1353 1177 1353 1177 1353 897 c 0,29,30
 1353 615 1353 615 1270 410 c 128,-1,31
 1187 205 1187 205 1024.5 93.5 c 128,-1,32
 862 -18 862 -18 633 -18 c 0,33,34
 468 -18 468 -18 350 53 c 128,-1,35
 232 124 232 124 170 259.5 c 128,-1,36
 108 395 108 395 108 585 c 0,37,38
 108 865 108 865 190.5 1066.5 c 128,-1,39
 273 1268 273 1268 435 1376 c 128,-1,40
 597 1484 597 1484 825 1484 c 0,26,27
805 1340 m 0,41,42
 544 1340 544 1340 414 1149.5 c 128,-1,43
 284 959 284 959 284 596 c 0,44,45
 284 127 284 127 647 127 c 0,46,47
 821 127 821 127 939 214 c 128,-1,48
 1057 301 1057 301 1115 467.5 c 128,-1,49
 1173 634 1173 634 1173 876 c 0,50,51
 1173 1340 1173 1340 805 1340 c 0,41,42
EndSplineSet
Ligature2: "'liga' Standard Ligatures lookup 30 subtable" dieresis O
Position2: "'cpsp' Capital Spacing lookup 0 subtable" dx=16 dy=0 dh=33 dv=0
EndChar

StartChar: multiply
Encoding: 215 215 153
Width: 1103
GlyphClass: 2
Flags: W
LayerCount: 2
Fore
SplineSet
970 915 m 1,0,-1
 968 895 l 1,1,-1
 650 610 l 1,2,-1
 897 324 l 1,3,-1
 895 305 l 1,4,-1
 803 234 l 1,5,-1
 551 521 l 1,6,-1
 225 234 l 1,7,-1
 151 305 l 1,8,-1
 153 321 l 1,9,-1
 477 610 l 1,10,-1
 225 895 l 1,11,-1
 227 915 l 1,12,-1
 317 984 l 1,13,-1
 573 696 l 1,14,-1
 895 984 l 1,15,-1
 970 915 l 1,0,-1
EndSplineSet
EndChar

StartChar: Oslash
Encoding: 216 216 154
Width: 1403
GlyphClass: 2
Flags: W
AnchorPoint: "Anchor-1" 0 0 basechar 0
AnchorPoint: "Anchor-0" 818 1468 basechar 0
LayerCount: 2
Fore
SplineSet
1289 1598 m 1,0,-1
 1163 1379 l 1,1,2
 1353 1228 1353 1228 1353 897 c 0,3,4
 1353 615 1353 615 1270 410 c 128,-1,5
 1187 205 1187 205 1024.5 93.5 c 128,-1,6
 862 -18 862 -18 633 -18 c 0,7,8
 496 -18 496 -18 394 30 c 1,9,-1
 245 -232 l 1,10,-1
 147 -195 l 1,11,-1
 140 -177 l 1,12,-1
 293 94 l 1,13,14
 203 171 203 171 155.5 295 c 128,-1,15
 108 419 108 419 108 585 c 0,16,17
 108 865 108 865 190.5 1066.5 c 128,-1,18
 273 1268 273 1268 435 1376 c 128,-1,19
 597 1484 597 1484 825 1484 c 0,20,21
 956 1484 956 1484 1060 1440 c 1,22,-1
 1184 1656 l 1,23,-1
 1282 1620 l 1,24,-1
 1289 1598 l 1,0,-1
284 596 m 0,25,26
 284 361 284 361 379 241 c 1,27,-1
 982 1303 l 1,28,29
 913 1340 913 1340 805 1340 c 0,30,31
 544 1340 544 1340 414 1149.5 c 128,-1,32
 284 959 284 959 284 596 c 0,25,26
647 127 m 0,33,34
 821 127 821 127 939 214 c 128,-1,35
 1057 301 1057 301 1115 467.5 c 128,-1,36
 1173 634 1173 634 1173 876 c 0,37,38
 1173 1111 1173 1111 1079 1228 c 1,39,-1
 470 165 l 1,40,41
 545 127 545 127 647 127 c 0,33,34
EndSplineSet
Position2: "'cpsp' Capital Spacing lookup 0 subtable" dx=16 dy=0 dh=33 dv=0
EndChar

StartChar: Ugrave
Encoding: 217 217 155
Width: 1368
GlyphClass: 2
Flags: W
AnchorPoint: "Anchor-1" 0 0 basechar 0
AnchorPoint: "Anchor-0" 803 1468 basechar 0
LayerCount: 2
Fore
SplineSet
637 1975 m 1,0,-1
 659 1979 l 1,1,2
 826 1880 826 1880 1096 1746 c 1,3,-1
 1064 1668 l 1,4,-1
 1044 1659 l 1,5,6
 785 1767 785 1767 601 1856 c 1,7,-1
 594 1874 l 1,8,-1
 637 1975 l 1,0,-1
1225 722 m 1,9,-1
 1204 556 l 1,10,11
 1174 282 1174 282 1025.5 133 c 128,-1,12
 877 -16 877 -16 624 -16 c 0,13,14
 405 -16 405 -16 281.5 96 c 128,-1,15
 158 208 158 208 158 413 c 0,16,17
 158 471 158 471 168 536 c 1,18,-1
 195 736 l 1,19,-1
 282 1468 l 1,20,-1
 451 1468 l 1,21,-1
 330 558 l 1,22,23
 324 502 324 502 324 455 c 0,24,25
 324 138 324 138 635 138 c 0,26,27
 814 138 814 138 917.5 238 c 128,-1,28
 1021 338 1021 338 1044 536 c 2,29,-1
 1151 1468 l 1,30,-1
 1324 1468 l 1,31,-1
 1225 722 l 1,9,-1
EndSplineSet
Position2: "'cpsp' Capital Spacing lookup 0 subtable" dx=16 dy=0 dh=33 dv=0
EndChar

StartChar: Uacute
Encoding: 218 218 156
Width: 1368
GlyphClass: 2
Flags: W
AnchorPoint: "Anchor-1" 0 0 basechar 0
AnchorPoint: "Anchor-0" 803 1468 basechar 0
LayerCount: 2
Fore
SplineSet
1073 1970 m 1,0,-1
 1119 1869 l 1,1,-1
 1112 1849 l 1,2,3
 1058 1823 1058 1823 995 1794.5 c 128,-1,4
 932 1766 932 1766 892.5 1748.5 c 128,-1,5
 853 1731 853 1731 775 1697.5 c 128,-1,6
 697 1664 697 1664 670 1652 c 1,7,-1
 650 1661 l 1,8,-1
 617 1738 l 1,9,10
 852 1855 852 1855 1055 1975 c 1,11,-1
 1073 1970 l 1,0,-1
1225 722 m 1,12,-1
 1204 556 l 1,13,14
 1174 282 1174 282 1025.5 133 c 128,-1,15
 877 -16 877 -16 624 -16 c 0,16,17
 405 -16 405 -16 281.5 96 c 128,-1,18
 158 208 158 208 158 413 c 0,19,20
 158 471 158 471 168 536 c 1,21,-1
 195 736 l 1,22,-1
 282 1468 l 1,23,-1
 451 1468 l 1,24,-1
 330 558 l 1,25,26
 324 502 324 502 324 455 c 0,27,28
 324 138 324 138 635 138 c 0,29,30
 814 138 814 138 917.5 238 c 128,-1,31
 1021 338 1021 338 1044 536 c 2,32,-1
 1151 1468 l 1,33,-1
 1324 1468 l 1,34,-1
 1225 722 l 1,12,-1
EndSplineSet
Position2: "'cpsp' Capital Spacing lookup 0 subtable" dx=16 dy=0 dh=33 dv=0
EndChar

StartChar: Ucircumflex
Encoding: 219 219 157
Width: 1368
GlyphClass: 2
Flags: W
AnchorPoint: "Anchor-1" 0 0 basechar 0
AnchorPoint: "Anchor-0" 803 1468 basechar 0
LayerCount: 2
Fore
SplineSet
585 1679 m 1,0,-1
 558 1755 l 1,1,2
 679 1829 679 1829 844 1959 c 1,3,-1
 895 1959 l 1,4,5
 1000 1858 1000 1858 1138 1755 c 1,6,-1
 1092 1679 l 1,7,-1
 1073 1679 l 1,8,9
 976 1743 976 1743 860 1832 c 1,10,11
 697 1732 697 1732 606 1679 c 1,12,-1
 585 1679 l 1,0,-1
1225 722 m 1,13,-1
 1204 556 l 1,14,15
 1174 282 1174 282 1025.5 133 c 128,-1,16
 877 -16 877 -16 624 -16 c 0,17,18
 405 -16 405 -16 281.5 96 c 128,-1,19
 158 208 158 208 158 413 c 0,20,21
 158 471 158 471 168 536 c 1,22,-1
 195 736 l 1,23,-1
 282 1468 l 1,24,-1
 451 1468 l 1,25,-1
 330 558 l 1,26,27
 324 502 324 502 324 455 c 0,28,29
 324 138 324 138 635 138 c 0,30,31
 814 138 814 138 917.5 238 c 128,-1,32
 1021 338 1021 338 1044 536 c 2,33,-1
 1151 1468 l 1,34,-1
 1324 1468 l 1,35,-1
 1225 722 l 1,13,-1
EndSplineSet
Position2: "'cpsp' Capital Spacing lookup 0 subtable" dx=16 dy=0 dh=33 dv=0
EndChar

StartChar: Udieresis
Encoding: 220 220 158
Width: 1368
GlyphClass: 2
Flags: W
AnchorPoint: "Anchor-1" 0 0 basechar 0
AnchorPoint: "Anchor-0" 803 1468 basechar 0
LayerCount: 2
Fore
SplineSet
668 1906 m 0,0,1
 710 1906 710 1906 734.5 1880 c 128,-1,2
 759 1854 759 1854 759 1812 c 0,3,4
 759 1766 759 1766 732.5 1737.5 c 128,-1,5
 706 1709 706 1709 663 1709 c 0,6,7
 634 1709 634 1709 612.5 1721 c 128,-1,8
 591 1733 591 1733 580 1754.5 c 128,-1,9
 569 1776 569 1776 569 1805 c 0,10,11
 569 1852 569 1852 595.5 1879 c 128,-1,12
 622 1906 622 1906 668 1906 c 0,0,1
1035 1904 m 0,13,14
 1076 1904 1076 1904 1100 1878.5 c 128,-1,15
 1124 1853 1124 1853 1124 1810 c 0,16,17
 1124 1780 1124 1780 1112 1757 c 128,-1,18
 1100 1734 1100 1734 1078.5 1721.5 c 128,-1,19
 1057 1709 1057 1709 1028 1709 c 0,20,21
 984 1709 984 1709 959 1734 c 128,-1,22
 934 1759 934 1759 934 1803 c 0,23,24
 934 1834 934 1834 946 1856.5 c 128,-1,25
 958 1879 958 1879 980.5 1891.5 c 128,-1,26
 1003 1904 1003 1904 1035 1904 c 0,13,14
1225 722 m 1,27,-1
 1204 556 l 1,28,29
 1174 282 1174 282 1025.5 133 c 128,-1,30
 877 -16 877 -16 624 -16 c 0,31,32
 405 -16 405 -16 281.5 96 c 128,-1,33
 158 208 158 208 158 413 c 0,34,35
 158 471 158 471 168 536 c 1,36,-1
 195 736 l 1,37,-1
 282 1468 l 1,38,-1
 451 1468 l 1,39,-1
 330 558 l 1,40,41
 324 502 324 502 324 455 c 0,42,43
 324 138 324 138 635 138 c 0,44,45
 814 138 814 138 917.5 238 c 128,-1,46
 1021 338 1021 338 1044 536 c 2,47,-1
 1151 1468 l 1,48,-1
 1324 1468 l 1,49,-1
 1225 722 l 1,27,-1
EndSplineSet
Position2: "'cpsp' Capital Spacing lookup 0 subtable" dx=16 dy=0 dh=33 dv=0
EndChar

StartChar: Yacute
Encoding: 221 221 159
Width: 1151
GlyphClass: 2
Flags: W
AnchorPoint: "Anchor-1" 0 0 basechar 0
AnchorPoint: "Anchor-0" 695 1468 basechar 0
LayerCount: 2
Fore
SplineSet
541 1661 m 1,0,-1
 510 1738 l 1,1,2
 744 1855 744 1855 948 1975 c 1,3,-1
 965 1970 l 1,4,-1
 1011 1869 l 1,5,-1
 1005 1849 l 1,6,7
 951 1823 951 1823 887.5 1794.5 c 128,-1,8
 824 1766 824 1766 785 1748.5 c 128,-1,9
 746 1731 746 1731 667.5 1697.5 c 128,-1,10
 589 1664 589 1664 562 1652 c 1,11,-1
 541 1661 l 1,0,-1
635 534 m 1,12,-1
 619 429 l 1,13,-1
 571 0 l 1,14,-1
 399 0 l 1,15,-1
 466 429 l 1,16,-1
 477 536 l 1,17,-1
 151 1468 l 1,18,-1
 333 1468 l 1,19,-1
 348 1388 l 1,20,-1
 573 720 l 1,21,-1
 589 720 l 1,22,-1
 1007 1383 l 1,23,-1
 1051 1468 l 1,24,-1
 1239 1468 l 1,25,-1
 635 534 l 1,12,-1
EndSplineSet
Ligature2: "'liga' Standard Ligatures lookup 30 subtable" acute Y
Position2: "'cpsp' Capital Spacing lookup 0 subtable" dx=16 dy=0 dh=33 dv=0
EndChar

StartChar: Thorn
Encoding: 222 222 160
Width: 1151
GlyphClass: 2
Flags: W
LayerCount: 2
Fore
SplineSet
468 1211 m 1,0,-1
 711 1213 l 1,1,2
 897 1213 897 1213 1001 1117.5 c 128,-1,3
 1105 1022 1105 1022 1105 834 c 0,4,5
 1105 711 1105 711 1065 606 c 128,-1,6
 1025 501 1025 501 950.5 425.5 c 128,-1,7
 876 350 876 350 765.5 307 c 128,-1,8
 655 264 655 264 521 264 c 2,9,-1
 346 264 l 1,10,-1
 319 0 l 1,11,-1
 147 0 l 1,12,-1
 211 442 l 1,13,-1
 333 1468 l 1,14,-1
 503 1468 l 1,15,-1
 468 1211 l 1,0,-1
363 409 m 1,16,-1
 619 403 l 1,17,18
 759 423 759 423 843.5 534 c 128,-1,19
 928 645 928 645 928 812 c 0,20,21
 928 937 928 937 867.5 1000.5 c 128,-1,22
 807 1064 807 1064 672 1071 c 1,23,-1
 449 1066 l 1,24,-1
 367 457 l 1,25,-1
 363 409 l 1,16,-1
EndSplineSet
Position2: "'cpsp' Capital Spacing lookup 0 subtable" dx=16 dy=0 dh=33 dv=0
EndChar

StartChar: germandbls
Encoding: 223 223 161
Width: 1261
GlyphClass: 2
Flags: W
LayerCount: 2
Fore
SplineSet
832 808 m 0,0,1
 832 772 832 772 850.5 738 c 128,-1,2
 869 704 869 704 898.5 675.5 c 128,-1,3
 928 647 928 647 963 618 c 128,-1,4
 998 589 998 589 1033.5 556 c 128,-1,5
 1069 523 1069 523 1098.5 487.5 c 128,-1,6
 1128 452 1128 452 1146.5 404 c 128,-1,7
 1165 356 1165 356 1165 302 c 0,8,9
 1165 167 1165 167 1055.5 75.5 c 128,-1,10
 946 -16 946 -16 777 -18 c 1,11,12
 650 -5 650 -5 541 59 c 1,13,-1
 578 213 l 1,14,-1
 601 225 l 1,15,16
 633 185 633 185 669.5 156.5 c 128,-1,17
 706 128 706 128 746.5 113.5 c 128,-1,18
 787 99 787 99 828 99 c 0,19,20
 908 99 908 99 962 148.5 c 128,-1,21
 1016 198 1016 198 1016 271 c 0,22,23
 1016 309 1016 309 997.5 344 c 128,-1,24
 979 379 979 379 949.5 408 c 128,-1,25
 920 437 920 437 884.5 466.5 c 128,-1,26
 849 496 849 496 813.5 528 c 128,-1,27
 778 560 778 560 748.5 595 c 128,-1,28
 719 630 719 630 701 677 c 128,-1,29
 683 724 683 724 683 777 c 0,30,31
 683 835 683 835 699 884.5 c 128,-1,32
 715 934 715 934 740 970 c 128,-1,33
 765 1006 765 1006 796 1038.5 c 128,-1,34
 827 1071 827 1071 857.5 1101 c 128,-1,35
 888 1131 888 1131 913 1162 c 128,-1,36
 938 1193 938 1193 954 1232.5 c 128,-1,37
 970 1272 970 1272 970 1317 c 0,38,39
 970 1480 970 1480 773 1480 c 0,40,41
 660 1480 660 1480 585.5 1421.5 c 128,-1,42
 511 1363 511 1363 491 1252 c 1,43,-1
 385 457 l 1,44,-1
 317 -32 l 1,45,-1
 305 -278 l 1,46,-1
 133 -291 l 1,47,-1
 234 436 l 1,48,-1
 300 917 l 1,49,-1
 140 917 l 1,50,-1
 129 928 l 1,51,-1
 144 1033 l 1,52,-1
 315 1033 l 1,53,-1
 339 1211 l 2,54,55
 365 1405 365 1405 482.5 1510 c 128,-1,56
 600 1615 600 1615 790 1615 c 0,57,58
 895 1615 895 1615 970.5 1583 c 128,-1,59
 1046 1551 1046 1551 1086.5 1488.5 c 128,-1,60
 1127 1426 1127 1426 1127 1337 c 0,61,62
 1127 1280 1127 1280 1110.5 1230 c 128,-1,63
 1094 1180 1094 1180 1068 1144 c 128,-1,64
 1042 1108 1042 1108 1010.5 1075 c 128,-1,65
 979 1042 979 1042 948 1012.5 c 128,-1,66
 917 983 917 983 891 953 c 128,-1,67
 865 923 865 923 848.5 886 c 128,-1,68
 832 849 832 849 832 808 c 0,0,1
EndSplineSet
Substitution2: "Single Substitution lookup 41 subtable" germandbls.calt
Substitution2: "'case' Case-Sensitive Forms lookup 28 subtable" Germandbls
Substitution2: "'aalt' Access All Alternates lookup 0 subtable" Germandbls
EndChar

StartChar: agrave
Encoding: 224 224 162
Width: 1006
GlyphClass: 2
Flags: W
AnchorPoint: "Anchor-1" 0 0 basechar 0
AnchorPoint: "Anchor-0" 568 1052 basechar 0
LayerCount: 2
Fore
SplineSet
768 1195 m 1,0,-1
 750 1193 l 1,1,2
 583 1310 583 1310 363 1484 c 1,3,-1
 361 1504 l 1,4,-1
 424 1594 l 1,5,-1
 442 1596 l 1,6,7
 607 1437 607 1437 816 1263 c 1,8,-1
 768 1195 l 1,0,-1
897 1055 m 1,9,-1
 782 250 l 1,10,-1
 771 7 l 1,11,-1
 599 -9 l 1,12,-1
 665 461 l 1,13,-1
 642 461 l 1,14,15
 479 175 479 175 282 -16 c 1,16,-1
 250 -16 l 1,17,18
 76 81 76 81 76 344 c 0,19,20
 76 424 76 424 91 504 c 128,-1,21
 106 584 106 584 135.5 660 c 128,-1,22
 165 736 165 736 210.5 803.5 c 128,-1,23
 256 871 256 871 314.5 924.5 c 128,-1,24
 373 978 373 978 449.5 1015 c 128,-1,25
 526 1052 526 1052 613 1066 c 1,26,-1
 624 1066 l 1,27,-1
 766 1016 l 1,28,-1
 874 1068 l 1,29,-1
 897 1055 l 1,9,-1
298 172 m 0,30,31
 313 172 313 172 342.5 197 c 128,-1,32
 372 222 372 222 414.5 275 c 128,-1,33
 457 328 457 328 504.5 400.5 c 128,-1,34
 552 473 552 473 607.5 580 c 128,-1,35
 663 687 663 687 713 808 c 1,36,-1
 716 821 l 1,37,-1
 718 876 l 1,38,-1
 578 926 l 1,39,40
 472 926 472 926 392 852 c 128,-1,41
 312 778 312 778 272 657 c 128,-1,42
 232 536 232 536 232 388 c 0,43,44
 232 339 232 339 236 300 c 128,-1,45
 240 261 240 261 247 238 c 128,-1,46
 254 215 254 215 263 199.5 c 128,-1,47
 272 184 272 184 280.5 178 c 128,-1,48
 289 172 289 172 298 172 c 0,30,31
EndSplineSet
Substitution2: "'case' Case-Sensitive Forms lookup 28 subtable" Agrave
Substitution2: "'aalt' Access All Alternates lookup 0 subtable" Agrave
EndChar

StartChar: aacute
Encoding: 225 225 163
Width: 1006
GlyphClass: 2
Flags: W
AnchorPoint: "Anchor-1" 0 0 basechar 0
AnchorPoint: "Anchor-0" 568 1052 basechar 0
LayerCount: 2
Fore
SplineSet
433 1195 m 1,0,-1
 385 1263 l 1,1,2
 598 1440 598 1440 757 1596 c 1,3,-1
 777 1594 l 1,4,-1
 842 1504 l 1,5,-1
 838 1484 l 1,6,7
 609 1303 609 1303 451 1193 c 1,8,-1
 433 1195 l 1,0,-1
897 1055 m 1,9,-1
 782 250 l 1,10,-1
 771 7 l 1,11,-1
 599 -9 l 1,12,-1
 665 461 l 1,13,-1
 642 461 l 1,14,15
 479 175 479 175 282 -16 c 1,16,-1
 250 -16 l 1,17,18
 76 81 76 81 76 344 c 0,19,20
 76 424 76 424 91 504 c 128,-1,21
 106 584 106 584 135.5 660 c 128,-1,22
 165 736 165 736 210.5 803.5 c 128,-1,23
 256 871 256 871 314.5 924.5 c 128,-1,24
 373 978 373 978 449.5 1015 c 128,-1,25
 526 1052 526 1052 613 1066 c 1,26,-1
 624 1066 l 1,27,-1
 766 1016 l 1,28,-1
 874 1068 l 1,29,-1
 897 1055 l 1,9,-1
298 172 m 0,30,31
 313 172 313 172 342.5 197 c 128,-1,32
 372 222 372 222 414.5 275 c 128,-1,33
 457 328 457 328 504.5 400.5 c 128,-1,34
 552 473 552 473 607.5 580 c 128,-1,35
 663 687 663 687 713 808 c 1,36,-1
 716 821 l 1,37,-1
 718 876 l 1,38,-1
 578 926 l 1,39,40
 472 926 472 926 392 852 c 128,-1,41
 312 778 312 778 272 657 c 128,-1,42
 232 536 232 536 232 388 c 0,43,44
 232 339 232 339 236 300 c 128,-1,45
 240 261 240 261 247 238 c 128,-1,46
 254 215 254 215 263 199.5 c 128,-1,47
 272 184 272 184 280.5 178 c 128,-1,48
 289 172 289 172 298 172 c 0,30,31
EndSplineSet
Substitution2: "'case' Case-Sensitive Forms lookup 28 subtable" Aacute
Substitution2: "'aalt' Access All Alternates lookup 0 subtable" Aacute
EndChar

StartChar: acircumflex
Encoding: 226 226 164
Width: 1006
GlyphClass: 2
Flags: W
AnchorPoint: "Anchor-1" 0 0 basechar 0
AnchorPoint: "Anchor-0" 568 1052 basechar 0
LayerCount: 2
Fore
SplineSet
346 1197 m 1,0,-1
 307 1266 l 1,1,2
 437 1384 437 1384 619 1574 c 1,3,-1
 672 1574 l 1,4,5
 790 1404 790 1404 908 1266 c 1,6,-1
 853 1197 l 1,7,-1
 834 1197 l 1,8,9
 725 1310 725 1310 631 1438 c 1,10,11
 528 1335 528 1335 367 1197 c 1,12,-1
 346 1197 l 1,0,-1
874 1068 m 1,13,-1
 897 1055 l 1,14,-1
 782 250 l 1,15,-1
 771 7 l 1,16,-1
 599 -9 l 1,17,-1
 665 461 l 1,18,-1
 642 461 l 1,19,20
 479 175 479 175 282 -16 c 1,21,-1
 250 -16 l 1,22,23
 76 81 76 81 76 344 c 0,24,25
 76 424 76 424 91 504 c 128,-1,26
 106 584 106 584 135.5 660 c 128,-1,27
 165 736 165 736 210.5 803.5 c 128,-1,28
 256 871 256 871 314.5 924.5 c 128,-1,29
 373 978 373 978 449.5 1015 c 128,-1,30
 526 1052 526 1052 613 1066 c 1,31,-1
 624 1066 l 1,32,-1
 766 1016 l 1,33,-1
 874 1068 l 1,13,-1
298 172 m 0,34,35
 313 172 313 172 342.5 197 c 128,-1,36
 372 222 372 222 414.5 275 c 128,-1,37
 457 328 457 328 504.5 400.5 c 128,-1,38
 552 473 552 473 607.5 580 c 128,-1,39
 663 687 663 687 713 808 c 1,40,-1
 716 821 l 1,41,-1
 718 876 l 1,42,-1
 578 926 l 1,43,44
 472 926 472 926 392 852 c 128,-1,45
 312 778 312 778 272 657 c 128,-1,46
 232 536 232 536 232 388 c 0,47,48
 232 339 232 339 236 300 c 128,-1,49
 240 261 240 261 247 238 c 128,-1,50
 254 215 254 215 263 199.5 c 128,-1,51
 272 184 272 184 280.5 178 c 128,-1,52
 289 172 289 172 298 172 c 0,34,35
EndSplineSet
Substitution2: "'case' Case-Sensitive Forms lookup 28 subtable" Acircumflex
Substitution2: "'aalt' Access All Alternates lookup 0 subtable" Acircumflex
EndChar

StartChar: atilde
Encoding: 227 227 165
Width: 1006
GlyphClass: 2
Flags: W
AnchorPoint: "Anchor-1" 0 0 basechar 0
AnchorPoint: "Anchor-0" 568 1052 basechar 0
LayerCount: 2
Fore
SplineSet
968 1471 m 1,0,-1
 968 1454 l 1,1,-1
 828 1300 l 1,2,-1
 808 1291 l 1,3,4
 761 1297 761 1297 621.5 1336.5 c 128,-1,5
 482 1376 482 1376 451 1376 c 0,6,7
 444 1376 444 1376 436.5 1373.5 c 128,-1,8
 429 1371 429 1371 420.5 1365.5 c 128,-1,9
 412 1360 412 1360 404.5 1353.5 c 128,-1,10
 397 1347 397 1347 387 1336.5 c 128,-1,11
 377 1326 377 1326 368.5 1317 c 128,-1,12
 360 1308 360 1308 347 1294.5 c 128,-1,13
 334 1281 334 1281 324 1271 c 1,14,-1
 302 1271 l 1,15,-1
 250 1328 l 1,16,-1
 250 1344 l 1,17,-1
 390 1497 l 1,18,-1
 411 1504 l 1,19,20
 459 1499 459 1499 598 1460.5 c 128,-1,21
 737 1422 737 1422 766 1422 c 0,22,23
 776 1422 776 1422 786.5 1426.5 c 128,-1,24
 797 1431 797 1431 811 1443.5 c 128,-1,25
 825 1456 825 1456 834 1464.5 c 128,-1,26
 843 1473 843 1473 865 1495 c 128,-1,27
 887 1517 887 1517 897 1528 c 1,28,-1
 913 1528 l 1,29,-1
 968 1471 l 1,0,-1
874 1068 m 1,30,-1
 897 1055 l 1,31,-1
 782 250 l 1,32,-1
 771 7 l 1,33,-1
 599 -9 l 1,34,-1
 665 461 l 1,35,-1
 642 461 l 1,36,37
 479 175 479 175 282 -16 c 1,38,-1
 250 -16 l 1,39,40
 76 81 76 81 76 344 c 0,41,42
 76 424 76 424 91 504 c 128,-1,43
 106 584 106 584 135.5 660 c 128,-1,44
 165 736 165 736 210.5 803.5 c 128,-1,45
 256 871 256 871 314.5 924.5 c 128,-1,46
 373 978 373 978 449.5 1015 c 128,-1,47
 526 1052 526 1052 613 1066 c 1,48,-1
 624 1066 l 1,49,-1
 766 1016 l 1,50,-1
 874 1068 l 1,30,-1
298 172 m 0,51,52
 313 172 313 172 342.5 197 c 128,-1,53
 372 222 372 222 414.5 275 c 128,-1,54
 457 328 457 328 504.5 400.5 c 128,-1,55
 552 473 552 473 607.5 580 c 128,-1,56
 663 687 663 687 713 808 c 1,57,-1
 716 821 l 1,58,-1
 718 876 l 1,59,-1
 578 926 l 1,60,61
 472 926 472 926 392 852 c 128,-1,62
 312 778 312 778 272 657 c 128,-1,63
 232 536 232 536 232 388 c 0,64,65
 232 339 232 339 236 300 c 128,-1,66
 240 261 240 261 247 238 c 128,-1,67
 254 215 254 215 263 199.5 c 128,-1,68
 272 184 272 184 280.5 178 c 128,-1,69
 289 172 289 172 298 172 c 0,51,52
EndSplineSet
Substitution2: "'case' Case-Sensitive Forms lookup 28 subtable" Atilde
Substitution2: "'aalt' Access All Alternates lookup 0 subtable" Atilde
EndChar

StartChar: adieresis
Encoding: 228 228 166
Width: 1006
GlyphClass: 2
Flags: W
AnchorPoint: "Anchor-1" 0 0 basechar 0
AnchorPoint: "Anchor-0" 568 1052 basechar 0
LayerCount: 2
Fore
SplineSet
427 1294 m 0,0,1
 382 1294 382 1294 357.5 1319.5 c 128,-1,2
 333 1345 333 1345 333 1390 c 0,3,4
 333 1436 333 1436 359 1463.5 c 128,-1,5
 385 1491 385 1491 431 1491 c 0,6,7
 473 1491 473 1491 498 1464.5 c 128,-1,8
 523 1438 523 1438 523 1397 c 0,9,10
 523 1351 523 1351 496.5 1322.5 c 128,-1,11
 470 1294 470 1294 427 1294 c 0,0,1
792 1294 m 0,12,13
 747 1294 747 1294 722.5 1318.5 c 128,-1,14
 698 1343 698 1343 698 1388 c 0,15,16
 698 1434 698 1434 724.5 1461 c 128,-1,17
 751 1488 751 1488 799 1488 c 0,18,19
 840 1488 840 1488 864 1462.5 c 128,-1,20
 888 1437 888 1437 888 1394 c 0,21,22
 888 1349 888 1349 861.5 1321.5 c 128,-1,23
 835 1294 835 1294 792 1294 c 0,12,13
897 1055 m 1,24,-1
 782 250 l 1,25,-1
 771 7 l 1,26,-1
 599 -9 l 1,27,-1
 665 461 l 1,28,-1
 642 461 l 1,29,30
 479 175 479 175 282 -16 c 1,31,-1
 250 -16 l 1,32,33
 76 81 76 81 76 344 c 0,34,35
 76 424 76 424 91 504 c 128,-1,36
 106 584 106 584 135.5 660 c 128,-1,37
 165 736 165 736 210.5 803.5 c 128,-1,38
 256 871 256 871 314.5 924.5 c 128,-1,39
 373 978 373 978 449.5 1015 c 128,-1,40
 526 1052 526 1052 613 1066 c 1,41,-1
 624 1066 l 1,42,-1
 766 1016 l 1,43,-1
 874 1068 l 1,44,-1
 897 1055 l 1,24,-1
298 172 m 0,45,46
 313 172 313 172 342.5 197 c 128,-1,47
 372 222 372 222 414.5 275 c 128,-1,48
 457 328 457 328 504.5 400.5 c 128,-1,49
 552 473 552 473 607.5 580 c 128,-1,50
 663 687 663 687 713 808 c 1,51,-1
 716 821 l 1,52,-1
 718 876 l 1,53,-1
 578 926 l 1,54,55
 472 926 472 926 392 852 c 128,-1,56
 312 778 312 778 272 657 c 128,-1,57
 232 536 232 536 232 388 c 0,58,59
 232 339 232 339 236 300 c 128,-1,60
 240 261 240 261 247 238 c 128,-1,61
 254 215 254 215 263 199.5 c 128,-1,62
 272 184 272 184 280.5 178 c 128,-1,63
 289 172 289 172 298 172 c 0,45,46
EndSplineSet
Substitution2: "'case' Case-Sensitive Forms lookup 28 subtable" Adieresis
Substitution2: "'aalt' Access All Alternates lookup 0 subtable" Adieresis
EndChar

StartChar: aring
Encoding: 229 229 167
Width: 1006
GlyphClass: 2
Flags: W
AnchorPoint: "Anchor-1" 0 0 basechar 0
AnchorPoint: "Anchor-0" 568 1052 basechar 0
LayerCount: 2
Fore
SplineSet
608 1223 m 0,0,1
 527 1223 527 1223 474.5 1272 c 128,-1,2
 422 1321 422 1321 422 1408 c 0,3,4
 422 1493 422 1493 473.5 1544.5 c 128,-1,5
 525 1596 525 1596 613 1596 c 0,6,7
 673 1596 673 1596 716 1571.5 c 128,-1,8
 759 1547 759 1547 780 1506.5 c 128,-1,9
 801 1466 801 1466 801 1413 c 0,10,11
 801 1325 801 1325 746.5 1274 c 128,-1,12
 692 1223 692 1223 608 1223 c 0,0,1
610 1510 m 0,13,14
 560 1510 560 1510 533.5 1484 c 128,-1,15
 507 1458 507 1458 507 1411 c 0,16,17
 507 1361 507 1361 536 1333 c 128,-1,18
 565 1305 565 1305 613 1305 c 0,19,20
 635 1305 635 1305 654 1311.5 c 128,-1,21
 673 1318 673 1318 686.5 1330.5 c 128,-1,22
 700 1343 700 1343 708 1362 c 128,-1,23
 716 1381 716 1381 716 1406 c 0,24,25
 716 1452 716 1452 688.5 1481 c 128,-1,26
 661 1510 661 1510 610 1510 c 0,13,14
897 1055 m 1,27,-1
 782 250 l 1,28,-1
 771 7 l 1,29,-1
 599 -9 l 1,30,-1
 665 461 l 1,31,-1
 642 461 l 1,32,33
 479 175 479 175 282 -16 c 1,34,-1
 250 -16 l 1,35,36
 76 81 76 81 76 344 c 0,37,38
 76 424 76 424 91 504 c 128,-1,39
 106 584 106 584 135.5 660 c 128,-1,40
 165 736 165 736 210.5 803.5 c 128,-1,41
 256 871 256 871 314.5 924.5 c 128,-1,42
 373 978 373 978 449.5 1015 c 128,-1,43
 526 1052 526 1052 613 1066 c 1,44,-1
 624 1066 l 1,45,-1
 766 1016 l 1,46,-1
 874 1068 l 1,47,-1
 897 1055 l 1,27,-1
298 172 m 0,48,49
 313 172 313 172 342.5 197 c 128,-1,50
 372 222 372 222 414.5 275 c 128,-1,51
 457 328 457 328 504.5 400.5 c 128,-1,52
 552 473 552 473 607.5 580 c 128,-1,53
 663 687 663 687 713 808 c 1,54,-1
 716 821 l 1,55,-1
 718 876 l 1,56,-1
 578 926 l 1,57,58
 472 926 472 926 392 852 c 128,-1,59
 312 778 312 778 272 657 c 128,-1,60
 232 536 232 536 232 388 c 0,61,62
 232 339 232 339 236 300 c 128,-1,63
 240 261 240 261 247 238 c 128,-1,64
 254 215 254 215 263 199.5 c 128,-1,65
 272 184 272 184 280.5 178 c 128,-1,66
 289 172 289 172 298 172 c 0,48,49
EndSplineSet
Substitution2: "'case' Case-Sensitive Forms lookup 28 subtable" Aring
Substitution2: "'aalt' Access All Alternates lookup 0 subtable" Aring
EndChar

StartChar: ae
Encoding: 230 230 168
Width: 1396
GlyphClass: 2
Flags: W
AnchorPoint: "Anchor-1" 1403 0 basechar 0
AnchorPoint: "Anchor-0" 807 1052 basechar 0
LayerCount: 2
Fore
SplineSet
644 1066 m 1,0,-1
 886 977 l 1,1,2
 1001 1062 1001 1062 1147 1068 c 1,3,-1
 1167 1066 l 1,4,5
 1263 1053 1263 1053 1314 1001.5 c 128,-1,6
 1365 950 1365 950 1365 862 c 0,7,8
 1365 729 1365 729 1226 614 c 128,-1,9
 1087 499 1087 499 794 399 c 1,10,-1
 794 370 l 1,11,12
 799 245 799 245 836 187 c 128,-1,13
 873 129 873 129 943 129 c 0,14,15
 1021 129 1021 129 1097.5 189 c 128,-1,16
 1174 249 1174 249 1221 344 c 1,17,-1
 1248 342 l 1,18,-1
 1305 261 l 1,19,20
 1145 31 1145 31 945 -16 c 1,21,-1
 917 -16 l 1,22,23
 764 1 764 1 698.5 95.5 c 128,-1,24
 633 190 633 190 633 367 c 2,25,-1
 633 411 l 1,26,27
 474 147 474 147 298 -16 c 1,28,-1
 267 -16 l 1,29,30
 92 84 92 84 92 344 c 0,31,32
 92 441 92 441 113 536 c 128,-1,33
 134 631 134 631 178 719.5 c 128,-1,34
 222 808 222 808 285 879 c 128,-1,35
 348 950 348 950 437.5 1000 c 128,-1,36
 527 1050 527 1050 633 1066 c 1,37,-1
 644 1066 l 1,0,-1
1103 945 m 0,38,39
 987 945 987 945 905.5 831.5 c 128,-1,40
 824 718 824 718 801 528 c 1,41,42
 1002 591 1002 591 1106.5 673.5 c 128,-1,43
 1211 756 1211 756 1211 851 c 0,44,45
 1211 945 1211 945 1103 945 c 0,38,39
773 860 m 1,46,-1
 599 926 l 1,47,48
 491 926 491 926 409.5 852.5 c 128,-1,49
 328 779 328 779 286.5 658 c 128,-1,50
 245 537 245 537 245 390 c 0,51,52
 245 340 245 340 249.5 301 c 128,-1,53
 254 262 254 262 261.5 238.5 c 128,-1,54
 269 215 269 215 278.5 199.5 c 128,-1,55
 288 184 288 184 297 178 c 128,-1,56
 306 172 306 172 315 172 c 0,57,58
 334 172 334 172 373.5 210.5 c 128,-1,59
 413 249 413 249 465 317.5 c 128,-1,60
 517 386 517 386 582 501.5 c 128,-1,61
 647 617 647 617 707 753 c 1,62,63
 746 829 746 829 773 860 c 1,46,-1
EndSplineSet
Substitution2: "'case' Case-Sensitive Forms lookup 28 subtable" AE
Substitution2: "'aalt' Access All Alternates lookup 0 subtable" AE
EndChar

StartChar: ccedilla
Encoding: 231 231 169
Width: 766
GlyphClass: 2
Flags: W
AnchorPoint: "Anchor-1" 392 0 basechar 0
AnchorPoint: "Anchor-0" 529 1052 basechar 0
LayerCount: 2
Fore
SplineSet
773 993 m 1,0,-1
 727 858 l 1,1,-1
 690 851 l 1,2,3
 667 875 667 875 647 890.5 c 128,-1,4
 627 906 627 906 608 915 c 128,-1,5
 589 924 589 924 571.5 927.5 c 128,-1,6
 554 931 554 931 534 931 c 0,7,8
 399 931 399 931 319 786.5 c 128,-1,9
 239 642 239 642 239 392 c 0,10,11
 239 250 239 250 271 189.5 c 128,-1,12
 303 129 303 129 372 129 c 0,13,14
 497 129 497 129 608 337 c 1,15,-1
 633 337 l 1,16,-1
 688 259 l 1,17,18
 625 154 625 154 560 94 c 128,-1,19
 495 34 495 34 413 2 c 1,20,-1
 379 -116 l 1,21,-1
 455 -162 l 1,22,23
 541 -209 541 -209 541 -289 c 0,24,25
 541 -356 541 -356 490.5 -397 c 128,-1,26
 440 -438 440 -438 361 -438 c 0,27,28
 261 -438 261 -438 195 -367 c 1,29,-1
 213 -280 l 1,30,-1
 225 -276 l 1,31,32
 256 -312 256 -312 284 -329 c 128,-1,33
 312 -346 312 -346 351 -346 c 0,34,35
 385 -346 385 -346 406 -330 c 128,-1,36
 427 -314 427 -314 427 -284 c 0,37,38
 427 -263 427 -263 414.5 -251 c 128,-1,39
 402 -239 402 -239 376 -227 c 1,40,-1
 269 -160 l 1,41,-1
 307 -11 l 1,42,43
 248 2 248 2 207 25.5 c 128,-1,44
 166 49 166 49 136 91.5 c 128,-1,45
 106 134 106 134 92 201 c 128,-1,46
 78 268 78 268 78 363 c 0,47,48
 78 480 78 480 98 583 c 128,-1,49
 118 686 118 686 160 775 c 128,-1,50
 202 864 202 864 263.5 927.5 c 128,-1,51
 325 991 325 991 414.5 1027.5 c 128,-1,52
 504 1064 504 1064 613 1064 c 1,53,-1
 759 1018 l 1,54,-1
 773 993 l 1,0,-1
EndSplineSet
Substitution2: "'case' Case-Sensitive Forms lookup 28 subtable" Ccedilla
Substitution2: "'aalt' Access All Alternates lookup 0 subtable" Ccedilla
EndChar

StartChar: egrave
Encoding: 232 232 170
Width: 856
GlyphClass: 2
Flags: W
AnchorPoint: "Anchor-1" 385 0 basechar 0
AnchorPoint: "Anchor-0" 538 1052 basechar 0
LayerCount: 2
Fore
SplineSet
738 1195 m 1,0,-1
 720 1193 l 1,1,2
 553 1310 553 1310 333 1484 c 1,3,-1
 330 1504 l 1,4,-1
 394 1594 l 1,5,-1
 413 1596 l 1,6,7
 585 1430 585 1430 786 1263 c 1,8,-1
 738 1195 l 1,0,-1
688 342 m 1,9,-1
 746 261 l 1,10,11
 590 32 590 32 388 -16 c 1,12,-1
 357 -16 l 1,13,14
 78 7 78 7 78 353 c 0,15,16
 78 554 78 554 142 715 c 128,-1,17
 206 876 206 876 322.5 969.5 c 128,-1,18
 439 1063 439 1063 589 1068 c 1,19,-1
 610 1066 l 1,20,21
 657 1059 657 1059 692.5 1043 c 128,-1,22
 728 1027 728 1027 753.5 1002 c 128,-1,23
 779 977 779 977 792 941.5 c 128,-1,24
 805 906 805 906 805 862 c 0,25,26
 805 729 805 729 667.5 614 c 128,-1,27
 530 499 530 499 241 401 c 1,28,29
 241 259 241 259 276 194 c 128,-1,30
 311 129 311 129 385 129 c 0,31,32
 436 129 436 129 487.5 157 c 128,-1,33
 539 185 539 185 583.5 233 c 128,-1,34
 628 281 628 281 661 344 c 1,35,-1
 688 342 l 1,9,-1
545 945 m 0,36,37
 431 945 431 945 350.5 831.5 c 128,-1,38
 270 718 270 718 248 528 c 1,39,40
 346 560 346 560 422 597.5 c 128,-1,41
 498 635 498 635 549 675.5 c 128,-1,42
 600 716 600 716 626 760.5 c 128,-1,43
 652 805 652 805 652 851 c 0,44,45
 652 896 652 896 625.5 920.5 c 128,-1,46
 599 945 599 945 545 945 c 0,36,37
EndSplineSet
Substitution2: "'case' Case-Sensitive Forms lookup 28 subtable" Egrave
Substitution2: "'aalt' Access All Alternates lookup 0 subtable" Egrave
EndChar

StartChar: eacute
Encoding: 233 233 171
Width: 856
GlyphClass: 2
Flags: W
AnchorPoint: "Anchor-1" 385 0 basechar 0
AnchorPoint: "Anchor-0" 538 1052 basechar 0
LayerCount: 2
Fore
SplineSet
812 1504 m 1,0,-1
 808 1484 l 1,1,2
 570 1296 570 1296 422 1193 c 1,3,-1
 403 1195 l 1,4,-1
 355 1263 l 1,5,6
 568 1440 568 1440 727 1596 c 1,7,-1
 748 1594 l 1,8,-1
 812 1504 l 1,0,-1
805 862 m 0,9,10
 805 729 805 729 667.5 614 c 128,-1,11
 530 499 530 499 241 401 c 1,12,13
 241 259 241 259 276 194 c 128,-1,14
 311 129 311 129 385 129 c 0,15,16
 436 129 436 129 487.5 157 c 128,-1,17
 539 185 539 185 583.5 233 c 128,-1,18
 628 281 628 281 661 344 c 1,19,-1
 688 342 l 1,20,-1
 746 261 l 1,21,22
 590 32 590 32 388 -16 c 1,23,-1
 357 -16 l 1,24,25
 78 7 78 7 78 353 c 0,26,27
 78 554 78 554 142 715 c 128,-1,28
 206 876 206 876 322.5 969.5 c 128,-1,29
 439 1063 439 1063 589 1068 c 1,30,-1
 610 1066 l 1,31,32
 657 1059 657 1059 692.5 1043 c 128,-1,33
 728 1027 728 1027 753.5 1002 c 128,-1,34
 779 977 779 977 792 941.5 c 128,-1,35
 805 906 805 906 805 862 c 0,9,10
248 528 m 1,36,37
 346 560 346 560 422 597.5 c 128,-1,38
 498 635 498 635 549 675.5 c 128,-1,39
 600 716 600 716 626 760.5 c 128,-1,40
 652 805 652 805 652 851 c 0,41,42
 652 896 652 896 625.5 920.5 c 128,-1,43
 599 945 599 945 545 945 c 0,44,45
 431 945 431 945 350.5 831.5 c 128,-1,46
 270 718 270 718 248 528 c 1,36,37
EndSplineSet
Substitution2: "'case' Case-Sensitive Forms lookup 28 subtable" Eacute
Substitution2: "'aalt' Access All Alternates lookup 0 subtable" Eacute
EndChar

StartChar: ecircumflex
Encoding: 234 234 172
Width: 856
GlyphClass: 2
Flags: W
AnchorPoint: "Anchor-1" 385 0 basechar 0
AnchorPoint: "Anchor-0" 538 1052 basechar 0
LayerCount: 2
Fore
SplineSet
589 1574 m 1,0,-1
 642 1574 l 1,1,2
 759 1404 759 1404 878 1266 c 1,3,-1
 823 1197 l 1,4,-1
 805 1197 l 1,5,6
 696 1310 696 1310 601 1438 c 1,7,8
 506 1342 506 1342 337 1197 c 1,9,-1
 317 1197 l 1,10,-1
 278 1266 l 1,11,12
 399 1375 399 1375 589 1574 c 1,0,-1
805 862 m 0,13,14
 805 729 805 729 667.5 614 c 128,-1,15
 530 499 530 499 241 401 c 1,16,17
 241 259 241 259 276 194 c 128,-1,18
 311 129 311 129 385 129 c 0,19,20
 436 129 436 129 487.5 157 c 128,-1,21
 539 185 539 185 583.5 233 c 128,-1,22
 628 281 628 281 661 344 c 1,23,-1
 688 342 l 1,24,-1
 746 261 l 1,25,26
 590 32 590 32 388 -16 c 1,27,-1
 357 -16 l 1,28,29
 78 7 78 7 78 353 c 0,30,31
 78 554 78 554 142 715 c 128,-1,32
 206 876 206 876 322.5 969.5 c 128,-1,33
 439 1063 439 1063 589 1068 c 1,34,-1
 610 1066 l 1,35,36
 657 1059 657 1059 692.5 1043 c 128,-1,37
 728 1027 728 1027 753.5 1002 c 128,-1,38
 779 977 779 977 792 941.5 c 128,-1,39
 805 906 805 906 805 862 c 0,13,14
248 528 m 1,40,41
 346 560 346 560 422 597.5 c 128,-1,42
 498 635 498 635 549 675.5 c 128,-1,43
 600 716 600 716 626 760.5 c 128,-1,44
 652 805 652 805 652 851 c 0,45,46
 652 896 652 896 625.5 920.5 c 128,-1,47
 599 945 599 945 545 945 c 0,48,49
 431 945 431 945 350.5 831.5 c 128,-1,50
 270 718 270 718 248 528 c 1,40,41
EndSplineSet
Substitution2: "'case' Case-Sensitive Forms lookup 28 subtable" Ecircumflex
Substitution2: "'aalt' Access All Alternates lookup 0 subtable" Ecircumflex
EndChar

StartChar: edieresis
Encoding: 235 235 173
Width: 856
GlyphClass: 2
Flags: W
AnchorPoint: "Anchor-1" 385 0 basechar 0
AnchorPoint: "Anchor-0" 538 1052 basechar 0
LayerCount: 2
Fore
SplineSet
396 1294 m 0,0,1
 352 1294 352 1294 327 1319.5 c 128,-1,2
 302 1345 302 1345 302 1390 c 0,3,4
 302 1436 302 1436 328.5 1463.5 c 128,-1,5
 355 1491 355 1491 401 1491 c 0,6,7
 443 1491 443 1491 468 1464.5 c 128,-1,8
 493 1438 493 1438 493 1397 c 0,9,10
 493 1351 493 1351 466 1322.5 c 128,-1,11
 439 1294 439 1294 396 1294 c 0,0,1
768 1488 m 0,12,13
 795 1488 795 1488 815.5 1476.5 c 128,-1,14
 836 1465 836 1465 847 1444 c 128,-1,15
 858 1423 858 1423 858 1394 c 0,16,17
 858 1349 858 1349 831.5 1321.5 c 128,-1,18
 805 1294 805 1294 762 1294 c 0,19,20
 717 1294 717 1294 692.5 1318.5 c 128,-1,21
 668 1343 668 1343 668 1388 c 0,22,23
 668 1434 668 1434 694.5 1461 c 128,-1,24
 721 1488 721 1488 768 1488 c 0,12,13
805 862 m 0,25,26
 805 729 805 729 667.5 614 c 128,-1,27
 530 499 530 499 241 401 c 1,28,29
 241 259 241 259 276 194 c 128,-1,30
 311 129 311 129 385 129 c 0,31,32
 436 129 436 129 487.5 157 c 128,-1,33
 539 185 539 185 583.5 233 c 128,-1,34
 628 281 628 281 661 344 c 1,35,-1
 688 342 l 1,36,-1
 746 261 l 1,37,38
 590 32 590 32 388 -16 c 1,39,-1
 357 -16 l 1,40,41
 78 7 78 7 78 353 c 0,42,43
 78 554 78 554 142 715 c 128,-1,44
 206 876 206 876 322.5 969.5 c 128,-1,45
 439 1063 439 1063 589 1068 c 1,46,-1
 610 1066 l 1,47,48
 657 1059 657 1059 692.5 1043 c 128,-1,49
 728 1027 728 1027 753.5 1002 c 128,-1,50
 779 977 779 977 792 941.5 c 128,-1,51
 805 906 805 906 805 862 c 0,25,26
248 528 m 1,52,53
 346 560 346 560 422 597.5 c 128,-1,54
 498 635 498 635 549 675.5 c 128,-1,55
 600 716 600 716 626 760.5 c 128,-1,56
 652 805 652 805 652 851 c 0,57,58
 652 896 652 896 625.5 920.5 c 128,-1,59
 599 945 599 945 545 945 c 0,60,61
 431 945 431 945 350.5 831.5 c 128,-1,62
 270 718 270 718 248 528 c 1,52,53
EndSplineSet
Substitution2: "'case' Case-Sensitive Forms lookup 28 subtable" Edieresis
Substitution2: "'aalt' Access All Alternates lookup 0 subtable" Edieresis
EndChar

StartChar: igrave
Encoding: 236 236 174
Width: 499
GlyphClass: 2
Flags: W
AnchorPoint: "Anchor-1" 0 0 basechar 0
AnchorPoint: "Anchor-0" 312 1050 basechar 0
LayerCount: 2
Fore
SplineSet
168 1592 m 1,0,-1
 186 1594 l 1,1,2
 351 1434 351 1434 560 1261 c 1,3,-1
 512 1193 l 1,4,-1
 493 1191 l 1,5,6
 325 1308 325 1308 105 1482 c 1,7,-1
 103 1502 l 1,8,-1
 168 1592 l 1,0,-1
284 250 m 1,9,-1
 276 7 l 1,10,-1
 101 -9 l 1,11,-1
 221 823 l 1,12,-1
 230 1046 l 1,13,-1
 399 1062 l 1,14,-1
 284 250 l 1,9,-1
EndSplineSet
Substitution2: "'case' Case-Sensitive Forms lookup 28 subtable" Igrave
Substitution2: "'aalt' Access All Alternates lookup 0 subtable" Igrave
EndChar

StartChar: iacute
Encoding: 237 237 175
Width: 499
GlyphClass: 2
Flags: W
AnchorPoint: "Anchor-1" 0 0 basechar 0
AnchorPoint: "Anchor-0" 312 1050 basechar 0
LayerCount: 2
Fore
SplineSet
521 1592 m 1,0,-1
 585 1502 l 1,1,-1
 580 1482 l 1,2,3
 342 1294 342 1294 195 1191 c 1,4,-1
 177 1193 l 1,5,-1
 129 1261 l 1,6,7
 334 1432 334 1432 500 1594 c 1,8,-1
 521 1592 l 1,0,-1
284 250 m 1,9,-1
 276 7 l 1,10,-1
 101 -9 l 1,11,-1
 221 823 l 1,12,-1
 230 1046 l 1,13,-1
 399 1062 l 1,14,-1
 284 250 l 1,9,-1
EndSplineSet
Substitution2: "'case' Case-Sensitive Forms lookup 28 subtable" Iacute
Substitution2: "'aalt' Access All Alternates lookup 0 subtable" Iacute
EndChar

StartChar: icircumflex
Encoding: 238 238 176
Width: 499
GlyphClass: 2
Flags: W
AnchorPoint: "Anchor-1" 0 0 basechar 0
AnchorPoint: "Anchor-0" 312 1050 basechar 0
LayerCount: 2
Fore
SplineSet
90 1195 m 1,0,-1
 50 1263 l 1,1,2
 180 1381 180 1381 363 1571 c 1,3,-1
 416 1571 l 1,4,5
 533 1402 533 1402 652 1263 c 1,6,-1
 596 1195 l 1,7,-1
 578 1195 l 1,8,9
 469 1307 469 1307 374 1436 c 1,10,11
 278 1340 278 1340 110 1195 c 1,12,-1
 90 1195 l 1,0,-1
284 250 m 1,13,-1
 276 7 l 1,14,-1
 101 -9 l 1,15,-1
 221 823 l 1,16,-1
 230 1046 l 1,17,-1
 399 1062 l 1,18,-1
 284 250 l 1,13,-1
EndSplineSet
Substitution2: "'case' Case-Sensitive Forms lookup 28 subtable" Icircumflex
Substitution2: "'aalt' Access All Alternates lookup 0 subtable" Icircumflex
EndChar

StartChar: idieresis
Encoding: 239 239 177
Width: 499
GlyphClass: 2
Flags: W
AnchorPoint: "Anchor-1" 0 0 basechar 0
AnchorPoint: "Anchor-0" 312 1050 basechar 0
LayerCount: 2
Fore
SplineSet
216 1486 m 0,0,1
 243 1486 243 1486 263 1474.5 c 128,-1,2
 283 1463 283 1463 294 1442 c 128,-1,3
 305 1421 305 1421 305 1392 c 0,4,5
 305 1369 305 1369 298 1350.5 c 128,-1,6
 291 1332 291 1332 278.5 1319 c 128,-1,7
 266 1306 266 1306 248 1298.5 c 128,-1,8
 230 1291 230 1291 208 1291 c 0,9,10
 164 1291 164 1291 139 1316 c 128,-1,11
 114 1341 114 1341 114 1385 c 0,12,13
 114 1432 114 1432 142 1459 c 128,-1,14
 170 1486 170 1486 216 1486 c 0,0,1
500 1486 m 0,15,16
 542 1486 542 1486 566.5 1460.5 c 128,-1,17
 591 1435 591 1435 591 1392 c 0,18,19
 591 1362 591 1362 579 1339 c 128,-1,20
 567 1316 567 1316 545 1303.5 c 128,-1,21
 523 1291 523 1291 495 1291 c 0,22,23
 449 1291 449 1291 425 1316 c 128,-1,24
 401 1341 401 1341 401 1385 c 0,25,26
 401 1432 401 1432 427.5 1459 c 128,-1,27
 454 1486 454 1486 500 1486 c 0,15,16
284 250 m 1,28,-1
 276 7 l 1,29,-1
 101 -9 l 1,30,-1
 221 823 l 1,31,-1
 230 1046 l 1,32,-1
 399 1062 l 1,33,-1
 284 250 l 1,28,-1
EndSplineSet
Ligature2: "'liga' Standard Ligatures lookup 30 subtable" dieresis i
Substitution2: "'case' Case-Sensitive Forms lookup 28 subtable" Idieresis
Substitution2: "'aalt' Access All Alternates lookup 0 subtable" Idieresis
EndChar

StartChar: eth
Encoding: 240 240 178
Width: 1001
GlyphClass: 2
Flags: W
LayerCount: 2
Fore
SplineSet
899 1475 m 1,0,-1
 659 1357 l 1,1,2
 775 1226 775 1226 834.5 1064 c 128,-1,3
 894 902 894 902 893 718 c 1,4,5
 893 509 893 509 832.5 347 c 128,-1,6
 772 185 772 185 657.5 89.5 c 128,-1,7
 543 -6 543 -6 388 -20 c 1,8,-1
 367 -18 l 1,9,10
 234 7 234 7 169.5 91 c 128,-1,11
 105 175 105 175 105 342 c 0,12,13
 105 543 105 543 166 701 c 128,-1,14
 227 859 227 859 343 952 c 128,-1,15
 459 1045 459 1045 613 1053 c 1,16,-1
 631 1053 l 1,17,18
 660 1049 660 1049 674 1044 c 1,19,20
 618 1181 618 1181 512 1287 c 1,21,-1
 221 1147 l 1,22,-1
 206 1154 l 1,23,-1
 181 1239 l 1,24,-1
 429 1360 l 1,25,26
 315 1448 315 1448 170 1512 c 1,27,-1
 172 1534 l 1,28,-1
 287 1617 l 1,29,-1
 298 1617 l 1,30,31
 468 1539 468 1539 580 1434 c 1,32,-1
 856 1569 l 1,33,-1
 871 1562 l 1,34,-1
 899 1475 l 1,0,-1
409 110 m 0,35,36
 512 110 512 110 586 185.5 c 128,-1,37
 660 261 660 261 697.5 395 c 128,-1,38
 735 529 735 529 736 709 c 0,39,40
 736 781 736 781 725 865 c 1,41,42
 685 936 685 936 589 936 c 0,43,44
 485 936 485 936 409.5 861.5 c 128,-1,45
 334 787 334 787 296.5 654 c 128,-1,46
 259 521 259 521 259 344 c 0,47,48
 259 261 259 261 274.5 209.5 c 128,-1,49
 290 158 290 158 323 134 c 128,-1,50
 356 110 356 110 409 110 c 0,35,36
EndSplineSet
Substitution2: "'case' Case-Sensitive Forms lookup 28 subtable" Eth
Substitution2: "'aalt' Access All Alternates lookup 0 subtable" Eth
EndChar

StartChar: ntilde
Encoding: 241 241 179
Width: 1070
GlyphClass: 2
Flags: W
AnchorPoint: "Anchor-1" 477 0 basechar 0
AnchorPoint: "Anchor-0" 605 1050 basechar 0
LayerCount: 2
Fore
SplineSet
1005 1468 m 1,0,-1
 1005 1452 l 1,1,-1
 865 1298 l 1,2,-1
 844 1289 l 1,3,4
 798 1295 798 1295 658.5 1334.5 c 128,-1,5
 519 1374 519 1374 488 1374 c 0,6,7
 478 1374 478 1374 467.5 1369.5 c 128,-1,8
 457 1365 457 1365 444 1353.5 c 128,-1,9
 431 1342 431 1342 421 1331.5 c 128,-1,10
 411 1321 411 1321 392 1301 c 128,-1,11
 373 1281 373 1281 361 1269 c 1,12,-1
 339 1269 l 1,13,-1
 287 1326 l 1,14,-1
 287 1342 l 1,15,-1
 427 1495 l 1,16,-1
 447 1502 l 1,17,18
 495 1496 495 1496 634.5 1458 c 128,-1,19
 774 1420 774 1420 803 1420 c 0,20,21
 811 1420 811 1420 821 1424 c 128,-1,22
 831 1428 831 1428 839 1433.5 c 128,-1,23
 847 1439 847 1439 859.5 1451 c 128,-1,24
 872 1463 872 1463 881 1471.5 c 128,-1,25
 890 1480 890 1480 906.5 1497.5 c 128,-1,26
 923 1515 923 1515 934 1525 c 1,27,-1
 950 1525 l 1,28,-1
 1005 1468 l 1,0,-1
748 1066 m 1,29,-1
 773 1066 l 1,30,31
 853 1048 853 1048 903 996 c 128,-1,32
 953 944 953 944 950 867 c 1,33,-1
 948 838 l 1,34,-1
 853 248 l 1,35,-1
 840 7 l 1,36,-1
 663 -9 l 1,37,-1
 790 775 l 1,38,-1
 792 805 l 1,39,40
 792 876 792 876 744 876 c 0,41,42
 677 876 677 876 556 708.5 c 128,-1,43
 435 541 435 541 287 232 c 1,44,-1
 276 7 l 1,45,-1
 101 -9 l 1,46,-1
 221 823 l 1,47,-1
 232 1046 l 1,48,-1
 399 1062 l 1,49,-1
 328 545 l 1,50,-1
 348 545 l 1,51,52
 464 745 464 745 557 867.5 c 128,-1,53
 650 990 650 990 748 1066 c 1,29,-1
EndSplineSet
Substitution2: "'case' Case-Sensitive Forms lookup 28 subtable" Ntilde
Substitution2: "'aalt' Access All Alternates lookup 0 subtable" Ntilde
EndChar

StartChar: ograve
Encoding: 242 242 180
Width: 941
GlyphClass: 2
Flags: W
AnchorPoint: "Anchor-1" 0 0 basechar 0
AnchorPoint: "Anchor-0" 560 1050 basechar 0
LayerCount: 2
Fore
SplineSet
416 1592 m 1,0,-1
 433 1594 l 1,1,2
 598 1434 598 1434 808 1261 c 1,3,-1
 759 1193 l 1,4,-1
 741 1191 l 1,5,6
 564 1315 564 1315 353 1482 c 1,7,-1
 351 1502 l 1,8,-1
 416 1592 l 1,0,-1
591 1068 m 1,9,-1
 610 1068 l 1,10,11
 694 1054 694 1054 748.5 1013 c 128,-1,12
 803 972 803 972 831.5 899 c 128,-1,13
 860 826 860 826 860 720 c 0,14,15
 860 562 860 562 826 430 c 128,-1,16
 792 298 792 298 728.5 202 c 128,-1,17
 665 106 665 106 570 48 c 128,-1,18
 475 -10 475 -10 357 -20 c 1,19,-1
 339 -18 l 1,20,21
 209 7 209 7 146 91.5 c 128,-1,22
 83 176 83 176 83 342 c 0,23,24
 83 548 83 548 143.5 709 c 128,-1,25
 204 870 204 870 319.5 965 c 128,-1,26
 435 1060 435 1060 591 1068 c 1,9,-1
562 928 m 0,27,28
 485 928 485 928 423.5 886.5 c 128,-1,29
 362 845 362 845 322 768 c 128,-1,30
 282 691 282 691 261.5 583.5 c 128,-1,31
 241 476 241 476 241 344 c 0,32,33
 241 284 241 284 248.5 241.5 c 128,-1,34
 256 199 256 199 273 171 c 128,-1,35
 290 143 290 143 317 129.5 c 128,-1,36
 344 116 344 116 383 116 c 0,37,38
 484 116 484 116 556 191.5 c 128,-1,39
 628 267 628 267 664 399.5 c 128,-1,40
 700 532 700 532 700 709 c 0,41,42
 700 787 700 787 685.5 835 c 128,-1,43
 671 883 671 883 641 905.5 c 128,-1,44
 611 928 611 928 562 928 c 0,27,28
EndSplineSet
Substitution2: "'case' Case-Sensitive Forms lookup 28 subtable" Ograve
Substitution2: "'aalt' Access All Alternates lookup 0 subtable" Ograve
EndChar

StartChar: oacute
Encoding: 243 243 181
Width: 941
GlyphClass: 2
Flags: W
AnchorPoint: "Anchor-1" 0 0 basechar 0
AnchorPoint: "Anchor-0" 560 1050 basechar 0
LayerCount: 2
Fore
SplineSet
768 1592 m 1,0,-1
 832 1502 l 1,1,-1
 828 1482 l 1,2,3
 590 1294 590 1294 442 1191 c 1,4,-1
 424 1193 l 1,5,-1
 376 1261 l 1,6,7
 589 1438 589 1438 748 1594 c 1,8,-1
 768 1592 l 1,0,-1
591 1068 m 1,9,-1
 610 1068 l 1,10,11
 694 1054 694 1054 748.5 1013 c 128,-1,12
 803 972 803 972 831.5 899 c 128,-1,13
 860 826 860 826 860 720 c 0,14,15
 860 562 860 562 826 430 c 128,-1,16
 792 298 792 298 728.5 202 c 128,-1,17
 665 106 665 106 570 48 c 128,-1,18
 475 -10 475 -10 357 -20 c 1,19,-1
 339 -18 l 1,20,21
 209 7 209 7 146 91.5 c 128,-1,22
 83 176 83 176 83 342 c 0,23,24
 83 548 83 548 143.5 709 c 128,-1,25
 204 870 204 870 319.5 965 c 128,-1,26
 435 1060 435 1060 591 1068 c 1,9,-1
562 928 m 0,27,28
 485 928 485 928 423.5 886.5 c 128,-1,29
 362 845 362 845 322 768 c 128,-1,30
 282 691 282 691 261.5 583.5 c 128,-1,31
 241 476 241 476 241 344 c 0,32,33
 241 284 241 284 248.5 241.5 c 128,-1,34
 256 199 256 199 273 171 c 128,-1,35
 290 143 290 143 317 129.5 c 128,-1,36
 344 116 344 116 383 116 c 0,37,38
 484 116 484 116 556 191.5 c 128,-1,39
 628 267 628 267 664 399.5 c 128,-1,40
 700 532 700 532 700 709 c 0,41,42
 700 787 700 787 685.5 835 c 128,-1,43
 671 883 671 883 641 905.5 c 128,-1,44
 611 928 611 928 562 928 c 0,27,28
EndSplineSet
Substitution2: "'case' Case-Sensitive Forms lookup 28 subtable" Oacute
Substitution2: "'aalt' Access All Alternates lookup 0 subtable" Oacute
EndChar

StartChar: ocircumflex
Encoding: 244 244 182
Width: 941
GlyphClass: 2
Flags: W
AnchorPoint: "Anchor-1" 0 0 basechar 0
AnchorPoint: "Anchor-0" 560 1050 basechar 0
LayerCount: 2
Fore
SplineSet
337 1195 m 1,0,-1
 298 1263 l 1,1,2
 428 1381 428 1381 610 1571 c 1,3,-1
 663 1571 l 1,4,5
 781 1402 781 1402 899 1263 c 1,6,-1
 844 1195 l 1,7,-1
 825 1195 l 1,8,9
 716 1307 716 1307 622 1436 c 1,10,11
 526 1340 526 1340 357 1195 c 1,12,-1
 337 1195 l 1,0,-1
591 1068 m 1,13,-1
 610 1068 l 1,14,15
 694 1054 694 1054 748.5 1013 c 128,-1,16
 803 972 803 972 831.5 899 c 128,-1,17
 860 826 860 826 860 720 c 0,18,19
 860 562 860 562 826 430 c 128,-1,20
 792 298 792 298 728.5 202 c 128,-1,21
 665 106 665 106 570 48 c 128,-1,22
 475 -10 475 -10 357 -20 c 1,23,-1
 339 -18 l 1,24,25
 209 7 209 7 146 91.5 c 128,-1,26
 83 176 83 176 83 342 c 0,27,28
 83 548 83 548 143.5 709 c 128,-1,29
 204 870 204 870 319.5 965 c 128,-1,30
 435 1060 435 1060 591 1068 c 1,13,-1
562 928 m 0,31,32
 485 928 485 928 423.5 886.5 c 128,-1,33
 362 845 362 845 322 768 c 128,-1,34
 282 691 282 691 261.5 583.5 c 128,-1,35
 241 476 241 476 241 344 c 0,36,37
 241 284 241 284 248.5 241.5 c 128,-1,38
 256 199 256 199 273 171 c 128,-1,39
 290 143 290 143 317 129.5 c 128,-1,40
 344 116 344 116 383 116 c 0,41,42
 484 116 484 116 556 191.5 c 128,-1,43
 628 267 628 267 664 399.5 c 128,-1,44
 700 532 700 532 700 709 c 0,45,46
 700 787 700 787 685.5 835 c 128,-1,47
 671 883 671 883 641 905.5 c 128,-1,48
 611 928 611 928 562 928 c 0,31,32
EndSplineSet
Substitution2: "'case' Case-Sensitive Forms lookup 28 subtable" Ocircumflex
Substitution2: "'aalt' Access All Alternates lookup 0 subtable" Ocircumflex
EndChar

